<svg width="249" height="268" viewBox="0 0 249 268" fill="none" xmlns="http://www.w3.org/2000/svg">
<path d="M124.446 267.441C193.176 267.441 248.892 235.464 248.892 196.019C248.892 156.574 193.176 124.598 124.446 124.598C55.7165 124.598 0 156.574 0 196.019C0 235.464 55.7165 267.441 124.446 267.441Z" fill="#5869E6"/>
<path d="M42.5915 187.922C24.0357 199.043 24.0357 217.069 42.5915 228.196C61.1474 239.322 91.3007 239.316 109.857 228.196C128.413 217.075 128.413 199.055 109.857 187.922C91.3007 176.79 61.1648 176.808 42.5915 187.922Z" fill="#733DF5"/>
<path d="M223.105 174.974L217.991 171.909C217.991 171.909 214.947 158.793 216.159 146.993C217.863 130.397 228.405 124.152 232.395 125.583C236.385 127.013 237.562 131.846 230.928 141.728C227.054 147.558 222.247 159.707 223.105 174.974Z" fill="#212228"/>
<g opacity="0.15">
<path d="M223.105 174.974L217.991 171.909C217.991 171.909 214.947 158.793 216.159 146.993C217.863 130.397 228.405 124.152 232.395 125.583C236.385 127.013 237.562 131.846 230.928 141.728C227.054 147.558 222.247 159.707 223.105 174.974Z" fill="black"/>
</g>
<path d="M221.006 168.56H221.053C221.098 168.552 221.142 168.534 221.181 168.508C221.22 168.482 221.254 168.448 221.28 168.408C221.306 168.368 221.325 168.324 221.335 168.277C221.345 168.23 221.345 168.181 221.337 168.134C218.53 152.824 223.691 135.627 230.076 128.462C230.142 128.392 230.179 128.298 230.179 128.2C230.179 128.102 230.142 128.008 230.076 127.939C230.008 127.872 229.917 127.834 229.823 127.834C229.729 127.834 229.639 127.872 229.571 127.939C223.071 135.23 217.811 152.71 220.658 168.212C220.661 168.305 220.699 168.394 220.764 168.459C220.829 168.524 220.916 168.56 221.006 168.56Z" fill="white"/>
<path d="M236.53 182.986C237.336 183.413 239.487 181.508 240.084 181.045C241.111 180.239 241.919 179.173 242.433 177.949C243.011 176.559 243.155 175.016 242.844 173.537C242.681 172.757 242.466 171.99 242.201 171.241L241.464 169.017C241.174 168.302 241.028 167.533 241.035 166.757C241.151 165.2 242.421 164.052 243.575 163.054C244.856 161.954 246.173 160.524 246.074 158.66C245.907 157.224 245.285 155.886 244.306 154.855C243.395 153.773 242.328 152.83 241.493 151.682C240.844 150.886 240.476 149.886 240.449 148.844C240.504 148.201 240.681 147.576 240.971 147.005C241.551 145.761 242.328 144.601 242.711 143.284C243.094 141.968 242.943 140.351 241.922 139.473C241.082 138.746 239.881 138.704 238.797 138.836C237.784 139.019 236.822 139.43 235.979 140.038C233.207 141.842 231.757 145.406 228.794 146.831C227.634 147.378 226.382 147.552 225.181 147.949C223.981 148.346 222.781 149.049 222.282 150.245C221.285 152.601 223.482 155.324 222.821 157.801C222.241 159.995 220.253 160.92 219.215 162.928C218.792 163.809 218.654 164.808 218.82 165.777C219.002 167.422 219.47 169.018 220.2 170.49C221.026 171.997 221.94 173.45 222.937 174.842C222.937 174.842 236.408 182.932 236.53 182.986Z" fill="#212228"/>
<path d="M228.695 178.778C228.742 178.775 228.787 178.761 228.829 178.739C228.87 178.717 228.907 178.687 228.937 178.65C228.968 178.613 228.99 178.571 229.005 178.525C229.019 178.478 229.024 178.43 229.02 178.382C227.727 163.823 233.572 147.372 238.165 142.437C238.198 142.403 238.225 142.363 238.243 142.318C238.261 142.274 238.27 142.226 238.27 142.178C238.27 142.13 238.261 142.082 238.243 142.038C238.225 141.993 238.198 141.953 238.165 141.92C238.097 141.851 238.007 141.812 237.912 141.812C237.818 141.812 237.728 141.851 237.66 141.92C232.963 146.921 227.014 163.673 228.324 178.436C228.33 178.532 228.373 178.622 228.442 178.686C228.512 178.75 228.603 178.783 228.695 178.778Z" fill="white"/>
<path d="M230.093 160.818C230.127 160.826 230.163 160.826 230.197 160.818C233.486 159.693 236.883 158.943 240.328 158.582C240.421 158.571 240.507 158.523 240.566 158.448C240.626 158.372 240.655 158.276 240.647 158.179C240.644 158.131 240.631 158.083 240.61 158.04C240.589 157.997 240.56 157.959 240.524 157.928C240.488 157.897 240.447 157.874 240.402 157.86C240.357 157.847 240.31 157.842 240.264 157.848C236.757 158.219 233.3 158.985 229.954 160.132C229.91 160.149 229.87 160.174 229.835 160.206C229.801 160.238 229.773 160.277 229.753 160.321C229.733 160.364 229.721 160.411 229.719 160.46C229.717 160.508 229.724 160.556 229.739 160.601C229.77 160.67 229.82 160.728 229.883 160.767C229.947 160.806 230.02 160.823 230.093 160.818Z" fill="white"/>
<path d="M26.3378 174.974L31.4522 171.909C31.4522 171.909 34.4966 158.793 33.2846 146.993C31.5798 130.397 21.0377 124.152 17.0482 125.583C13.0587 127.013 11.8816 131.846 18.5153 141.728C22.4062 147.558 27.2134 159.707 26.3378 174.974Z" fill="#212228"/>
<g opacity="0.15">
<path d="M26.3378 174.974L31.4522 171.909C31.4522 171.909 34.4966 158.793 33.2846 146.993C31.5798 130.397 21.0377 124.152 17.0482 125.583C13.0587 127.013 11.8816 131.846 18.5153 141.728C22.4062 147.558 27.2134 159.707 26.3378 174.974Z" fill="black"/>
</g>
<path d="M28.4543 168.56H28.4079C28.3622 168.552 28.3186 168.534 28.2796 168.508C28.2406 168.482 28.2069 168.448 28.1805 168.408C28.1542 168.368 28.1356 168.324 28.1258 168.277C28.1161 168.23 28.1154 168.181 28.1237 168.134C30.9303 152.824 25.7695 135.627 19.3851 128.462C19.3189 128.392 19.2817 128.298 19.2817 128.2C19.2817 128.102 19.3189 128.008 19.3851 127.939C19.453 127.872 19.5434 127.834 19.6373 127.834C19.7313 127.834 19.8216 127.872 19.8896 127.939C26.3899 135.23 31.6494 152.71 28.8022 168.212C28.7992 168.305 28.7612 168.394 28.6963 168.459C28.6314 168.524 28.5446 168.56 28.4543 168.56Z" fill="white"/>
<path d="M12.9311 182.986C12.1251 183.413 9.97378 181.508 9.37651 181.045C8.3501 180.239 7.54127 179.173 7.02803 177.949C6.44976 176.559 6.3058 175.016 6.61632 173.537C6.77938 172.757 6.99445 171.99 7.25998 171.241L7.99642 169.017C8.28639 168.302 8.4324 167.533 8.42552 166.757C8.30955 165.2 7.03963 164.052 5.88569 163.054C4.60417 161.954 3.28786 160.524 3.38644 158.66C3.54581 157.228 4.15739 155.89 5.12605 154.855C6.03645 153.773 7.10341 152.83 7.93843 151.682C8.58744 150.886 8.9556 149.886 8.9822 148.844C8.92802 148.201 8.75059 147.576 8.46031 147.005C7.88044 145.761 7.10342 144.601 6.7207 143.284C6.33798 141.968 6.48875 140.351 7.50933 139.473C8.35014 138.746 9.55047 138.704 10.6348 138.836C11.6475 139.019 12.6094 139.43 13.453 140.038C16.2248 141.842 17.6745 145.406 20.6376 146.831C21.7974 147.378 23.0499 147.552 24.2502 147.949C25.4505 148.346 26.6509 149.049 27.1496 150.245C28.1469 152.601 25.9492 155.324 26.6103 157.801C27.1902 159.995 29.1791 160.92 30.2171 162.928C30.6397 163.809 30.7779 164.808 30.6114 165.777C30.4297 167.422 29.9621 169.018 29.2313 170.49C28.4169 171.998 27.5145 173.453 26.5291 174.848C26.5291 174.848 13.0529 182.932 12.9311 182.986Z" fill="#212228"/>
<path d="M20.7652 178.778C20.7187 178.775 20.6734 178.761 20.6318 178.739C20.5903 178.717 20.5534 178.687 20.5232 178.65C20.493 178.613 20.4702 178.571 20.456 178.525C20.4418 178.478 20.4365 178.43 20.4405 178.382C21.7336 163.823 15.8885 147.372 11.2959 142.437C11.2626 142.403 11.2361 142.363 11.218 142.318C11.1999 142.274 11.1906 142.226 11.1906 142.178C11.1906 142.13 11.1999 142.082 11.218 142.038C11.2361 141.993 11.2626 141.953 11.2959 141.92C11.3631 141.851 11.4537 141.812 11.5481 141.812C11.6425 141.812 11.7331 141.851 11.8004 141.92C16.4799 146.921 22.47 163.673 21.1363 178.436C21.1303 178.532 21.088 178.622 21.0186 178.686C20.9491 178.75 20.8581 178.783 20.7652 178.778Z" fill="white"/>
<path d="M19.3677 160.818C19.3334 160.827 19.2976 160.827 19.2633 160.818C15.9758 159.685 12.579 158.928 9.13296 158.558C9.03958 158.548 8.95393 158.499 8.89432 158.424C8.83472 158.349 8.8059 158.252 8.81404 158.155C8.81686 158.107 8.82918 158.06 8.85024 158.017C8.8713 157.974 8.90066 157.935 8.93651 157.904C8.97236 157.873 9.01394 157.85 9.05869 157.837C9.10344 157.823 9.15043 157.819 9.19675 157.825C12.7033 158.196 16.1604 158.962 19.5069 160.109C19.5507 160.125 19.591 160.15 19.6255 160.182C19.66 160.215 19.688 160.254 19.7079 160.297C19.7278 160.341 19.7393 160.388 19.7416 160.436C19.7439 160.484 19.7371 160.532 19.7214 160.578C19.6945 160.652 19.6458 160.714 19.5823 160.758C19.5187 160.801 19.4436 160.822 19.3677 160.818Z" fill="white"/>
<path d="M86.8879 39.8383C93.3534 39.5799 95.8933 39.9946 98.207 42.9099C100.724 46.0716 109.352 75.1163 109.352 75.1163L132.367 83.3813L123.808 89.0195C123.808 89.0195 109.729 86.0141 105.571 85.1846C102.301 84.5294 101.228 84.4933 99.5813 80.1595C97.3024 74.1486 87.5721 49.4438 87.5721 49.4438L86.8879 39.8383Z" fill="#FFA8A7"/>
<path d="M87.6649 39.6818C91.3297 39.3512 94.1653 39.4954 96.2412 40.6676C98.3172 41.8397 99.1928 43.2763 100.602 46.9369C102.011 50.5976 109.671 74.545 109.671 74.545L120.909 78.6925L118.589 87.9133C118.589 87.9133 106.372 85.7072 103.849 85.1182C101.327 84.5291 100.642 83.9581 99.2102 80.5619C97.7779 77.1658 89.4509 55.5566 89.4509 55.5566L87.6649 39.6818Z" fill="#455A64"/>
<path d="M62.9856 223.153C62.7478 224.145 62.2376 226.964 57.1869 226.964C52.1362 226.964 49.2426 224.818 48.2511 222.155C47.2595 219.492 47.8277 217.527 47.9205 215.207C48.0133 212.886 46.3491 211.408 45.978 210.158C45.4387 208.312 46.9231 205.77 46.9231 205.77L62.9856 223.153Z" fill="#263238"/>
<path d="M110.321 208.714C110.506 208.852 110.616 210.481 110.089 211.233C109.717 211.744 106.337 214.292 102.156 213.763C99.0893 213.45 96.14 212.378 93.5564 210.638C91.1094 209.147 89.4277 208.931 86.9401 208.937C84.4524 208.943 82.7534 208.462 82.5505 207.812C82.1851 206.676 82.162 205.949 82.6896 205.967L110.321 208.714Z" fill="#263238"/>
<path d="M48.6048 201.959C48.6048 206.731 57.4188 207.603 57.1985 203.762L60.2718 192.612L50.3038 191.518L48.6048 201.959Z" fill="#FFA8A7"/>
<path d="M62.9392 220.765C62.6145 219.858 61.4953 218.463 61.0314 217.622C58.5843 213.278 57.4228 208.284 57.6914 203.262C57.6914 202.985 57.7436 202.444 57.5 202.24C57.2565 202.035 56.9549 202.24 56.6534 202.318C56.1366 202.467 55.6008 202.534 55.0645 202.516C53.2843 202.468 51.3998 201.753 50.9533 201.753C50.6053 201.753 50.3734 202.835 50.2226 204.025C49.6427 203.526 49.5558 202.684 49.0629 202.131C48.7961 201.831 48.6628 201.807 48.7265 201.386C48.7671 201.11 48.8193 200.869 48.8541 200.593C48.425 200.388 47.8104 202.125 47.2537 203.442C46.6158 204.963 45.8446 206.67 46.2331 208.365C46.4992 209.295 46.8588 210.193 47.3059 211.046C48.0715 212.526 48.4813 214.175 48.5004 215.854C48.5004 216.582 48.3206 217.309 48.3264 218.036C48.3271 219.268 48.6698 220.473 49.3135 221.508C49.9572 222.543 50.8747 223.364 51.9564 223.873C54.8558 225.279 59.4078 225.772 62.3593 223.963C63.3683 223.332 63.2639 221.673 62.9392 220.765Z" fill="#263238"/>
<path d="M84.4466 198.075C86.9401 199.927 89.2422 200.155 92.1647 198.634L93.6434 182.387H82.8636L84.4466 198.075Z" fill="#FFA8A7"/>
<path d="M60.8459 93.7979C58.8569 112.726 56.2069 150.3 56.2069 150.3C56.2069 150.3 53.2032 156.011 52.0434 165.141C50.5995 176.418 48.9063 197.865 48.9063 197.865C48.9063 197.865 53.9976 201.297 58.9439 199.638C58.9439 199.638 70.263 165.778 72.5245 154.676C74.496 144.987 77.9869 125.091 77.9869 125.091L82.3475 152.17C81.2132 156.464 80.7377 160.916 80.9384 165.364C81.1472 170.581 83.1303 190.513 83.1303 190.513C84.7714 192.118 91.0688 192.317 93.1679 190.952C93.1679 190.952 96.189 157.754 96.6471 152.278C97.227 145.065 98.3056 93.3711 98.3056 93.3711L60.8459 93.7979Z" fill="#263238"/>
<path d="M78.0043 125.091L80.4397 113.448C80.4397 113.448 85.8847 112.162 89.7757 108.928C89.7757 108.928 88.3492 112.642 82.3823 115.486L79.8773 126.389L82.017 150.319L78.0043 125.091Z" fill="black"/>
<path d="M108.181 205.457C104.058 203.858 100.063 201.988 97.5053 200.137C96.9024 199.715 96.3217 199.259 95.7657 198.772C94.7161 197.678 94.0725 195.298 93.6202 195.028C93.4694 194.937 93.2607 195.028 92.9591 195.238C92.8425 195.077 92.6699 194.969 92.4778 194.938L92.4199 195.599C91.5655 196.164 90.6013 196.528 89.5959 196.663C87.0676 196.999 86.9691 196.47 86.8879 197.324C86.8624 197.642 86.8624 197.962 86.8879 198.28C85.5426 198.099 84.4698 197.678 84.3944 197.168L84.1683 195.49C82.8288 195.418 82.8288 197.895 82.4925 200.696C82.2199 202.962 81.756 204.615 82.4113 206.244C84.4988 207.993 88.0418 207.41 90.083 207.681C92.9823 208.059 94.3914 210.211 98.4331 211.486C104.951 213.547 108.917 210.728 110.083 209.52C110.86 208.011 110.431 206.328 108.181 205.457Z" fill="#263238"/>
<path d="M76.3575 40.2411C71.2604 41.0465 67.2071 41.2569 63.6409 41.858C60.9155 42.3148 60.0921 47.1536 59.9123 50.2732C59.3324 60.4497 61.5765 79.9551 61.5765 79.9551L60.208 97.3446C64.7832 102.418 86.7082 104.636 98.3984 97.2004C98.3984 97.2004 98.7115 62.6136 98.3984 56.7831C97.8475 46.5164 92.1242 39.9525 88.471 39.67C88.471 39.682 85.1309 38.8585 76.3575 40.2411Z" fill="#37474F"/>
<path d="M85.4846 101.528C86.0007 101.461 86.511 101.377 87.0155 101.293C87.172 94.4407 87.3402 80.9702 87.1662 74.4725C86.8647 63.4244 85.4788 51.6851 83.89 48.0605C85.369 56.4543 86.043 64.9793 85.9021 73.5107C85.8267 82.3648 85.6064 95.1319 85.4846 101.528Z" fill="#263238"/>
<path d="M38.6252 75.5434C50.8025 51.4998 53.7889 46.2643 57.3551 43.6135C59.315 42.1589 64.157 41.7441 64.157 41.7441C66.1749 43.9982 67.584 52.2452 63.2524 59.5845C63.2524 59.5845 53.0176 74.0107 50.2227 78.8194C53.1568 84.5658 57.5116 91.6767 60.208 95.1089C60.8017 95.8484 61.6422 96.3291 62.5623 96.4554C64.9282 96.6898 66.0068 97.4652 68.0073 98.2586C69.5672 98.8597 70.6341 98.6854 70.6225 99.1242C70.6225 99.6892 70.0948 100.843 68.5582 101.102C67.6285 101.205 66.6894 101.17 65.769 101C67.0921 102.247 68.5946 103.273 70.2224 104.041C74.1134 105.947 75.3021 108.754 69.5672 110.545C67.2767 111.266 63.0842 111.146 57.4189 105.442C55.4995 103.512 51.8985 99.527 50.0023 97.2669C45.0386 91.3461 40.9331 86.0926 38.2947 82.5221C36.6537 80.268 37.5119 77.7434 38.6252 75.5434Z" fill="#FFA8A7"/>
<path d="M55.8126 88.3576L59.112 93.6291C59.112 93.6291 53.6671 95.0116 51.8405 99.3635L47.0913 94.122C47.0913 94.122 47.3928 92.0122 50.4604 89.9144C53.5279 87.8166 55.8126 88.3576 55.8126 88.3576Z" fill="#37474F"/>
<path d="M65.914 41.5263C61.8897 41.4903 58.8569 41.6105 56.4794 43.4679C54.102 45.3252 50.6807 51.4563 47.9727 56.5957C45.2647 61.735 38.3701 74.3759 37.3785 77.3032C36.3869 80.2305 37.0538 81.6732 38.7064 83.807C40.359 85.9409 47.1203 94.1097 47.1203 94.1097C49.2369 91.3808 52.1014 88.9343 55.8184 88.3453L50.7909 78.7639L62.5681 62.2219C62.5681 62.2219 65.8444 58.0142 66.5634 50.9454C67.2825 43.8766 65.914 41.5263 65.914 41.5263Z" fill="#455A64"/>
<path d="M71.4227 9.64453C71.4227 9.64453 68.6278 10.0473 67.6014 12.2352C66.7084 14.1347 67.0215 18.721 68.2218 23.7221C69.4222 28.7231 70.5413 31.7346 71.2314 33.1171C71.691 33.9816 72.4558 34.6279 73.3653 34.9204L73.2261 28.9876L73.0174 24.8521C73.0174 24.8521 75.5804 21.2456 75.8588 18.2401C76.2183 14.4172 75.447 12.8303 75.447 12.8303L71.4227 9.64453Z" fill="#263238"/>
<path d="M70.7675 10.3722L66.8243 8.50279C67.0658 7.93084 67.5125 7.47869 68.0698 7.24199C68.6272 7.00529 69.2515 7.0026 69.8107 7.23448C70.0751 7.37225 70.3101 7.56353 70.502 7.79703C70.6939 8.03053 70.8388 8.30152 70.9279 8.594C71.0171 8.88648 71.0489 9.19452 71.0213 9.49992C70.9937 9.80533 70.9074 10.1019 70.7675 10.3722Z" fill="#263238"/>
<path d="M75.9399 15.3857C75.9468 17.5767 76.5803 19.7164 77.7604 21.5342C78.9404 23.352 80.6139 24.7663 82.5693 25.5982C84.5248 26.43 86.6742 26.6422 88.746 26.2077C90.8177 25.7733 92.7186 24.7118 94.2083 23.1574C95.6981 21.6031 96.7097 19.6258 97.1153 17.4754C97.5209 15.3251 97.3023 13.0984 96.4871 11.0769C95.6719 9.05539 94.2967 7.32986 92.5354 6.11852C90.7741 4.90717 88.7059 4.26442 86.5922 4.27154C85.1887 4.27627 83.7999 4.5675 82.5051 5.1286C81.2102 5.6897 80.0346 6.50968 79.0455 7.54173C78.0563 8.57377 77.273 9.79767 76.7401 11.1435C76.2073 12.4894 75.9354 13.9309 75.9399 15.3857Z" fill="#263238"/>
<path d="M73.1681 24.1615C72.2056 25.027 71.4285 22.791 70.6167 21.9194C69.8049 21.0478 67.1665 19.8577 65.8618 22.7309C64.5571 25.6041 67.0679 29.6374 69.0395 30.5871C71.9388 31.9756 73.2261 28.9582 73.2261 28.9582L73.5335 41.4368C76.3111 45.8007 82.8114 44.1357 83.7624 46.7264C84.3423 44.4242 87.2416 44.4182 85.1657 41.9177V37.8543C85.1657 37.8543 88.4014 38.3532 89.9844 38.0947C92.6054 37.662 93.9797 35.6122 94.7684 32.6849C96.0325 27.9423 96.5428 19.9779 94.7684 10.7752C91.8226 8.4129 81.6227 8.80361 75.4528 12.861C75.8993 21.0057 74.1307 23.3019 73.1681 24.1615Z" fill="#FFA8A7"/>
<path d="M96.2296 4.23543C96.1966 4.15454 96.1441 4.08384 96.0771 4.03014C96.01 3.97645 95.9308 3.94157 95.8469 3.92887C95.7141 3.9444 95.5889 4.00094 95.4874 4.09117C94.7603 4.70321 93.9843 5.25017 93.1679 5.72613C93.3871 4.63717 93.4009 3.51452 93.2085 2.42013C93.0925 1.74691 92.9128 0.190089 92.1126 0.0157726C91.6313 -0.0864128 91.2196 0.32834 90.86 0.670961C87.6476 3.79062 83.4551 2.348 79.5873 2.47423C76.3517 2.58243 72.4491 3.9469 70.9878 7.21083C70.3152 8.70153 70.1992 10.2704 71.5213 11.3043C72.7039 12.1272 74.0566 12.6502 75.4703 12.831C81.9126 13.9911 91.1268 16.7441 95.9165 10.5108C96.6171 9.58241 96.973 8.42427 96.9197 7.24689C96.9266 6.2069 96.7045 5.17898 96.2702 4.24144L96.2296 4.23543Z" fill="#263238"/>
<path d="M85.1425 37.8603C85.1425 37.8603 79.2684 36.6582 77.2156 35.5281C76.0075 34.8827 75.0167 33.8724 74.3743 32.6309C74.6874 33.8734 75.2376 35.0384 75.9921 36.0571C77.4998 38.0407 85.1483 39.4773 85.1483 39.4773L85.1425 37.8603Z" fill="#F28F8F"/>
<path d="M83.6174 22.7019C83.6049 22.9364 83.5265 23.162 83.3917 23.3508C83.2569 23.5396 83.0718 23.6834 82.8591 23.7643C82.6464 23.8453 82.4154 23.8598 82.1948 23.8062C81.9742 23.7527 81.7736 23.6333 81.6177 23.4628C81.4618 23.2923 81.3576 23.0783 81.3177 22.847C81.2779 22.6158 81.3043 22.3776 81.3937 22.1617C81.483 21.9459 81.6314 21.7619 81.8205 21.6325C82.0096 21.5031 82.2311 21.4339 82.4577 21.4336C82.6143 21.4375 82.7686 21.4734 82.9118 21.5394C83.055 21.6053 83.1842 21.6999 83.2919 21.8178C83.3997 21.9356 83.484 22.0744 83.5398 22.2262C83.5957 22.3779 83.622 22.5396 83.6174 22.7019Z" fill="#263238"/>
<path d="M82.3591 18.1033L79.8773 19.5519C79.6962 19.1947 79.6555 18.7787 79.7636 18.3911C79.8716 18.0034 80.1202 17.6742 80.4572 17.4721C80.6219 17.3837 80.802 17.3299 80.9869 17.3137C81.1718 17.2976 81.3579 17.3195 81.5346 17.3781C81.7114 17.4368 81.8752 17.531 82.0167 17.6555C82.1582 17.7799 82.2745 17.9321 82.3591 18.1033Z" fill="#263238"/>
<path d="M84.1973 30.4492L87.9491 31.8918C87.8682 32.1532 87.7373 32.395 87.5644 32.6027C87.3914 32.8105 87.1798 32.9801 86.9422 33.1012C86.7046 33.2224 86.4459 33.2927 86.1815 33.308C85.9172 33.3233 85.6525 33.2832 85.4034 33.1902C84.8992 32.9841 84.4917 32.5833 84.2667 32.072C84.0418 31.5608 84.0169 30.9791 84.1973 30.4492Z" fill="#F28F8F"/>
<path d="M93.9798 19.3823L91.6603 17.5791C91.7675 17.4178 91.9052 17.2809 92.0651 17.1766C92.225 17.0723 92.4037 17.0029 92.5904 16.9725C92.777 16.9422 92.9676 16.9515 93.1507 17C93.3337 17.0484 93.5053 17.135 93.655 17.2545C93.9586 17.5009 94.1609 17.8574 94.2212 18.2522C94.2814 18.647 94.1952 19.0508 93.9798 19.3823Z" fill="#263238"/>
<path d="M93.2839 22.317C93.2725 22.5518 93.195 22.7781 93.0608 22.9677C92.9267 23.1573 92.7419 23.302 92.5292 23.3839C92.3166 23.4657 92.0854 23.4811 91.8644 23.4282C91.6434 23.3752 91.4422 23.2562 91.2857 23.086C91.1293 22.9157 91.0245 22.7016 90.9842 22.4702C90.944 22.2388 90.9701 22.0002 91.0593 21.784C91.1485 21.5678 91.297 21.3835 91.4862 21.2539C91.6755 21.1242 91.8973 21.055 92.1241 21.0547C92.4389 21.0641 92.7374 21.2021 92.9546 21.4385C93.1718 21.6749 93.2901 21.9906 93.2839 22.317Z" fill="#263238"/>
<path d="M87.404 21.1855L87.8099 28.5068L91.4979 27.1904L87.404 21.1855Z" fill="#F28F8F"/>
<path d="M116.032 62.7695C111.846 63.1843 103.907 61.7597 99.3204 58.7122C93.3013 54.7209 88.471 44.6466 86.627 41.0822C86.627 41.0822 85.0903 40.986 85.4672 41.5631C85.8441 42.1401 90.8252 54.4805 98.8043 59.704C102.863 62.3548 110.355 63.7493 115.852 63.3526L116.032 62.7695Z" fill="#733DF5"/>
<path opacity="0.4" d="M116.032 62.7695C111.846 63.1843 103.907 61.7597 99.3204 58.7122C93.3013 54.7209 88.471 44.6466 86.627 41.0822C86.627 41.0822 85.0903 40.986 85.4672 41.5631C85.8441 42.1401 90.8252 54.4805 98.8043 59.704C102.863 62.3548 110.355 63.7493 115.852 63.3526L116.032 62.7695Z" fill="black"/>
<path d="M116.032 62.7703C116.032 62.7703 100.956 65.325 91.4979 61.9228C82.5678 58.695 75.592 49.9311 73.5218 41.4316L71.759 41.7322C71.759 41.7322 76.1313 57.042 88.9928 62.3135C100.869 67.1884 115.087 63.4075 116.026 63.3113L116.032 62.7703Z" fill="#733DF5"/>
<path opacity="0.3" d="M116.032 62.7703C116.032 62.7703 100.956 65.325 91.4979 61.9228C82.5678 58.695 75.592 49.9311 73.5218 41.4316L71.759 41.7322C71.759 41.7322 76.1313 57.042 88.9928 62.3135C100.869 67.1884 115.087 63.4075 116.026 63.3113L116.032 62.7703Z" fill="black"/>
<path d="M117.569 62.3432C117.569 62.3432 116.456 62.5175 116.009 62.6317C115.389 62.794 115.133 63.5514 115.771 63.4853C116.409 63.4191 116.798 63.329 117.366 63.2328C117.934 63.1366 118.45 62.1989 117.569 62.3432Z" fill="#733DF5"/>
<path d="M117.32 62.8417C117.32 62.8417 118.659 63.004 118.665 62.992C118.671 62.98 119.024 62.5232 119.024 62.5232L117.865 62.457L117.32 62.8417Z" fill="#733DF5"/>
<path opacity="0.4" d="M117.32 62.8417C117.32 62.8417 118.659 63.004 118.665 62.992C118.671 62.98 119.024 62.5232 119.024 62.5232L117.865 62.457L117.32 62.8417Z" fill="black"/>
<path d="M118.149 62.9569L121.274 63.7563L122.04 63.2995C120.771 62.9581 119.455 62.8423 118.149 62.9569Z" fill="#263238"/>
<path d="M118.137 62.9551V63.1414L121.048 63.8868L121.263 63.7545L118.137 62.9551Z" fill="#37474F"/>
<path d="M130.854 59.9935C130.854 59.9935 130.854 59.9333 130.854 59.9093C130.854 59.8853 130.854 59.9093 130.854 59.8792C130.838 59.8507 130.818 59.8245 130.796 59.8011C130.776 59.773 130.75 59.7503 130.72 59.735H130.691L129.532 59.0497C129.461 59.0154 129.382 59.0018 129.305 59.0103C129.227 59.0187 129.153 59.049 129.091 59.0978L118.56 65.3912C118.378 65.5167 118.226 65.6849 118.117 65.8822C118.008 66.0794 117.946 66.3004 117.934 66.5273V90.4206C117.925 90.5017 117.937 90.5838 117.97 90.658C118.003 90.7322 118.055 90.7957 118.12 90.8414L119.28 91.5447H119.343C119.389 91.5566 119.437 91.5566 119.482 91.5447C119.558 91.5336 119.631 91.507 119.697 91.4665L130.227 85.1671C130.41 85.0446 130.562 84.8788 130.671 84.6833C130.78 84.4879 130.843 84.2685 130.854 84.0431V60.1557C130.86 60.1018 130.86 60.0474 130.854 59.9935ZM125.351 64.3634L122.985 65.7759C123.097 65.4044 123.333 65.0867 123.652 64.8803L126.018 63.4678C125.905 63.8388 125.668 64.1562 125.351 64.3634Z" fill="#733DF5"/>
<path opacity="0.15" d="M130.854 59.9935C130.854 59.9935 130.854 59.9333 130.854 59.9093C130.854 59.8853 130.854 59.9093 130.854 59.8792C130.838 59.8507 130.818 59.8245 130.796 59.8011C130.776 59.773 130.75 59.7503 130.72 59.735H130.691L129.532 59.0497C129.461 59.0154 129.382 59.0018 129.305 59.0103C129.227 59.0187 129.153 59.049 129.091 59.0978L118.56 65.3912C118.378 65.5167 118.226 65.6849 118.117 65.8822C118.008 66.0794 117.946 66.3004 117.934 66.5273V90.4206C117.925 90.5017 117.937 90.5838 117.97 90.658C118.003 90.7322 118.055 90.7957 118.12 90.8414L119.28 91.5447H119.343C119.389 91.5566 119.437 91.5566 119.482 91.5447C119.558 91.5336 119.631 91.507 119.697 91.4665L130.227 85.1671C130.41 85.0446 130.562 84.8788 130.671 84.6833C130.78 84.4879 130.843 84.2685 130.854 84.0431V60.1557C130.86 60.1018 130.86 60.0474 130.854 59.9935ZM125.351 64.3634L122.985 65.7759C123.097 65.4044 123.333 65.0867 123.652 64.8803L126.018 63.4678C125.905 63.8388 125.668 64.1562 125.351 64.3634Z" fill="black"/>
<path d="M119.309 91.5258L118.149 90.8225C118.084 90.7768 118.032 90.7133 117.999 90.6391C117.966 90.5649 117.954 90.4828 117.963 90.4017V66.5084C117.97 66.2809 118.034 66.0592 118.149 65.8652L119.309 66.5685C119.194 66.7625 119.13 66.9842 119.123 67.2117V91.093C119.111 91.176 119.122 91.2609 119.155 91.3376C119.187 91.4143 119.241 91.4796 119.309 91.5258Z" fill="#733DF5"/>
<path opacity="0.3" d="M119.309 91.5258L118.149 90.8225C118.084 90.7768 118.032 90.7133 117.999 90.6391C117.966 90.5649 117.954 90.4828 117.963 90.4017V66.5084C117.97 66.2809 118.034 66.0592 118.149 65.8652L119.309 66.5685C119.194 66.7625 119.13 66.9842 119.123 67.2117V91.093C119.111 91.176 119.122 91.2609 119.155 91.3376C119.187 91.4143 119.241 91.4796 119.309 91.5258Z" fill="black"/>
<path d="M130.854 59.9926C130.854 59.9926 130.854 59.9325 130.854 59.9085C130.854 59.8844 130.854 59.9085 130.854 59.8784C130.838 59.8499 130.818 59.8236 130.796 59.8003C130.776 59.7721 130.75 59.7494 130.72 59.7342H130.691C130.623 59.7111 130.549 59.7051 130.478 59.7166C130.406 59.7281 130.339 59.7567 130.28 59.8003L125.386 62.7276L122.712 64.3265L119.749 66.0997C119.568 66.2249 119.416 66.3922 119.308 66.5883C119.199 66.7844 119.136 67.004 119.123 67.2297V91.1111C119.113 91.1965 119.127 91.283 119.165 91.36C119.202 91.4369 119.26 91.5009 119.332 91.5438H119.395C119.441 91.5558 119.489 91.5558 119.535 91.5438C119.61 91.5327 119.683 91.5062 119.749 91.4657L130.28 85.1663C130.462 85.0437 130.615 84.8779 130.723 84.6825C130.832 84.4871 130.895 84.2676 130.906 84.0422V60.1549C130.895 60.0987 130.878 60.0442 130.854 59.9926ZM123.652 64.8915L126.018 63.4789C125.902 63.8455 125.666 64.1584 125.351 64.3625L122.985 65.7751C123.099 65.408 123.336 65.0949 123.652 64.8915Z" fill="#733DF5"/>
<path opacity="0.2" d="M127.067 63.6764C127.048 63.9327 126.972 64.1809 126.844 64.4012C126.716 64.6214 126.54 64.8075 126.331 64.9447L123.652 66.5496C123.246 66.79 122.915 66.6217 122.915 66.1649C122.916 66.0354 122.94 65.9071 122.985 65.7862L125.351 64.3616C125.666 64.1575 125.902 63.8446 126.018 63.478L126.331 63.2917C126.737 63.0453 127.067 63.2196 127.067 63.6764Z" fill="black"/>
<path d="M121.234 69.3822L128.726 64.8981C128.859 64.8199 128.969 64.8981 128.969 65.0423V74.9303C128.965 75.0181 128.94 75.1036 128.898 75.1799C128.856 75.2561 128.797 75.321 128.726 75.3691L121.234 79.8472C121.1 79.9253 120.99 79.8472 120.99 79.6969V69.815C120.996 69.7283 121.021 69.6442 121.063 69.5691C121.105 69.494 121.164 69.4301 121.234 69.3822Z" fill="#FAFAFA"/>
<path d="M128.586 75.4527L127.427 76.1559L127.288 76.2461C126.818 75.5669 126.4 74.9417 126.4 74.9417C126.275 74.5752 126.169 74.202 126.081 73.8237C126.011 73.533 125.959 73.2378 125.925 72.9401C126.226 72.8481 126.546 72.8481 126.847 72.9401C127.144 73.0896 127.389 73.3311 127.549 73.6314C127.699 73.962 128.204 74.8215 128.586 75.4527Z" fill="#455A64"/>
<path d="M127.392 76.1561L127.253 76.2463L125.89 77.0578L125.687 77.196L122.962 78.825L122.852 78.8911V78.4042L122.985 76.1501C122.985 75.7113 123.205 73.9802 123.205 73.9802L123.82 73.7277L124.197 73.5714L124.319 73.5234H124.365L125.397 73.0966L125.594 73.0365C125.615 73.033 125.637 73.033 125.658 73.0365C125.738 73.0135 125.819 72.9994 125.902 72.9944C126.667 72.9343 127.061 73.5294 127.264 74.4851C127.335 75.0394 127.378 75.5972 127.392 76.1561Z" fill="#37474F"/>
<path d="M125.89 77.0567L125.687 77.1949C125.783 76.1881 125.713 75.1716 125.478 74.1895C125.809 75.1044 125.949 76.0815 125.89 77.0567Z" fill="#263238"/>
<path d="M123.431 76.7278C123.431 76.7278 123.176 77.7616 122.956 78.8135L122.846 78.8797L121.303 79.7993C121.576 76.9321 121.761 75.4054 122.202 74.636C122.435 74.29 122.789 74.0509 123.188 73.9688C123.536 74.2392 123.681 75.5256 123.431 76.7278Z" fill="#455A64"/>
<path d="M123.913 68.9785C123.699 69.0606 123.526 69.2271 123.431 69.4414C123.334 69.9934 123.361 70.5614 123.513 71.1004C123.596 71.5452 123.722 71.9802 123.89 72.3987C123.917 72.4523 123.955 72.4987 124.003 72.5342C124.05 72.5696 124.104 72.5932 124.162 72.6031V71.7435L124.133 71.1424C124.31 70.8263 124.431 70.4804 124.493 70.1206C124.534 69.8615 124.517 69.5958 124.44 69.3452L123.913 68.9785Z" fill="#263238"/>
<path d="M123.832 69.0986L123.333 68.9182C123.408 68.7259 123.576 68.6117 123.71 68.6658C123.843 68.7199 123.901 68.9062 123.832 69.0986Z" fill="#263238"/>
<path d="M124.487 69.706C124.465 69.8931 124.486 70.0828 124.546 70.2605C124.607 70.4382 124.706 70.5991 124.836 70.7309C124.966 70.8626 125.123 70.9618 125.296 71.0206C125.469 71.0795 125.652 71.0965 125.832 71.0704C126.225 70.9613 126.572 70.7182 126.816 70.3803C127.06 70.0423 127.187 69.6291 127.177 69.2071C127.198 69.0198 127.177 68.8302 127.115 68.6528C127.054 68.4754 126.954 68.3149 126.824 68.1837C126.693 68.0525 126.536 67.954 126.363 67.8959C126.19 67.8379 126.006 67.8217 125.826 67.8486C125.434 67.9567 125.088 68.1989 124.845 68.536C124.602 68.873 124.476 69.2853 124.487 69.706Z" fill="#263238"/>
<path d="M124.133 71.0458C124.011 71.1961 123.913 70.8895 123.814 70.7813C123.716 70.6732 123.379 70.5589 123.234 71.0098C123.173 71.2087 123.179 71.4233 123.252 71.618C123.325 71.8126 123.46 71.9756 123.634 72.0797C123.994 72.2119 124.162 71.7431 124.162 71.7431L124.197 73.6846C124.551 74.2857 125.357 73.6846 125.484 74.0934C125.484 73.7748 125.925 73.6666 125.664 73.354V72.7529C125.869 72.7549 126.074 72.7287 126.273 72.6748C126.435 72.5892 126.574 72.462 126.675 72.3052C126.777 72.1484 126.838 71.9673 126.853 71.7792C127.05 70.7251 127.05 69.6414 126.853 68.5874C126.487 68.3109 125.2 68.5874 124.423 69.3387C124.481 70.5289 124.255 70.9016 124.133 71.0458Z" fill="#FFA8A7"/>
<path d="M127.038 67.6208C127.038 67.6208 127.038 67.5787 126.992 67.5847C126.945 67.5907 126.963 67.5847 126.945 67.6148C126.855 67.7215 126.756 67.8201 126.65 67.9093C126.676 67.7482 126.676 67.5836 126.65 67.4224C126.65 67.3323 126.615 67.1099 126.511 67.1039C126.406 67.0979 126.4 67.17 126.354 67.2301C125.948 67.753 125.42 67.6388 124.933 67.747C124.696 67.793 124.474 67.898 124.285 68.053C124.096 68.208 123.946 68.4083 123.849 68.6366C123.768 68.8711 123.75 69.0995 123.919 69.2377C124.069 69.3297 124.242 69.3755 124.417 69.37C125.229 69.37 126.395 69.5743 126.992 68.5585C127.079 68.4081 127.123 68.2351 127.119 68.0596C127.12 67.917 127.093 67.7758 127.038 67.6448V67.6208Z" fill="#263238"/>
<path d="M125.641 72.7648C125.304 72.7505 124.969 72.6981 124.643 72.6085C124.488 72.5366 124.361 72.4114 124.284 72.2539C124.323 72.4193 124.394 72.5748 124.493 72.7107C124.678 72.9692 125.652 72.9993 125.652 72.9993L125.641 72.7648Z" fill="#F28F8F"/>
<path d="M125.449 70.5844C125.452 70.6314 125.439 70.678 125.413 70.7163C125.387 70.7547 125.348 70.7824 125.304 70.7948C125.223 70.7948 125.154 70.7406 125.154 70.6385C125.152 70.5909 125.166 70.5442 125.194 70.506C125.221 70.4678 125.26 70.4403 125.304 70.4281C125.386 70.4221 125.449 70.4942 125.449 70.5844Z" fill="#263238"/>
<path d="M125.293 69.9836L124.974 70.2481C124.952 70.1945 124.948 70.1351 124.962 70.0789C124.975 70.0226 125.006 69.9723 125.049 69.9355C125.067 69.9178 125.088 69.9047 125.111 69.8974C125.135 69.89 125.159 69.8887 125.183 69.8934C125.207 69.8981 125.23 69.9088 125.249 69.9245C125.268 69.9402 125.283 69.9605 125.293 69.9836Z" fill="#263238"/>
<path d="M125.536 71.707L125.948 71.8152C125.937 71.8811 125.902 71.9401 125.85 71.9802C125.798 72.0204 125.734 72.0388 125.67 72.0316C125.64 72.0197 125.613 72.0018 125.59 71.9789C125.568 71.9561 125.549 71.9287 125.537 71.8985C125.525 71.8682 125.518 71.8357 125.518 71.8028C125.518 71.7699 125.524 71.7374 125.536 71.707Z" fill="#F28F8F"/>
<path d="M126.708 69.8378L126.418 69.6274C126.427 69.6025 126.441 69.5799 126.46 69.5612C126.478 69.5425 126.5 69.5282 126.524 69.519C126.548 69.5099 126.574 69.5063 126.6 69.5084C126.625 69.5105 126.65 69.5183 126.673 69.5313C126.711 69.5706 126.736 69.6225 126.742 69.6782C126.749 69.7339 126.736 69.7902 126.708 69.8378Z" fill="#263238"/>
<path d="M126.621 70.3257C126.624 70.3727 126.611 70.4193 126.584 70.4576C126.558 70.496 126.52 70.5237 126.476 70.536C126.395 70.536 126.325 70.4819 126.325 70.3798C126.323 70.3322 126.337 70.2855 126.365 70.2473C126.392 70.2091 126.431 70.1816 126.476 70.1694C126.557 70.1574 126.621 70.2235 126.621 70.3257Z" fill="#263238"/>
<path d="M125.925 70.2891L125.977 71.347L126.447 71.0705L125.925 70.2891Z" fill="#F28F8F"/>
<path d="M124.168 72.9336C124.069 72.9336 124.034 72.9817 123.959 73.18L123.797 73.6128C123.81 73.8919 123.924 74.1557 124.116 74.3522C124.407 74.5802 124.747 74.7309 125.107 74.791C125.107 74.791 125.165 74.3942 125.206 74.2259C125.304 73.8593 125.449 74.1057 125.449 74.1057C125.442 74.0357 125.416 73.9691 125.374 73.9134C125.109 73.8883 124.847 73.8277 124.597 73.733C124.391 73.6025 124.233 73.4033 124.15 73.168L124.168 72.9336Z" fill="#455A64"/>
<path d="M125.467 74.094C125.459 73.9787 125.49 73.8641 125.554 73.7694C125.623 73.6198 125.653 73.454 125.641 73.2886C125.641 73.1263 125.641 72.7656 125.641 72.7656C125.751 72.7656 125.832 72.7656 125.896 72.952C126.019 73.264 126.067 73.6023 126.035 73.9377C126.022 74.1538 125.952 74.3619 125.832 74.5388C125.832 74.5388 125.751 74.2143 125.699 74.07C125.647 73.9257 125.548 73.8776 125.467 74.094Z" fill="#455A64"/>
<path d="M122.509 80.3029L127.45 77.3455C127.63 77.2373 127.775 77.3455 127.775 77.5439V77.6761C127.772 77.7961 127.741 77.9136 127.684 78.0183C127.627 78.123 127.547 78.2119 127.45 78.2772L122.509 81.2346C122.33 81.3428 122.185 81.2346 122.185 81.0362V80.904C122.188 80.784 122.219 80.6666 122.275 80.5618C122.332 80.4571 122.412 80.3682 122.509 80.3029Z" fill="#455A64"/>
<path d="M121.303 83.7602L123.043 82.7023C123.118 82.6602 123.176 82.7023 123.176 82.7744C123.173 82.8215 123.159 82.8672 123.136 82.9078C123.113 82.9485 123.081 82.9831 123.043 83.0088L121.303 84.0668C121.228 84.1088 121.17 84.0668 121.17 83.9946C121.173 83.9476 121.187 83.9019 121.21 83.8612C121.233 83.8206 121.265 83.786 121.303 83.7602Z" fill="#455A64"/>
<path d="M124.353 81.9392L128.656 79.3605C128.731 79.3184 128.789 79.3605 128.789 79.4326C128.787 79.4799 128.774 79.526 128.75 79.5668C128.727 79.6076 128.695 79.642 128.656 79.667L124.353 82.2397C124.278 82.2878 124.22 82.2397 124.22 82.1676C124.222 82.1211 124.236 82.0759 124.259 82.036C124.282 81.9962 124.315 81.9629 124.353 81.9392Z" fill="#455A64"/>
<path d="M121.303 84.3676L123.043 83.3097C123.118 83.2676 123.176 83.3097 123.176 83.3818C123.174 83.4292 123.16 83.4752 123.137 83.516C123.114 83.5568 123.082 83.5912 123.043 83.6163L121.303 84.6742C121.228 84.7163 121.17 84.6742 121.17 84.6021C121.173 84.555 121.187 84.5093 121.21 84.4687C121.233 84.428 121.265 84.3934 121.303 84.3676Z" fill="#455A64"/>
<path d="M124.353 82.5453L128.656 79.9726C128.731 79.9245 128.789 79.9726 128.789 80.0387C128.787 80.086 128.774 80.1321 128.75 80.1729C128.727 80.2137 128.695 80.2481 128.656 80.2732L124.353 82.8458C124.278 82.8939 124.22 82.8458 124.22 82.7797C124.222 82.7324 124.236 82.6864 124.259 82.6456C124.282 82.6048 124.315 82.5704 124.353 82.5453Z" fill="#455A64"/>
<path d="M121.303 84.9737L123.043 83.9218C123.118 83.8737 123.176 83.9218 123.176 83.988C123.174 84.0353 123.16 84.0813 123.137 84.1221C123.114 84.1629 123.082 84.1973 123.043 84.2224L121.303 85.2803C121.228 85.3224 121.17 85.2803 121.17 85.2082C121.173 85.1611 121.187 85.1154 121.21 85.0748C121.233 85.0341 121.265 84.9995 121.303 84.9737Z" fill="#455A64"/>
<path d="M124.353 83.1526L128.656 80.5799C128.731 80.5318 128.789 80.5799 128.789 80.652C128.787 80.6986 128.774 80.7438 128.75 80.7836C128.727 80.8235 128.695 80.8567 128.656 80.8804L124.353 83.4591C124.278 83.5012 124.22 83.4591 124.22 83.387C124.222 83.3397 124.236 83.2937 124.259 83.2529C124.282 83.212 124.315 83.1776 124.353 83.1526Z" fill="#455A64"/>
<path d="M121.303 85.6105L123.043 84.5526C123.118 84.5045 123.176 84.5526 123.176 84.6247C123.173 84.671 123.159 84.7158 123.136 84.7555C123.113 84.7952 123.081 84.8286 123.043 84.8531L121.303 85.911C121.228 85.9591 121.17 85.911 121.17 85.8389C121.172 85.7924 121.186 85.7472 121.209 85.7073C121.232 85.6675 121.265 85.6342 121.303 85.6105Z" fill="#455A64"/>
<path d="M124.353 83.76L128.656 81.1873C128.731 81.1392 128.789 81.1873 128.789 81.2595C128.786 81.3065 128.772 81.3522 128.749 81.3929C128.726 81.4335 128.694 81.4681 128.656 81.4939L124.353 84.0665C124.278 84.1086 124.22 84.0665 124.22 83.9944C124.223 83.9473 124.237 83.9017 124.26 83.861C124.283 83.8204 124.315 83.7858 124.353 83.76Z" fill="#455A64"/>
<path d="M121.93 86.6682V88.5676L122.463 88.2551V86.3496L121.93 86.6682Z" fill="#455A64"/>
<path d="M123.518 85.713V87.6184L124.052 87.2998V85.4004L123.518 85.713Z" fill="#455A64"/>
<path d="M125.641 84.4455V86.351L126.174 86.0324V84.127L125.641 84.4455Z" fill="#455A64"/>
<path d="M127.496 83.3381V85.2376L128.03 84.919V83.0195L127.496 83.3381Z" fill="#455A64"/>
<path d="M122.724 86.1935V88.093L122.991 87.9367V86.0312L122.724 86.1935Z" fill="#455A64"/>
<path d="M126.435 83.9707V85.8762L126.702 85.7139V83.8145L126.435 83.9707Z" fill="#455A64"/>
<path d="M124.846 84.92V86.8254L125.113 86.6691V84.7637L124.846 84.92Z" fill="#455A64"/>
<path d="M123.257 85.875V87.7745L123.391 87.6963V85.7969L123.257 85.875Z" fill="#455A64"/>
<path d="M125.293 84.6563V86.5617L125.426 86.4776V84.5781L125.293 84.6563Z" fill="#455A64"/>
<path d="M124.452 85.1602V87.0656L124.58 86.9815V85.082L124.452 85.1602Z" fill="#455A64"/>
<path d="M127.102 83.5742V85.4797L127.23 85.4015V83.4961L127.102 83.5742Z" fill="#455A64"/>
<path d="M124.185 85.3164V87.2219L124.319 87.1437V85.2383L124.185 85.3164Z" fill="#455A64"/>
<path d="M126.835 83.7365V85.6359L126.969 85.5578V83.6523L126.835 83.7365Z" fill="#455A64"/>
<path opacity="0.3" d="M122.828 81.5601L127.131 78.9874C127.206 78.9454 127.264 78.9875 127.264 79.0596C127.261 79.1067 127.247 79.1523 127.224 79.193C127.201 79.2336 127.169 79.2682 127.131 79.294L122.828 81.8667C122.753 81.9088 122.695 81.8667 122.695 81.7945C122.698 81.7475 122.712 81.7018 122.735 81.6611C122.758 81.6205 122.79 81.5859 122.828 81.5601Z" fill="black"/>
<path d="M134.721 82.702C134.721 81.8124 135.133 81.1993 134.721 80.1053C134.31 79.0113 132.547 77.0999 131.706 75.4709C130.865 73.842 130.262 73.4212 129.671 74.1726C129.166 74.8157 130.396 77.9895 130.767 78.8971C130.112 78.5365 129.474 78.3862 128.952 78.7288C127.792 79.4982 129.59 81.2594 129.59 81.2594C129.59 81.2594 128.204 81.566 128.123 82.5638C128.041 83.5616 129.862 85.4009 129.862 85.4009L122.753 89.6566C123.968 90.003 125.21 90.2423 126.464 90.3719C127.099 90.4194 127.737 90.4194 128.372 90.3719C130.628 90.1495 131.515 89.7168 132.802 88.4124C133.699 87.3924 134.419 86.2189 134.93 84.9441C135.063 84.5788 135.114 84.1866 135.078 83.7979C135.042 83.4091 134.92 83.0342 134.721 82.702Z" fill="#FFA8A7"/>
<path d="M130.639 86.2116L129.851 85.4121L122.741 89.6678C123.959 90.0145 125.202 90.2538 126.458 90.3831L130.639 86.2116Z" fill="#F28F8F"/>
<path d="M124.046 64.8563C124.29 64.712 124.214 63.8885 123.814 63.6541C122.921 63.1191 120.051 62.7765 118.131 62.7825L119.772 61.8027C121.686 61.8027 124.556 62.1393 125.449 62.6743C125.849 62.9147 125.925 63.7382 125.681 63.8765L124.046 64.8563Z" fill="#455A64"/>
<path d="M124.046 64.8553C123.982 64.8914 123.913 64.8854 123.808 64.8132L123.959 64.7231C123.984 64.6519 123.996 64.5764 123.994 64.5007V64.4346C123.992 64.3188 123.966 64.2048 123.917 64.1009C123.868 63.9969 123.797 63.9056 123.71 63.8335C122.84 63.3165 119.993 62.9859 118.213 62.9859H118.149V62.7695C120.062 62.7695 122.933 63.1122 123.82 63.6411C124.214 63.8876 124.29 64.7171 124.046 64.8553Z" fill="#37474F"/>
<path opacity="0.35" d="M120.683 62.1077L120.567 62.1739L119.941 62.5225C119.84 62.5738 119.728 62.5986 119.616 62.5946H119.367H119.309C119.21 62.5946 119.204 62.5405 119.309 62.4924L119.958 62.1017C120.057 62.05 120.166 62.0213 120.277 62.0176H120.689C120.758 62.0236 120.764 62.0657 120.683 62.1077Z" fill="black"/>
<path opacity="0.35" d="M120.567 62.168L119.941 62.5166C119.84 62.5679 119.728 62.5927 119.616 62.5887H119.367L119.946 62.2521C120.045 62.1976 120.154 62.1687 120.265 62.168H120.567Z" fill="black"/>
<path d="M119.436 62.5408L119.506 62.4988C119.506 62.3966 119.193 62.3304 118.618 62.4146C118.163 62.4693 117.722 62.6142 117.32 62.8414C117.497 62.5661 117.741 62.3442 118.027 62.1982C118.555 61.8977 119.929 61.9397 120.016 62.1982C120.016 62.2283 120.051 62.2824 120.016 62.3184C119.981 62.3545 119.819 62.4567 119.714 62.5168C119.624 62.5458 119.529 62.554 119.436 62.5408Z" fill="#733DF5"/>
<path opacity="0.3" d="M119.436 62.5408L119.506 62.4988C119.506 62.3966 119.193 62.3304 118.618 62.4146C118.163 62.4693 117.722 62.6142 117.32 62.8414C117.497 62.5661 117.741 62.3442 118.027 62.1982C118.555 61.8977 119.929 61.9397 120.016 62.1982C120.016 62.2283 120.051 62.2824 120.016 62.3184C119.981 62.3545 119.819 62.4567 119.714 62.5168C119.624 62.5458 119.529 62.554 119.436 62.5408Z" fill="black"/>
<path d="M73.4175 36.8633C72.6753 36.9174 72.3679 37.0136 71.7649 38.2698C71.0748 39.7004 70.4775 41.0108 70.4775 41.0108C70.6322 43.1174 71.5277 45.0917 72.9942 46.5589C75.4876 49.1796 81.0196 50.9588 81.0196 50.9588C81.0196 50.9588 81.4777 48.308 81.8314 47.2201C82.6027 44.8157 83.7624 46.7272 83.7624 46.7272C83.6871 46.2049 83.4676 45.7164 83.1303 45.3206C82.6374 44.8638 79.4771 44.5813 76.9489 42.9163C75.3709 41.8056 74.1571 40.2224 73.4697 38.378L73.4175 36.8633Z" fill="#455A64"/>
<path d="M83.7624 46.7262C83.7253 46.3476 83.7655 45.9652 83.8804 45.6037C83.9953 45.2423 84.1823 44.91 84.4293 44.6284C85.1483 43.5404 85.1367 42.5426 85.1483 41.4366C85.1599 40.3306 85.1483 37.8301 85.1483 37.8301C86.0065 37.9443 86.6386 38.0946 87.1721 39.4771C87.7056 40.8596 88.6913 43.6847 88.2448 46.4377C87.7983 49.1907 86.6618 50.1104 86.6618 50.1104C86.6618 50.1104 86.0007 47.7841 85.589 46.7082C85.1773 45.6322 84.3829 45.3738 83.7624 46.7262Z" fill="#455A64"/>
<path d="M206.701 9.27206C206.701 9.13982 206.626 9.00157 206.602 8.89338C206.572 8.856 206.554 8.80977 206.55 8.76114C206.476 8.63497 206.389 8.51799 206.289 8.4125C206.204 8.28712 206.088 8.18754 205.953 8.12398L205.825 8.03983C204.95 7.50486 201.186 5.26279 200.722 4.9923C200.407 4.8413 200.059 4.78168 199.714 4.81978C199.369 4.85789 199.04 4.9923 198.763 5.20869L151.967 33.1895C151.155 33.7419 150.48 34.4846 149.997 35.3576C149.513 36.2306 149.234 37.2093 149.184 38.2146V144.325C149.143 144.686 149.198 145.051 149.343 145.382C149.488 145.712 149.718 145.996 150.007 146.2C150.5 146.489 154.727 149.032 155.226 149.326C155.278 149.326 155.307 149.38 155.359 149.38C155.448 149.43 155.544 149.464 155.643 149.482C155.845 149.537 156.056 149.537 156.258 149.482C156.596 149.438 156.922 149.322 157.215 149.14L203.97 121.129C204.783 120.585 205.461 119.849 205.946 118.98C206.431 118.112 206.709 117.136 206.759 116.134V9.98135C206.768 9.74335 206.748 9.50512 206.701 9.27206Z" fill="#733DF5"/>
<path opacity="0.15" d="M206.701 9.27206C206.701 9.13982 206.626 9.00157 206.602 8.89338C206.572 8.856 206.554 8.80977 206.55 8.76114C206.476 8.63497 206.389 8.51799 206.289 8.4125C206.204 8.28712 206.088 8.18754 205.953 8.12398L205.825 8.03983C204.95 7.50486 201.186 5.26279 200.722 4.9923C200.407 4.8413 200.059 4.78168 199.714 4.81978C199.369 4.85789 199.04 4.9923 198.763 5.20869L151.967 33.1895C151.155 33.7419 150.48 34.4846 149.997 35.3576C149.513 36.2306 149.234 37.2093 149.184 38.2146V144.325C149.143 144.686 149.198 145.051 149.343 145.382C149.488 145.712 149.718 145.996 150.007 146.2C150.5 146.489 154.727 149.032 155.226 149.326C155.278 149.326 155.307 149.38 155.359 149.38C155.448 149.43 155.544 149.464 155.643 149.482C155.845 149.537 156.056 149.537 156.258 149.482C156.596 149.438 156.922 149.322 157.215 149.14L203.97 121.129C204.783 120.585 205.461 119.849 205.946 118.98C206.431 118.112 206.709 117.136 206.759 116.134V9.98135C206.768 9.74335 206.748 9.50512 206.701 9.27206Z" fill="black"/>
<path d="M155.348 149.381C155.295 149.381 155.266 149.381 155.214 149.327C154.727 149.032 150.5 146.489 149.995 146.201C149.706 145.996 149.476 145.713 149.331 145.382C149.186 145.052 149.131 144.686 149.172 144.325V38.203C149.201 37.1911 149.484 36.2046 149.995 35.3418L155.214 38.4675C154.703 39.3303 154.419 40.3167 154.391 41.3287V147.451C154.42 148.443 154.779 149.11 155.348 149.381Z" fill="#733DF5"/>
<path opacity="0.3" d="M155.348 149.381C155.295 149.381 155.266 149.381 155.214 149.327C154.727 149.032 150.5 146.489 149.995 146.201C149.706 145.996 149.476 145.713 149.331 145.382C149.186 145.052 149.131 144.686 149.172 144.325V38.203C149.201 37.1911 149.484 36.2046 149.995 35.3418L155.214 38.4675C154.703 39.3303 154.419 40.3167 154.391 41.3287V147.451C154.42 148.443 154.779 149.11 155.348 149.381Z" fill="black"/>
<path d="M206.701 9.27175C206.701 9.13951 206.626 9.00125 206.602 8.89306C206.572 8.85568 206.554 8.80945 206.55 8.76082C206.476 8.63465 206.389 8.51767 206.289 8.41219C206.204 8.2868 206.088 8.18722 205.953 8.12366L205.825 8.03951C205.519 7.93802 205.194 7.9118 204.876 7.96291C204.558 8.01403 204.255 8.14108 203.993 8.33404L182.236 21.3356L170.378 28.4465L157.203 36.3208C156.395 36.877 155.722 37.6207 155.239 38.4929C154.756 39.3651 154.476 40.3419 154.42 41.3459V147.45C154.42 148.442 154.779 149.109 155.348 149.38C155.436 149.429 155.532 149.464 155.632 149.482C155.833 149.536 156.045 149.536 156.246 149.482C156.585 149.438 156.911 149.321 157.203 149.139L203.97 121.129C204.783 120.585 205.461 119.848 205.946 118.98C206.431 118.111 206.709 117.136 206.759 116.134V9.98103C206.768 9.74303 206.748 9.5048 206.701 9.27175Z" fill="#733DF5"/>
<path d="M162.839 42.7585L198.357 21.5039C198.994 21.1253 199.516 21.4318 199.516 22.1952V69.0802C199.494 69.4944 199.377 69.8972 199.175 70.2555C198.974 70.6139 198.693 70.9177 198.357 71.142L162.839 92.3605C162.202 92.7452 161.68 92.4326 161.68 91.6752V44.8503C161.7 44.4314 161.815 44.0233 162.017 43.6597C162.218 43.2961 162.5 42.9872 162.839 42.7585Z" fill="#FAFAFA"/>
<path d="M197.591 71.5692L192.007 74.9053L191.34 75.308C189.113 72.1042 187.153 69.1468 187.153 69.1468C186.552 67.4031 186.041 65.6273 185.623 63.8272C185.288 62.4572 185.042 61.0656 184.886 59.6616C186.305 59.2117 187.822 59.2117 189.241 59.6616C190.436 60.1245 191.688 61.3928 192.564 62.9195C193.439 64.4463 195.852 68.5758 197.591 71.5692Z" fill="#455A64"/>
<path d="M192.03 74.9052L191.363 75.308L184.909 79.161L183.924 79.7621L171.004 87.474L170.476 87.7866L170.418 85.4784L171.068 74.791C171.068 72.7293 172.1 64.5244 172.1 64.5244L174.999 63.3222L176.768 62.5889L177.348 62.3545L177.58 62.2583L182.474 60.2266C182.793 60.1124 183.1 60.0162 183.402 59.9321C183.5 59.896 183.61 59.878 183.703 59.8539C184.084 59.7546 184.472 59.6903 184.863 59.6616C188.499 59.3671 190.436 62.1982 191.334 66.7184C191.711 69.4321 191.943 72.1651 192.03 74.9052Z" fill="#37474F"/>
<path d="M184.909 79.1601L183.924 79.7611C184.248 74.9103 184.045 68.8033 182.926 65.6055C185.002 70.871 185.054 76.353 184.909 79.1601Z" fill="#263238"/>
<path d="M173.266 77.5911C173.266 77.5911 172.048 82.5021 171.004 87.4731L170.476 87.7856L163.164 92.1556C164.48 78.5709 165.35 71.3218 167.42 67.6912C168.545 65.7016 170.273 65.2027 172.1 64.5234C173.753 65.8038 174.437 71.9108 173.266 77.5911Z" fill="#455A64"/>
<path d="M175.556 40.8652C175.054 41.0584 174.593 41.3528 174.201 41.7314C173.809 42.11 173.493 42.5654 173.271 43.0712C172.738 44.4778 172.929 47.6035 173.642 50.9215C174.031 53.0304 174.632 55.0913 175.434 57.0706C175.555 57.3294 175.734 57.5544 175.956 57.727C176.178 57.8995 176.436 58.0145 176.71 58.0624L176.629 53.987L176.507 51.1619C176.507 51.1619 178.032 48.3789 178.2 46.3051C178.421 43.6242 177.957 42.6324 177.957 42.6324L175.556 40.8652Z" fill="#263238"/>
<path d="M175.162 41.4371L172.807 40.5835C173.144 39.6819 173.938 39.1409 174.588 39.3813C175.237 39.6218 175.498 40.5294 175.162 41.4371Z" fill="#263238"/>
<path d="M178.252 44.3331C178.252 48.5407 181.152 51.432 184.631 50.7768C188.11 50.1216 191.01 46.1664 191.01 41.9468C191.01 37.7271 188.11 34.8479 184.631 35.5031C181.152 36.1583 178.241 40.1134 178.252 44.3331Z" fill="#263238"/>
<path d="M176.594 50.6865C176.014 51.3898 175.556 49.9291 175.069 49.4182C174.582 48.9073 173.01 48.3723 172.233 50.5001C171.456 52.628 172.952 55.1285 174.13 55.5673C175.869 56.2105 176.629 53.9865 176.629 53.9865L176.814 63.1832C178.484 65.9121 182.254 63.2132 182.92 65.1126C183.031 63.6039 184.991 63.093 183.755 61.6263V58.8252C184.733 58.8289 185.706 58.7077 186.655 58.4646C188.226 57.8635 189.044 56.3127 189.514 54.1908C190.267 50.7887 190.575 45.2406 189.514 39.0854C187.774 37.7811 181.662 39.1636 177.98 42.6319C178.223 48.21 177.168 49.9832 176.594 50.6865Z" fill="#FFA8A7"/>
<path d="M190.366 34.4329C190.35 34.3831 190.32 34.3396 190.28 34.3084C190.239 34.2772 190.19 34.2598 190.14 34.2586C190.053 34.2862 189.976 34.3407 189.919 34.4149C189.489 34.9085 189.024 35.3686 188.528 35.7914C188.646 35.035 188.646 34.2636 188.528 33.5072C188.458 33.0564 188.348 32.0045 187.867 31.9805C187.583 31.9805 187.333 32.293 187.124 32.5816C185.205 35.0821 182.7 34.5411 180.392 35.052C178.461 35.4788 176.124 36.8553 175.254 39.2597C174.854 40.3597 174.785 41.4537 175.573 42.0247C176.288 42.456 177.107 42.6647 177.933 42.6258C181.778 42.722 187.298 43.6116 190.146 38.7968C190.555 38.0842 190.757 37.2636 190.725 36.4346C190.74 35.7523 190.609 35.0751 190.343 34.451L190.366 34.4329Z" fill="#263238"/>
<path d="M183.744 58.8268C183.744 58.8268 180.265 58.6345 179.012 58.0815C178.273 57.7447 177.671 57.1489 177.313 56.3984C177.491 57.1804 177.82 57.9166 178.281 58.5624C179.18 59.7645 183.75 59.9208 183.75 59.9208L183.744 58.8268Z" fill="#F28F8F"/>
<path d="M182.833 48.5345C182.843 48.7585 182.78 48.9794 182.653 49.1615C182.527 49.3437 182.345 49.4764 182.138 49.5383C181.749 49.6104 181.436 49.2738 181.43 48.7929C181.422 48.5691 181.487 48.349 181.614 48.168C181.741 47.987 181.924 47.8557 182.132 47.7951C182.514 47.741 182.833 48.0536 182.833 48.5345Z" fill="#263238"/>
<path d="M182.085 45.5058L180.584 46.7801C180.48 46.5248 180.458 46.2418 180.52 45.9725C180.583 45.7032 180.727 45.4618 180.931 45.2834C181.013 45.199 181.114 45.1365 181.224 45.1012C181.334 45.0659 181.451 45.0589 181.565 45.0808C181.678 45.1027 181.785 45.1528 181.876 45.2268C181.966 45.3008 182.038 45.3966 182.085 45.5058Z" fill="#263238"/>
<path d="M183.222 53.8066L185.188 54.3236C185.132 54.637 184.965 54.9172 184.718 55.1078C184.472 55.2984 184.165 55.3855 183.86 55.3514C183.58 55.2313 183.356 55.0024 183.237 54.7137C183.118 54.4251 183.113 54.0995 183.222 53.8066Z" fill="#F28F8F"/>
<path d="M188.8 44.9535L187.426 43.9437C187.47 43.8322 187.536 43.7315 187.62 43.648C187.704 43.5645 187.803 43.5 187.912 43.4587C188.022 43.4174 188.138 43.4002 188.254 43.4081C188.37 43.4161 188.483 43.449 188.586 43.5049C188.781 43.6812 188.909 43.9234 188.949 44.1885C188.988 44.4536 188.935 44.7246 188.8 44.9535Z" fill="#263238"/>
<path d="M188.383 47.2609C188.39 47.4853 188.325 47.7058 188.198 47.8876C188.071 48.0694 187.889 48.2021 187.681 48.2648C187.298 48.3309 186.98 48.0003 186.98 47.5194C186.972 47.2951 187.037 47.0746 187.164 46.8928C187.291 46.711 187.473 46.5783 187.681 46.5156C188.064 46.4435 188.383 46.7801 188.383 47.2609Z" fill="#263238"/>
<path d="M185.095 47.0801L185.338 52.0872L187.542 50.7768L185.095 47.0801Z" fill="#F28F8F"/>
<path d="M176.716 59.6074C176.258 59.6435 176.095 59.8539 175.736 60.8096C175.324 61.8856 174.965 62.8653 174.965 62.8653C175.028 64.1875 175.566 65.4373 176.472 66.3697C177.957 67.8664 181.256 68.3894 181.256 68.3894C181.256 68.3894 181.535 66.5079 181.743 65.7085C182.207 63.9713 182.903 65.1074 182.903 65.1074C182.866 64.7767 182.735 64.4649 182.526 64.2118C182.23 63.9593 180.346 64.1637 178.838 63.3462C177.861 62.7315 177.121 61.7837 176.745 60.6653L176.716 59.6074Z" fill="#455A64"/>
<path d="M182.92 65.1127C182.882 64.5695 183.024 64.0291 183.321 63.5799C183.654 62.8686 183.8 62.0785 183.744 61.2898C183.744 60.5264 183.744 58.8253 183.744 58.8253C184.254 58.7952 184.631 58.8253 184.95 59.7089C185.533 61.1848 185.754 62.7873 185.594 64.3734C185.524 65.3552 185.197 66.2988 184.648 67.1023C184.648 67.1023 184.254 65.5815 184.011 64.8903C183.767 64.199 183.292 64.1029 182.92 65.1127Z" fill="#455A64"/>
<path d="M154.42 56.5967L149.201 53.459L136.647 67.23C136.557 67.3281 136.49 67.4458 136.45 67.5745C136.41 67.7032 136.398 67.8395 136.416 67.9734C136.434 68.1073 136.481 68.2354 136.553 68.3481C136.625 68.4607 136.72 68.5552 136.832 68.6245C136.977 68.7147 141.628 71.4857 142.051 71.7622C142.211 71.8572 142.396 71.8972 142.579 71.8764L154.408 70.6742L154.42 56.5967Z" fill="#733DF5"/>
<path opacity="0.15" d="M154.42 56.5967L149.201 53.459L136.647 67.23C136.557 67.3281 136.49 67.4458 136.45 67.5745C136.41 67.7032 136.398 67.8395 136.416 67.9734C136.434 68.1073 136.481 68.2354 136.553 68.3481C136.625 68.4607 136.72 68.5552 136.832 68.6245C136.977 68.7147 141.628 71.4857 142.051 71.7622C142.211 71.8572 142.396 71.8972 142.579 71.8764L154.408 70.6742L154.42 56.5967Z" fill="black"/>
<path d="M154.42 56.5957L141.877 70.3667C141.755 70.4996 141.675 70.6682 141.648 70.8498C141.621 71.0314 141.649 71.2171 141.727 71.3818C141.806 71.5465 141.931 71.6822 142.087 71.7705C142.242 71.8588 142.42 71.8954 142.596 71.8754L154.426 70.6732L154.42 56.5957Z" fill="#733DF5"/>
<path d="M168.893 93.9482L192.303 79.9368C193.155 79.4319 193.839 79.8406 193.839 80.8625V81.4936C193.811 82.0473 193.657 82.5864 193.39 83.0669C193.123 83.5473 192.751 83.9557 192.303 84.2586L168.893 98.27C168.047 98.775 167.357 98.3662 167.357 97.3444V96.7132C167.385 96.1595 167.539 95.6205 167.806 95.14C168.073 94.6595 168.445 94.2512 168.893 93.9482Z" fill="#455A64"/>
<path d="M163.182 110.934L171.532 105.921C171.885 105.711 172.17 105.861 172.17 106.258C172.155 106.481 172.089 106.698 171.978 106.89C171.867 107.082 171.714 107.244 171.532 107.364L163.182 112.377C162.828 112.587 162.538 112.437 162.538 112.04C162.554 111.817 162.621 111.6 162.732 111.408C162.844 111.216 162.998 111.053 163.182 110.934Z" fill="#455A64"/>
<path d="M177.626 102.291L198.014 90.0892C198.368 89.8789 198.658 90.0291 198.658 90.4258C198.641 90.6494 198.574 90.8657 198.462 91.0577C198.351 91.2497 198.197 91.412 198.014 91.5319L177.626 103.728C177.272 103.944 176.988 103.794 176.988 103.391C177.003 103.169 177.069 102.953 177.18 102.762C177.291 102.571 177.444 102.409 177.626 102.291Z" fill="#455A64"/>
<path d="M163.182 113.813L171.532 108.806C171.885 108.59 172.17 108.74 172.17 109.143C172.154 109.366 172.088 109.582 171.977 109.774C171.866 109.966 171.714 110.128 171.532 110.249L163.182 115.256C162.828 115.472 162.538 115.322 162.538 114.919C162.555 114.696 162.622 114.479 162.734 114.287C162.845 114.095 162.999 113.933 163.182 113.813Z" fill="#455A64"/>
<path d="M177.626 105.17L198.014 92.9681C198.368 92.7578 198.658 92.908 198.658 93.3047C198.642 93.5286 198.576 93.7455 198.464 93.9377C198.352 94.1299 198.198 94.292 198.014 94.4108L177.626 106.613C177.272 106.823 176.988 106.673 176.988 106.276C177.003 106.053 177.069 105.836 177.18 105.644C177.291 105.452 177.444 105.29 177.626 105.17Z" fill="#455A64"/>
<path d="M163.182 116.698L171.532 111.685C171.885 111.475 172.17 111.625 172.17 112.022C172.155 112.245 172.089 112.461 171.978 112.654C171.867 112.846 171.714 113.008 171.532 113.128L163.182 118.141C162.828 118.351 162.538 118.201 162.538 117.804C162.554 117.58 162.621 117.364 162.732 117.171C162.844 116.979 162.998 116.817 163.182 116.698Z" fill="#455A64"/>
<path d="M177.626 108.056L198.014 95.8295C198.368 95.6191 198.658 95.7694 198.658 96.1661C198.641 96.3896 198.574 96.6059 198.462 96.7979C198.351 96.9899 198.197 97.1523 198.014 97.2721L177.626 109.468C177.272 109.685 176.988 109.534 176.988 109.132C177.007 108.913 177.074 108.702 177.185 108.516C177.296 108.329 177.447 108.171 177.626 108.056Z" fill="#455A64"/>
<path d="M163.182 119.585L171.532 114.572C171.885 114.361 172.17 114.512 172.17 114.908C172.154 115.131 172.088 115.348 171.977 115.54C171.866 115.732 171.714 115.894 171.532 116.014L163.182 121.021C162.828 121.238 162.538 121.087 162.538 120.685C162.554 120.462 162.621 120.246 162.733 120.055C162.845 119.864 162.999 119.703 163.182 119.585Z" fill="#455A64"/>
<path d="M177.626 110.934L198.014 98.7318C198.368 98.5214 198.658 98.6717 198.658 99.0684C198.642 99.2923 198.576 99.5092 198.464 99.7014C198.352 99.8936 198.198 100.056 198.014 100.174L177.626 112.377C177.272 112.587 176.988 112.437 176.988 112.04C177.003 111.817 177.069 111.6 177.18 111.408C177.291 111.216 177.444 111.053 177.626 110.934Z" fill="#455A64"/>
<path d="M166.151 124.712V133.734L168.661 132.231V123.209L166.151 124.712Z" fill="#455A64"/>
<path d="M173.689 120.198V129.226L176.2 127.718V118.695L173.689 120.198Z" fill="#455A64"/>
<path d="M183.744 114.18V123.209L186.255 121.7V112.678L183.744 114.18Z" fill="#455A64"/>
<path d="M192.535 108.921V117.943L195.046 116.44V107.418L192.535 108.921Z" fill="#455A64"/>
<path d="M169.92 122.456V131.479L171.178 130.727V121.705L169.92 122.456Z" fill="#455A64"/>
<path d="M187.507 111.927V120.95L188.766 120.198V111.176L187.507 111.927Z" fill="#455A64"/>
<path d="M179.969 116.441V125.463L181.227 124.712V115.689L179.969 116.441Z" fill="#455A64"/>
<path d="M172.431 120.955V129.977L173.057 129.599V120.576L172.431 120.955Z" fill="#455A64"/>
<path d="M182.085 115.178V124.2L182.712 123.821V114.799L182.085 115.178Z" fill="#455A64"/>
<path d="M178.084 117.57V126.592L178.716 126.214V117.191L178.084 117.57Z" fill="#455A64"/>
<path d="M190.65 110.051V119.073L191.276 118.694V109.672L190.65 110.051Z" fill="#455A64"/>
<path d="M176.832 118.316V127.333L177.458 126.96V117.938L176.832 118.316Z" fill="#455A64"/>
<path d="M189.392 110.802V119.831L190.024 119.452V110.43L189.392 110.802Z" fill="#455A64"/>
<path opacity="0.3" d="M170.407 99.9105L190.795 87.7084C191.149 87.498 191.433 87.6483 191.433 88.045C191.418 88.2683 191.352 88.4849 191.242 88.677C191.131 88.8692 190.978 89.0316 190.795 89.151L170.407 101.353C170.053 101.564 169.763 101.413 169.763 101.017C169.779 100.793 169.845 100.576 169.957 100.384C170.069 100.191 170.223 100.029 170.407 99.9105Z" fill="black"/>
</svg>
