<svg width="258" height="258" viewBox="0 0 258 258" fill="none" xmlns="http://www.w3.org/2000/svg">
<path d="M47.6061 224.723C93.4424 249.228 167.767 249.228 213.624 224.723C259.481 200.218 259.465 160.543 213.624 136.058C167.783 111.574 93.4631 111.574 47.6268 136.058C1.79049 160.543 1.76469 200.239 47.6061 224.723Z" fill="#5869E6"/>
<path d="M44.8558 180.647L43.5349 179.883C42.9696 179.515 42.4992 179.018 42.1621 178.433C41.825 177.849 41.6306 177.193 41.5947 176.519V60.7232C41.6306 60.0493 41.825 59.3934 42.1621 58.8088C42.4992 58.2242 42.9696 57.7274 43.5349 57.3589L96.9409 26.5227C97.543 26.2176 98.2086 26.0586 98.8836 26.0586C99.5587 26.0586 100.224 26.2176 100.826 26.5227L102.168 27.2864C102.733 27.6549 103.204 28.1517 103.541 28.7363C103.878 29.3209 104.072 29.9768 104.108 30.6507V146.446C104.072 147.12 103.878 147.776 103.541 148.361C103.204 148.945 102.733 149.442 102.168 149.811L48.7465 180.647C48.1434 180.952 47.477 181.111 46.8012 181.111C46.1253 181.111 45.4589 180.952 44.8558 180.647Z" fill="#37474F"/>
<path d="M49.407 62.9882L42.183 58.8086C41.8339 59.388 41.6385 60.0469 41.6154 60.723V176.519C41.6512 177.192 41.8456 177.848 42.1827 178.433C42.5198 179.018 42.9902 179.514 43.5555 179.883L44.8765 180.647C45.4795 180.952 46.1459 181.111 46.8218 181.111C47.4977 181.111 48.1641 180.952 48.7671 180.647L49.4276 180.265L49.407 62.9882Z" fill="#263238"/>
<path d="M46.8011 63.7316V179.527C46.8011 180.766 47.6732 181.266 48.7465 180.647L102.168 149.811C102.733 149.442 103.204 148.945 103.541 148.361C103.878 147.776 104.072 147.12 104.108 146.446V30.6509C104.108 29.4125 103.241 28.9119 102.168 29.5311L48.7465 60.3725C48.1823 60.7414 47.7124 61.2375 47.3746 61.8209C47.0368 62.4042 46.8404 63.0586 46.8011 63.7316Z" fill="#455A64"/>
<path d="M51.0839 71.0495L99.6447 43.0153C100.563 42.4993 101.311 42.9172 101.311 43.9802V136.344C101.28 136.923 101.112 137.486 100.823 137.988C100.533 138.49 100.13 138.917 99.6447 139.234L51.0839 167.278C50.1603 167.794 49.4172 167.376 49.4172 166.313V73.9495C49.4453 73.3686 49.6111 72.8027 49.9009 72.2985C50.1907 71.7943 50.5962 71.3662 51.0839 71.0495Z" fill="#FAFAFA"/>
<path d="M75.4495 47.9519C76.1668 47.5391 76.7498 47.8745 76.7498 48.7053C76.7258 49.1569 76.5955 49.5966 76.3696 49.9884C76.1436 50.3802 75.8284 50.7132 75.4495 50.9602C74.7271 51.3782 74.144 51.0376 74.144 50.212C74.1687 49.7592 74.2997 49.3185 74.5265 48.9259C74.7534 48.5332 75.0696 48.1995 75.4495 47.9519Z" fill="#263238"/>
<path d="M71.6879 54.4592C74.335 52.9989 79.0512 50.1867 81.6622 48.6542C82.1059 48.391 82.462 48.5716 82.462 49.0566C82.4416 49.3268 82.3581 49.5884 82.2183 49.8205C82.0785 50.0526 81.8863 50.2487 81.657 50.3931L71.6673 56.162C71.2235 56.42 70.8623 56.2342 70.8623 55.7543C70.8851 55.4878 70.9721 55.2308 71.1159 55.0053C71.2597 54.7797 71.4559 54.5923 71.6879 54.4592Z" fill="#263238"/>
<path d="M69.144 55.9186C69.5465 55.6813 69.8715 55.8722 69.8715 56.3366C69.8587 56.5905 69.7862 56.8378 69.6597 57.0584C69.5333 57.279 69.3566 57.4666 69.144 57.606C68.7415 57.8382 68.4113 57.6472 68.4113 57.1828C68.4258 56.9295 68.4997 56.683 68.627 56.4634C68.7543 56.2439 68.9314 56.0572 69.144 55.9186Z" fill="#263238"/>
<path d="M75.4494 156.21C76.8839 155.379 78.0294 156.05 78.0294 157.711C77.9833 158.613 77.7257 159.491 77.2775 160.274C76.8293 161.058 76.2031 161.725 75.4494 162.221C74.0098 163.052 72.8436 162.381 72.8436 160.72C72.8927 159.816 73.1542 158.937 73.607 158.153C74.0597 157.369 74.691 156.704 75.4494 156.21Z" fill="#263238"/>
<path d="M129.774 174.818C129.457 174.601 129.195 174.313 129.01 173.977C128.824 173.641 128.72 173.266 128.706 172.883V111.282C128.727 110.887 128.841 110.501 129.039 110.158C129.238 109.814 129.514 109.523 129.846 109.306L208.872 63.6815C209.202 63.4735 209.582 63.3596 209.972 63.352C210.362 63.3444 210.746 63.4433 211.084 63.6382C211.422 63.8331 211.7 64.1165 211.888 64.4578C212.077 64.7992 212.168 65.1855 212.153 65.5752V127.175C212.132 127.571 212.018 127.957 211.82 128.3C211.622 128.643 211.345 128.935 211.013 129.152L131.988 174.781C131.647 174.96 131.27 175.056 130.885 175.062C130.501 175.069 130.12 174.985 129.774 174.818Z" fill="#455A64"/>
<path d="M212.143 65.3825C212.061 64.7943 211.586 64.5775 211.013 64.9129L131.988 110.538C131.65 110.747 131.373 111.04 131.183 111.389L129.041 110.156C129.231 109.807 129.509 109.514 129.846 109.304L208.877 63.6745C209.192 63.4754 209.555 63.3626 209.928 63.3475C210.301 63.3323 210.671 63.4154 211.002 63.5883C211.332 63.7612 211.612 64.018 211.812 64.3328C212.013 64.6477 212.127 65.0097 212.143 65.3825Z" fill="#37474F"/>
<path d="M131.719 174.894C131.694 174.909 131.666 174.92 131.637 174.925C131.586 174.949 131.532 174.967 131.477 174.976H131.389C131.335 174.992 131.28 175.002 131.224 175.007H131.09C130.893 175.033 130.693 175.033 130.496 175.007C130.245 174.981 130.001 174.906 129.779 174.785C129.461 174.57 129.197 174.283 129.011 173.946C128.824 173.61 128.72 173.235 128.706 172.85V111.276C128.72 110.88 128.836 110.495 129.041 110.156L131.183 111.389C130.977 111.73 130.862 112.117 130.847 112.514V174.12C130.83 174.269 130.856 174.42 130.923 174.555C130.99 174.69 131.094 174.802 131.224 174.878C131.281 174.906 131.342 174.924 131.405 174.93C131.475 174.94 131.546 174.94 131.616 174.93L131.719 174.894Z" fill="#263238"/>
<path d="M137.256 128.572V138.288C137.256 139.016 137.772 139.32 138.396 138.948L151.09 131.616C151.422 131.399 151.698 131.107 151.896 130.764C152.094 130.421 152.209 130.036 152.23 129.64V119.929C152.23 119.201 151.714 118.897 151.09 119.268L138.396 126.601C138.064 126.816 137.788 127.107 137.59 127.449C137.391 127.792 137.277 128.176 137.256 128.572Z" fill="#733DF5"/>
<mask id="mask0_144_5763" style="mask-type:luminance" maskUnits="userSpaceOnUse" x="137" y="119" width="16" height="21">
<path d="M137.256 128.572V138.288C137.256 139.016 137.772 139.32 138.396 138.948L151.09 131.616C151.422 131.399 151.698 131.107 151.896 130.764C152.094 130.421 152.209 130.036 152.23 129.64V119.929C152.23 119.201 151.714 118.897 151.09 119.268L138.396 126.601C138.064 126.816 137.788 127.107 137.59 127.449C137.391 127.792 137.277 128.176 137.256 128.572Z" fill="white"/>
</mask>
<g mask="url(#mask0_144_5763)">
<path d="M154.246 120.829L134.995 131.953L135.253 132.4L154.504 121.276L154.246 120.829Z" fill="white"/>
<path d="M141.802 128.463H141.286V133.416H141.802V128.463Z" fill="white"/>
<path d="M148.221 124.779H147.705V129.723H148.221V124.779Z" fill="white"/>
<path d="M154.248 125.794L134.996 136.918L135.254 137.365L154.506 126.241L154.248 125.794Z" fill="white"/>
</g>
<path d="M137.772 120.709C137.715 120.678 137.689 120.596 137.689 120.462V115.069C137.686 114.949 137.715 114.83 137.772 114.724C137.836 114.616 137.929 114.528 138.04 114.471L140.342 113.139C140.914 112.809 141.348 112.711 141.637 112.851C141.926 112.99 142.07 113.33 142.07 113.883C142.067 114.179 142.006 114.472 141.89 114.744C141.779 115.025 141.616 115.283 141.41 115.503C141.926 115.4 142.215 115.699 142.215 116.406C142.21 116.76 142.14 117.109 142.008 117.438C141.862 117.817 141.649 118.166 141.379 118.47C141.083 118.804 140.734 119.088 140.347 119.311L138.046 120.637C137.927 120.745 137.834 120.745 137.772 120.709ZM140.12 115.776C140.321 115.666 140.489 115.506 140.61 115.312C140.724 115.124 140.783 114.907 140.78 114.687C140.78 114.44 140.729 114.295 140.62 114.249C140.512 114.202 140.347 114.249 140.104 114.378L138.969 115.038V116.432L140.12 115.776ZM140.249 118.279C140.456 118.163 140.628 117.994 140.748 117.789C140.868 117.583 140.931 117.35 140.93 117.113C140.93 116.855 140.863 116.695 140.734 116.643C140.639 116.62 140.54 116.619 140.444 116.64C140.349 116.66 140.259 116.702 140.182 116.762L138.985 117.458V119.006L140.249 118.279Z" fill="white"/>
<path d="M142.21 118.092C142.204 118.039 142.204 117.985 142.21 117.932L144.243 111.167C144.27 111.068 144.309 110.972 144.361 110.883C144.411 110.811 144.479 110.752 144.557 110.713L145.13 110.383C145.213 110.336 145.275 110.316 145.316 110.331C145.372 110.364 145.414 110.415 145.435 110.476L147.468 114.898C147.475 114.941 147.475 114.984 147.468 115.027C147.469 115.075 147.456 115.123 147.432 115.165C147.407 115.207 147.371 115.241 147.328 115.264L146.379 115.811C146.333 115.846 146.277 115.864 146.219 115.863C146.183 115.863 146.157 115.821 146.126 115.765L145.77 114.903L143.861 116.007L143.505 117.277C143.488 117.35 143.458 117.42 143.417 117.483C143.373 117.536 143.319 117.58 143.257 117.612L142.354 118.164C142.256 118.216 142.21 118.195 142.21 118.092ZM145.512 114.036L144.857 112.452L144.201 114.789L145.512 114.036Z" fill="white"/>
<path d="M148.252 114.659C148.195 114.628 148.169 114.545 148.169 114.416V109.029C148.166 108.91 148.194 108.793 148.252 108.689C148.319 108.578 148.415 108.489 148.531 108.431L149.016 108.152C149.076 108.111 149.145 108.084 149.217 108.075C149.273 108.083 149.324 108.11 149.361 108.152L151.56 110.464V107.084C151.556 106.962 151.584 106.841 151.642 106.733C151.708 106.627 151.8 106.539 151.91 106.48L152.499 106.14C152.633 106.062 152.721 106.042 152.777 106.078C152.834 106.114 152.855 106.196 152.855 106.336V111.707C152.858 111.826 152.832 111.943 152.777 112.048C152.709 112.156 152.613 112.243 152.499 112.301L151.983 112.59C151.925 112.629 151.857 112.652 151.787 112.657C151.731 112.65 151.68 112.625 151.642 112.585L149.439 110.283V113.668C149.442 113.785 149.415 113.9 149.361 114.004C149.293 114.113 149.197 114.202 149.083 114.262L148.495 114.597C148.396 114.674 148.304 114.69 148.252 114.659Z" fill="white"/>
<path d="M158.071 108.933C158.072 108.982 158.06 109.03 158.035 109.072C158.011 109.114 157.975 109.148 157.932 109.171L156.952 109.733C156.907 109.761 156.858 109.782 156.807 109.795C156.772 109.8 156.737 109.79 156.709 109.769L154.975 108.139V110.523C154.979 110.641 154.952 110.758 154.898 110.863C154.828 110.97 154.732 111.057 154.619 111.116L154.031 111.457C153.907 111.529 153.82 111.55 153.763 111.519C153.706 111.488 153.68 111.4 153.68 111.271V105.874C153.676 105.753 153.705 105.634 153.763 105.528C153.828 105.42 153.921 105.331 154.031 105.27L154.619 104.929C154.754 104.857 154.841 104.836 154.898 104.867C154.955 104.898 154.975 104.986 154.975 105.125V107.463V107.416L156.652 103.861C156.676 103.806 156.709 103.755 156.751 103.712C156.8 103.667 156.853 103.627 156.91 103.593L157.875 103.036C157.973 102.984 158.02 103.01 158.02 103.113C158.017 103.172 158.001 103.23 157.973 103.283L156.111 107.122L158.025 108.815C158.042 108.829 158.055 108.848 158.063 108.868C158.071 108.889 158.074 108.911 158.071 108.933Z" fill="white"/>
<path d="M162.153 106.039C161.637 105.776 161.4 105.126 161.4 104.084C161.387 103.096 161.64 102.123 162.132 101.266C162.643 100.417 163.367 99.7159 164.233 99.2332C164.557 99.0366 164.903 98.879 165.265 98.7636C165.518 98.6756 165.788 98.6491 166.054 98.6862C166.066 98.6875 166.077 98.691 166.087 98.6967C166.097 98.7023 166.106 98.7099 166.113 98.719C166.12 98.7282 166.126 98.7386 166.129 98.7498C166.132 98.761 166.133 98.7727 166.131 98.7842C166.127 98.8468 166.111 98.908 166.085 98.9648L165.806 99.6769C165.787 99.74 165.749 99.7958 165.698 99.8369C165.657 99.8584 165.61 99.8674 165.564 99.8627C165.143 99.8616 164.732 99.9855 164.382 100.219C163.855 100.518 163.42 100.955 163.123 101.483C162.819 102.054 162.666 102.694 162.679 103.341C162.679 104.053 162.834 104.502 163.144 104.677C163.355 104.757 163.584 104.781 163.808 104.746C164.031 104.71 164.242 104.617 164.418 104.476C164.893 104.212 165.315 103.862 165.662 103.444C165.7 103.392 165.745 103.347 165.796 103.31C165.832 103.31 165.868 103.31 165.904 103.346L166.209 103.779C166.227 103.805 166.238 103.835 166.24 103.867C166.225 103.937 166.193 104.003 166.147 104.058C165.638 104.721 164.992 105.266 164.253 105.657C163.355 106.173 162.648 106.297 162.153 106.039Z" fill="white"/>
<path d="M166.534 104.048C166.53 103.996 166.53 103.944 166.534 103.893L168.598 97.1228C168.62 97.0219 168.66 96.9258 168.717 96.839C168.768 96.7711 168.833 96.7149 168.908 96.6739L169.48 96.3385C169.535 96.2984 169.604 96.2817 169.671 96.292C169.728 96.3228 169.771 96.3747 169.79 96.4365L171.823 100.853C171.83 100.898 171.83 100.943 171.823 100.988C171.825 101.036 171.813 101.083 171.788 101.124C171.763 101.166 171.727 101.199 171.684 101.22L170.734 101.772C170.687 101.805 170.631 101.823 170.574 101.824C170.553 101.815 170.533 101.802 170.517 101.785C170.501 101.768 170.489 101.748 170.481 101.726L170.12 100.864L168.216 101.963L167.865 103.237C167.846 103.308 167.816 103.376 167.777 103.439C167.732 103.494 167.676 103.54 167.612 103.573L166.668 104.12C166.58 104.177 166.534 104.151 166.534 104.048ZM169.836 99.9918L169.186 98.4128L168.526 100.75L169.836 99.9918Z" fill="white"/>
<path d="M172.571 100.62C172.52 100.589 172.489 100.507 172.489 100.373V94.9958C172.488 94.8756 172.516 94.757 172.571 94.6501C172.639 94.5435 172.733 94.4564 172.845 94.3973L174.831 93.2518C176.156 92.4812 176.82 92.7667 176.823 94.1083C176.826 94.5294 176.745 94.9468 176.586 95.3364C176.423 95.7395 176.187 96.1088 175.889 96.4251L176.715 98.0351C176.723 98.0725 176.723 98.1112 176.715 98.1486C176.715 98.2029 176.699 98.2561 176.67 98.3018C176.641 98.3475 176.599 98.3839 176.549 98.4066L175.683 98.9226C175.634 98.958 175.577 98.981 175.517 98.9897C175.476 98.9897 175.445 98.9587 175.419 98.902L174.697 97.354L173.763 97.87V99.645C173.771 99.7678 173.742 99.8902 173.68 99.9961C173.617 100.102 173.524 100.187 173.412 100.238L172.824 100.579C172.721 100.62 172.628 100.651 172.571 100.62ZM174.635 96.2755C174.904 96.1318 175.135 95.9246 175.306 95.6718C175.46 95.428 175.538 95.1446 175.533 94.8565C175.533 94.5418 175.461 94.3405 175.327 94.2838C175.192 94.227 174.986 94.2837 174.713 94.4179L173.784 94.9442V96.7554L174.635 96.2755Z" fill="white"/>
<path d="M177.55 97.7458C177.494 97.7149 177.468 97.6323 177.468 97.4982V92.1266C177.464 92.006 177.492 91.8866 177.55 91.7809C177.614 91.6716 177.707 91.5823 177.819 91.5229L179.47 90.5734C180.364 90.054 181.044 89.9078 181.508 90.1348C181.973 90.3619 182.205 91.0069 182.205 92.0698C182.231 93.0307 181.988 93.9797 181.503 94.8098C180.998 95.6125 180.299 96.2745 179.47 96.7345L177.819 97.6839C177.695 97.7562 177.602 97.7768 177.55 97.7458ZM179.532 95.5993C179.966 95.359 180.324 95.0014 180.564 94.5673C180.819 94.0244 180.937 93.4275 180.91 92.8284C180.91 92.106 180.796 91.6622 180.564 91.4971C180.332 91.332 179.986 91.3887 179.532 91.657L178.763 92.1008V96.0585L179.532 95.5993Z" fill="white"/>
<path d="M137.256 147.106V149.413C137.256 150.14 137.772 150.445 138.396 150.073L151.09 142.741C151.42 142.523 151.694 142.23 151.89 141.887C152.086 141.544 152.199 141.159 152.22 140.765V138.458C152.22 137.73 151.704 137.426 151.08 137.798L138.386 145.13C138.056 145.347 137.781 145.64 137.585 145.983C137.389 146.326 137.276 146.711 137.256 147.106Z" fill="#EBEBEB"/>
<path d="M155.094 136.813V139.12C155.094 139.847 155.61 140.152 156.234 139.775L168.933 132.448C169.265 132.231 169.541 131.939 169.739 131.596C169.937 131.252 170.052 130.867 170.074 130.472V128.165C170.074 127.437 169.558 127.133 168.933 127.505L156.234 134.837C155.902 135.053 155.626 135.345 155.428 135.688C155.229 136.032 155.115 136.417 155.094 136.813Z" fill="#EBEBEB"/>
<path d="M172.927 126.513V128.819C172.927 129.547 173.443 129.851 174.067 129.48L186.761 122.147C187.093 121.932 187.37 121.641 187.568 121.299C187.766 120.956 187.88 120.571 187.901 120.176V117.864C187.901 117.137 187.385 116.832 186.761 117.209L174.067 124.536C173.736 124.753 173.46 125.045 173.262 125.388C173.064 125.732 172.949 126.117 172.927 126.513Z" fill="#EBEBEB"/>
<path d="M190.755 116.219V118.526C190.755 119.254 191.271 119.558 191.895 119.186L204.594 111.854C204.926 111.638 205.203 111.346 205.401 111.003C205.599 110.659 205.713 110.274 205.734 109.878V107.571C205.734 106.844 205.218 106.539 204.594 106.911L191.895 114.243C191.564 114.46 191.288 114.752 191.089 115.095C190.891 115.439 190.777 115.824 190.755 116.219Z" fill="#EBEBEB"/>
<path d="M198.629 119.005L195.719 120.687C195.52 120.817 195.355 120.991 195.237 121.196C195.119 121.402 195.05 121.632 195.038 121.869V122.761C195.038 123.195 195.342 123.376 195.719 123.154L198.629 121.477C198.829 121.347 198.996 121.172 199.115 120.966C199.234 120.759 199.303 120.528 199.315 120.29V119.397C199.315 118.964 199.011 118.788 198.629 119.005Z" fill="#733DF5"/>
<path d="M205.048 115.301L202.138 116.978C201.939 117.108 201.774 117.284 201.656 117.49C201.538 117.696 201.469 117.927 201.457 118.165V119.057C201.457 119.491 201.761 119.666 202.138 119.449L205.048 117.767C205.248 117.639 205.414 117.465 205.533 117.259C205.653 117.054 205.722 116.823 205.734 116.586V115.693C205.734 115.26 205.43 115.069 205.048 115.301Z" fill="#733DF5"/>
<path d="M168.304 142.689L204.537 121.776C205.167 121.409 205.678 121.709 205.678 122.436V123.504C205.657 123.9 205.542 124.286 205.344 124.629C205.146 124.972 204.87 125.264 204.537 125.481L168.304 146.399C167.674 146.766 167.163 146.471 167.163 145.744V144.671C167.185 144.274 167.299 143.888 167.497 143.544C167.695 143.199 167.971 142.907 168.304 142.689Z" fill="#733DF5"/>
<path d="M91.4919 56.7603V109.815C91.5132 110.203 91.6252 110.58 91.8188 110.916C92.0124 111.252 92.2822 111.538 92.6065 111.75L94.5673 112.88C94.9136 113.056 95.2963 113.147 95.6844 113.147C96.0726 113.147 96.4553 113.056 96.8016 112.88L130.197 93.6027C130.522 93.3906 130.793 93.1049 130.988 92.7688C131.182 92.4326 131.295 92.0555 131.317 91.6677V38.6229C131.296 38.235 131.183 37.8575 130.989 37.5213C130.794 37.185 130.523 36.8995 130.197 36.6879L128.241 35.5579C127.895 35.3824 127.512 35.291 127.124 35.291C126.736 35.291 126.353 35.3824 126.007 35.5579L92.6065 54.8408C92.2842 55.052 92.0156 55.3355 91.8222 55.6687C91.6287 56.002 91.5156 56.3757 91.4919 56.7603Z" fill="#EBEBEB"/>
<path d="M131.306 38.4423C131.229 37.8644 130.76 37.6528 130.197 37.9779L96.8016 57.2763C96.47 57.483 96.1966 57.7707 96.0069 58.1122L91.817 55.6922C92.0077 55.3531 92.2788 55.066 92.6065 54.8563L126.007 35.5579C126.353 35.3824 126.736 35.291 127.124 35.291C127.512 35.291 127.895 35.3824 128.241 35.5579L130.197 36.6879C130.497 36.8835 130.752 37.1414 130.943 37.4441C131.135 37.7469 131.259 38.0874 131.306 38.4423Z" fill="#F5F5F5"/>
<path d="M96.6055 112.967C96.5834 112.971 96.5606 112.971 96.5384 112.967C96.4958 112.988 96.4507 113.004 96.4043 113.014L96.1772 113.07C95.7267 113.154 95.2618 113.117 94.8305 112.962C94.7452 112.93 94.6624 112.892 94.5828 112.848L92.622 111.718C92.2977 111.506 92.0279 111.22 91.8343 110.884C91.6407 110.548 91.5287 110.171 91.5074 109.783V56.7592C91.5207 56.3712 91.6326 55.993 91.8325 55.6602L96.0224 58.0802C95.8225 58.413 95.7106 58.7913 95.6974 59.1793V112.234C95.686 112.444 95.746 112.651 95.8676 112.823C95.9388 112.908 96.0329 112.972 96.139 113.006C96.2451 113.039 96.3586 113.042 96.4662 113.014L96.6055 112.967Z" fill="#E0E0E0"/>
<path d="M118.536 77.8223C119.996 78.7975 121.869 78.8543 123.768 78.4982" stroke="#455A64" stroke-width="1.25" stroke-miterlimit="10" stroke-linecap="round"/>
<path d="M113.752 67.596C115.3 67.1471 116.234 67.9108 116.399 70.0986C116.601 72.7921 116.539 75.3257 117.921 76.8788" stroke="#455A64" stroke-width="1.25" stroke-miterlimit="10" stroke-linecap="round"/>
<path d="M111.208 82.0453C110.042 79.197 109.444 70.4043 112.756 68.1133" stroke="#455A64" stroke-width="1.25" stroke-miterlimit="10" stroke-linecap="round"/>
<path d="M121.203 87.4628C117.4 87.9117 113.814 86.7713 111.786 83.2109" stroke="#455A64" stroke-width="1.25" stroke-miterlimit="10" stroke-linecap="round"/>
<path d="M121.957 85.3826C115.837 86.0483 111.477 82.9368 112.194 72.5136C112.266 71.5332 112.808 70.4083 113.536 69.9852H113.561C114.304 69.5776 115.058 70.0574 115.042 71.0482C114.934 78.5044 117.349 81.9667 123.463 80.8831" stroke="#455A64" stroke-width="1.25" stroke-miterlimit="10" stroke-linecap="round"/>
<path d="M119.779 89.9486C112.127 90.4646 108.03 85.382 108.634 74.6647C108.835 71.1249 110.182 67.2033 112.834 65.6708C112.87 65.6454 112.908 65.623 112.947 65.6037C115.641 64.1228 117.741 65.676 118.02 69.3086C118.288 72.7968 118.386 76.9145 124.15 75.9392" stroke="#455A64" stroke-width="1.25" stroke-miterlimit="10" stroke-linecap="round"/>
<path d="M114.552 91.8906C115.712 92.3056 116.932 92.527 118.164 92.5459" stroke="#455A64" stroke-width="1.25" stroke-miterlimit="10" stroke-linecap="round"/>
<path d="M108.633 87.2051C109.621 89.1443 111.268 90.6682 113.277 91.5034" stroke="#455A64" stroke-width="1.25" stroke-miterlimit="10" stroke-linecap="round"/>
<path d="M109.093 67.457C105.79 73.551 106.631 81.7244 107.999 85.6667" stroke="#455A64" stroke-width="1.25" stroke-miterlimit="10" stroke-linecap="round"/>
<path d="M119.712 68.8966C119.402 65.5891 118.561 63.329 116.162 62.7975C114.248 62.3796 111.797 63.5922 109.851 66.265" stroke="#455A64" stroke-width="1.25" stroke-miterlimit="10" stroke-linecap="round"/>
<path d="M124.392 73.6496C122.421 74.341 120.326 73.9127 119.96 70.9199" stroke="#455A64" stroke-width="1.25" stroke-miterlimit="10" stroke-linecap="round"/>
<path d="M124.531 71.374C122.467 71.4308 121.513 70.5123 121.012 66.8126C120.243 61.1366 117.307 58.7062 112.756 61.3378C107.978 64.0932 105.109 70.9199 104.892 76.565C104.474 87.1894 107.808 91.4154 113.045 93.5568C114.214 94.0234 115.439 94.3373 116.688 94.4908" stroke="#455A64" stroke-width="1.25" stroke-miterlimit="10" stroke-linecap="round"/>
<path d="M121.941 63.6133C122.349 65.8476 122.566 68.9642 124.588 68.8971" stroke="#455A64" stroke-width="1.25" stroke-miterlimit="10" stroke-linecap="round"/>
<path d="M117.473 57.9355C119.428 58.3019 120.894 59.9273 121.637 62.3215" stroke="#455A64" stroke-width="1.25" stroke-miterlimit="10" stroke-linecap="round"/>
<path d="M109.862 61.2502C111.926 59.114 114.356 57.953 116.399 57.8652" stroke="#455A64" stroke-width="1.25" stroke-miterlimit="10" stroke-linecap="round"/>
<path d="M103.922 71.4297C104.799 68.0824 106.408 64.9717 108.633 62.3223" stroke="#455A64" stroke-width="1.25" stroke-miterlimit="10" stroke-linecap="round"/>
<path d="M103.159 82.0443C102.8 79.014 102.903 75.9469 103.463 72.9473" stroke="#455A64" stroke-width="1.25" stroke-miterlimit="10" stroke-linecap="round"/>
<path d="M105.78 90.764C104.58 88.6175 103.766 86.2773 103.375 83.8496" stroke="#455A64" stroke-width="1.25" stroke-miterlimit="10" stroke-linecap="round"/>
<path d="M113.639 96.7667C111.213 95.776 108.51 94.3312 106.791 92.0195" stroke="#455A64" stroke-width="1.25" stroke-miterlimit="10" stroke-linecap="round"/>
<path d="M110.94 98.313C103.67 95.3408 101.136 87.5028 101.136 78.7824C101.136 70.062 105.264 60.6708 112.741 56.5686C117.813 53.7925 124.578 56.8008 124.578 65.5212" stroke="#455A64" stroke-width="1.25" stroke-miterlimit="10" stroke-linecap="round"/>
<path d="M120.228 83.2509C121.141 83.2964 122.056 83.2602 122.963 83.1426" stroke="#455A64" stroke-width="1.25" stroke-miterlimit="10" stroke-linecap="round"/>
<path d="M115.233 80.4961C115.602 81.1883 116.123 81.7874 116.758 82.2479C117.393 82.7084 118.124 83.0181 118.897 83.1535" stroke="#455A64" stroke-width="1.25" stroke-miterlimit="10" stroke-linecap="round"/>
<path d="M113.69 71.6719C113.443 74.6647 113.819 77.415 114.671 79.3706" stroke="#455A64" stroke-width="1.25" stroke-miterlimit="10" stroke-linecap="round"/>
<path d="M115.94 52.7885C118.009 52.368 120.16 52.7657 121.941 53.8979" stroke="#455A64" stroke-width="1.25" stroke-miterlimit="10" stroke-linecap="round"/>
<path d="M106.812 58.3095C108.861 56.0693 111.406 54.3393 114.242 53.2578" stroke="#455A64" stroke-width="1.25" stroke-miterlimit="10" stroke-linecap="round"/>
<path d="M104.268 96.9258C105.017 97.8598 105.959 98.6218 107.029 99.1601" stroke="#455A64" stroke-width="1.25" stroke-miterlimit="10" stroke-linecap="round"/>
<path d="M100.868 91.1777C101.445 92.7782 102.28 94.2737 103.339 95.605" stroke="#455A64" stroke-width="1.25" stroke-miterlimit="10" stroke-linecap="round"/>
<path d="M19.8352 121.488C19.854 121.144 19.9529 120.81 20.124 120.511C20.2951 120.213 20.5338 119.959 20.8208 119.769L71.4662 90.5328C71.7734 90.3777 72.1127 90.2969 72.4569 90.2969C72.801 90.2969 73.1404 90.3777 73.4476 90.5328L74.5622 91.1778C74.8503 91.3654 75.0902 91.6183 75.2623 91.9159C75.4344 92.2136 75.534 92.5476 75.5529 92.8909V131.71C75.534 132.054 75.4344 132.388 75.2623 132.687C75.0903 132.985 74.8504 133.239 74.5622 133.428L23.9168 162.664C23.6105 162.82 23.272 162.9 22.9286 162.9C22.5853 162.9 22.2468 162.82 21.9405 162.664L20.8259 162.025C20.5378 161.837 20.2979 161.584 20.1258 161.286C19.9537 160.989 19.8541 160.655 19.8352 160.311V121.488Z" fill="#733DF5"/>
<path opacity="0.4" d="M20.1239 120.512L22.9309 122.133L75.2637 91.9156C75.095 91.6149 74.8538 91.3612 74.5619 91.1777L73.4422 90.5327C73.1359 90.3777 72.7974 90.2969 72.454 90.2969C72.1107 90.2969 71.7722 90.3777 71.4659 90.5327L20.8257 119.769C20.5311 119.952 20.2892 120.208 20.1239 120.512Z" fill="white"/>
<path opacity="0.1" d="M19.8298 121.487V160.306C19.8489 160.65 19.9491 160.985 20.1221 161.284C20.2952 161.583 20.5362 161.836 20.8257 162.024L21.9403 162.669C22.0262 162.717 22.116 162.759 22.2086 162.793C22.5935 162.918 23.0047 162.94 23.4006 162.855C23.4656 162.843 23.5294 162.826 23.5915 162.803C23.6329 162.793 23.6729 162.777 23.7102 162.757C23.6352 162.789 23.5544 162.806 23.4728 162.806C23.3912 162.806 23.3104 162.789 23.2354 162.757C23.1296 162.686 23.0453 162.587 22.9916 162.472C22.9379 162.356 22.917 162.228 22.931 162.101V123.272C22.9205 123.096 22.9644 122.921 23.0567 122.771C23.149 122.62 23.2852 122.502 23.447 122.431L22.931 122.132L20.124 120.512C19.9439 120.806 19.8426 121.142 19.8298 121.487Z" fill="black"/>
<path opacity="0.2" d="M22.931 122.132L46.3832 130.904C47.1946 131.207 48.0852 131.225 48.9079 130.954C49.7306 130.682 50.4363 130.139 50.9085 129.413L54.6959 123.634L75.4701 91.8066L55.4287 123.84L75.5527 131.719C75.5333 132.068 75.4269 132.407 75.2431 132.705L55.3719 123.933L50.9911 130.935C50.5055 131.712 49.7562 132.288 48.8805 132.557C48.0047 132.826 47.0613 132.77 46.2232 132.4L43.1272 131.023L23.2199 162.746C23.1141 162.675 23.0298 162.577 22.9761 162.461C22.9224 162.346 22.9015 162.218 22.9155 162.091V161.446L42.9931 131.002L22.931 122.132Z" fill="black"/>
<path d="M201.87 14.4503C201.883 14.3163 201.862 14.1812 201.809 14.0575C201.755 13.9339 201.672 13.8258 201.565 13.7434H201.539L199.475 12.5411C199.35 12.4826 199.21 12.4589 199.073 12.4725C198.935 12.4861 198.803 12.5365 198.691 12.6185L166.668 31.0242L165.806 28.1501C165.738 27.8913 165.571 27.6692 165.342 27.5309L163.257 26.3183C163.1 26.2268 162.92 26.1807 162.738 26.1853C162.555 26.1898 162.378 26.2448 162.225 26.3441L148.489 34.2802C148.165 34.4929 147.895 34.7788 147.702 35.1149C147.508 35.451 147.396 35.8279 147.375 36.2152V82.0463C147.363 82.1801 147.385 82.3148 147.438 82.4382C147.491 82.5616 147.574 82.6699 147.679 82.7532H147.705L149.769 83.9555H149.795C149.92 84.0045 150.055 84.0217 150.188 84.0055C150.322 83.9893 150.449 83.9402 150.558 83.8626L200.724 54.8995C201.048 54.6868 201.318 54.4009 201.512 54.0648C201.705 53.7287 201.817 53.3518 201.839 52.9645L201.87 14.4503Z" fill="#733DF5"/>
<path opacity="0.4" d="M165.326 27.513C165.17 27.4321 164.995 27.3938 164.82 27.4019C164.644 27.4101 164.473 27.4644 164.325 27.5594L150.584 35.4903C150.257 35.7001 149.985 35.9871 149.795 36.3263L147.7 35.1137C147.886 34.7712 148.158 34.4831 148.489 34.2777L162.23 26.3468C162.384 26.2486 162.561 26.1943 162.743 26.1898C162.925 26.1852 163.104 26.2306 163.262 26.321L165.326 27.513Z" fill="white"/>
<path opacity="0.4" d="M201.483 13.6797C201.36 13.6403 201.231 13.6295 201.104 13.6483C200.976 13.6671 200.855 13.7149 200.75 13.7881L168.417 32.4415C168.286 32.529 168.135 32.5833 167.978 32.5998C167.821 32.6163 167.663 32.5944 167.516 32.536C167.369 32.4776 167.239 32.3845 167.136 32.2647C167.033 32.1449 166.961 32.0019 166.926 31.8481L166.678 31.0225L198.67 12.5755C198.825 12.479 199.004 12.4272 199.186 12.4258C199.287 12.4245 199.387 12.4494 199.475 12.4981L201.483 13.6797Z" fill="white"/>
<path opacity="0.1" d="M149.64 83.8153C149.671 83.8596 149.707 83.8995 149.748 83.934L147.721 82.7678C147.64 82.7121 147.575 82.6377 147.53 82.5511C147.507 82.5104 147.49 82.4671 147.478 82.4221C147.439 82.3058 147.42 82.1837 147.421 82.0609V36.2143C147.419 36.1696 147.419 36.1248 147.421 36.0802C147.432 35.9865 147.447 35.8935 147.468 35.8015C147.468 35.7551 147.493 35.7086 147.504 35.6622C147.551 35.5208 147.608 35.3828 147.674 35.2494C147.695 35.2031 147.719 35.1582 147.746 35.1152L149.841 36.3278C149.641 36.6604 149.529 37.0388 149.516 37.4269V83.2529C149.511 83.3181 149.511 83.3837 149.516 83.449C149.514 83.485 149.514 83.5212 149.516 83.5573V83.6141L149.547 83.6863C149.57 83.7344 149.602 83.778 149.64 83.8153Z" fill="black"/>
<path d="M115.935 158.792C115.908 158.313 115.77 157.846 115.529 157.43C115.289 157.014 114.954 156.661 114.552 156.398L113.427 155.748C112.998 155.533 112.524 155.422 112.044 155.422C111.564 155.422 111.091 155.533 110.661 155.748L73.2978 177.306C72.8956 177.569 72.5608 177.922 72.3205 178.338C72.0803 178.754 71.9413 179.221 71.9149 179.701V184.102C71.9413 184.582 72.0803 185.048 72.3205 185.464C72.5608 185.88 72.8956 186.234 73.2978 186.496L74.4278 187.146C74.8558 187.363 75.3286 187.475 75.8081 187.475C76.2877 187.475 76.7605 187.363 77.1884 187.146L114.552 165.588C114.955 165.326 115.29 164.973 115.53 164.557C115.771 164.141 115.909 163.674 115.935 163.194V158.792Z" fill="#37474F"/>
<path d="M71.9149 184.102C71.9405 184.581 72.0791 185.048 72.3194 185.464C72.5597 185.881 72.895 186.234 73.2978 186.496L74.4278 187.146C74.8179 187.341 75.2447 187.452 75.6805 187.47C76.1162 187.489 76.5509 187.415 76.9562 187.254C76.3009 187.502 75.8056 187.136 75.8056 186.346V181.95C75.8216 181.467 75.962 180.996 76.2132 180.582L72.3226 178.338C72.072 178.749 71.9316 179.219 71.9149 179.7V184.102Z" fill="#263238"/>
<path d="M115.888 158.41C115.728 157.822 115.192 157.636 114.552 158.002L77.1884 179.566C76.7781 179.818 76.4417 180.174 76.2131 180.598L72.3276 178.353C72.5557 177.931 72.8901 177.575 73.2977 177.321L110.656 155.758C111.086 155.543 111.559 155.432 112.039 155.432C112.519 155.432 112.992 155.543 113.422 155.758L114.552 156.413C114.899 156.638 115.196 156.931 115.425 157.274C115.655 157.617 115.813 158.004 115.888 158.41Z" fill="#455A64"/>
<path d="M80.5631 180.083C81.2906 179.665 81.8789 180.006 81.8789 180.841C81.8543 181.298 81.7223 181.741 81.4936 182.137C81.265 182.532 80.9461 182.868 80.5631 183.117C79.8407 183.535 79.2524 183.194 79.2524 182.359C79.2773 181.903 79.4088 181.46 79.6365 181.065C79.8642 180.669 80.1816 180.333 80.5631 180.083Z" fill="#E6E6E6"/>
<path d="M84.9078 177.591C85.6302 177.173 86.2184 177.513 86.2184 178.349C86.194 178.805 86.0626 179.248 85.8349 179.644C85.6072 180.039 85.2896 180.375 84.9078 180.625C84.1803 181.043 83.5972 180.702 83.5972 179.866C83.6216 179.411 83.753 178.967 83.9807 178.572C84.2084 178.177 84.526 177.841 84.9078 177.591Z" fill="#E6E6E6"/>
<path d="M89.2679 175.088C89.9955 174.67 90.5837 175.005 90.5837 175.846C90.5587 176.302 90.4265 176.745 90.1979 177.139C89.9692 177.534 89.6506 177.869 89.2679 178.117C88.5455 178.535 87.9573 178.194 87.9573 177.358C87.9821 176.903 88.1137 176.461 88.3414 176.066C88.5691 175.672 88.8865 175.337 89.2679 175.088Z" fill="#E6E6E6"/>
<path d="M93.592 172.579C94.3144 172.161 94.9027 172.502 94.9027 173.338C94.8779 173.792 94.7463 174.235 94.5186 174.629C94.2909 175.024 93.9735 175.359 93.592 175.608C92.8645 176.026 92.2762 175.691 92.2762 174.849C92.3012 174.394 92.4334 173.951 92.6621 173.557C92.8908 173.162 93.2094 172.827 93.592 172.579Z" fill="#E6E6E6"/>
<path d="M97.9316 170.071C98.6592 169.653 99.2474 169.994 99.2474 170.83C99.222 171.286 99.0896 171.729 98.8611 172.125C98.6325 172.52 98.3141 172.856 97.9316 173.105C97.2092 173.523 96.621 173.183 96.621 172.347C96.6454 171.891 96.7768 171.448 97.0045 171.052C97.2322 170.657 97.5498 170.321 97.9316 170.071Z" fill="#E6E6E6"/>
<path d="M102.276 167.565C102.999 167.147 103.587 167.488 103.587 168.324C103.562 168.779 103.43 169.223 103.203 169.618C102.975 170.013 102.658 170.349 102.276 170.599C101.549 171.017 100.96 170.677 100.96 169.841C100.985 169.385 101.117 168.941 101.346 168.546C101.574 168.15 101.893 167.814 102.276 167.565Z" fill="#E6E6E6"/>
<path d="M106.616 165.058C107.338 164.64 107.926 164.98 107.926 165.816C107.902 166.272 107.771 166.715 107.543 167.11C107.315 167.506 106.998 167.842 106.616 168.092C105.893 168.51 105.305 168.169 105.305 167.333C105.331 166.878 105.463 166.435 105.69 166.04C105.918 165.645 106.235 165.308 106.616 165.058Z" fill="#E6E6E6"/>
<path d="M110.94 162.539C111.667 162.121 112.256 162.456 112.256 163.297C112.231 163.753 112.099 164.196 111.87 164.59C111.641 164.985 111.323 165.32 110.94 165.568C110.218 165.986 109.629 165.645 109.629 164.809C109.654 164.355 109.786 163.912 110.013 163.518C110.241 163.123 110.559 162.788 110.94 162.539Z" fill="#E6E6E6"/>
<path d="M115.935 173.308C115.908 172.828 115.769 172.362 115.529 171.946C115.289 171.53 114.954 171.176 114.552 170.914L113.427 170.279C112.998 170.065 112.524 169.953 112.044 169.953C111.564 169.953 111.091 170.065 110.661 170.279L73.2977 191.838C72.8949 192.1 72.5596 192.453 72.3193 192.869C72.079 193.285 71.9404 193.752 71.9148 194.232V198.633C71.9412 199.113 72.0801 199.58 72.3204 199.996C72.5606 200.412 72.8954 200.765 73.2977 201.028L74.4277 201.678C74.8557 201.894 75.3285 202.007 75.808 202.007C76.2875 202.007 76.7604 201.894 77.1883 201.678L114.552 180.083C114.955 179.821 115.29 179.468 115.53 179.052C115.771 178.636 115.909 178.169 115.935 177.689V173.308Z" fill="#37474F"/>
<path d="M71.9148 198.617C71.9412 199.097 72.0801 199.564 72.3204 199.979C72.5606 200.395 72.8954 200.749 73.2977 201.011L74.4277 201.662C74.8178 201.857 75.2446 201.967 75.6803 201.986C76.1161 202.005 76.5508 201.931 76.9561 201.77C76.3008 202.018 75.8054 201.651 75.8054 200.862V196.46C75.8222 195.979 75.9625 195.51 76.2131 195.098L72.3224 192.854C72.0719 193.265 71.9315 193.734 71.9148 194.216V198.617Z" fill="#263238"/>
<path d="M115.888 172.916C115.728 172.328 115.192 172.142 114.552 172.508L77.1884 194.072C76.7781 194.324 76.4417 194.68 76.2131 195.104L72.3276 192.859C72.5557 192.437 72.8901 192.081 73.2977 191.827L110.656 170.279C111.086 170.065 111.559 169.953 112.039 169.953C112.519 169.953 112.992 170.065 113.422 170.279L114.552 170.934C114.897 171.157 115.193 171.448 115.423 171.789C115.652 172.129 115.811 172.513 115.888 172.916Z" fill="#455A64"/>
<path d="M80.563 194.612C81.2905 194.194 81.8788 194.535 81.8788 195.371C81.8533 195.827 81.721 196.27 81.4924 196.666C81.2638 197.061 80.9454 197.397 80.563 197.646C79.8406 198.064 79.2523 197.724 79.2523 196.888C79.2768 196.432 79.4081 195.989 79.6358 195.593C79.8635 195.198 80.1812 194.862 80.563 194.612Z" fill="#E6E6E6"/>
<path d="M84.9078 192.104C85.6302 191.686 86.2184 192.027 86.2184 192.863C86.1936 193.318 86.0621 193.762 85.8344 194.157C85.6067 194.552 85.2893 194.888 84.9078 195.139C84.1803 195.556 83.5972 195.216 83.5972 194.38C83.6208 193.924 83.7518 193.481 83.9796 193.085C84.2074 192.69 84.5254 192.354 84.9078 192.104Z" fill="#E6E6E6"/>
<path d="M89.2679 189.604C89.9955 189.181 90.5837 189.521 90.5837 190.357C90.5595 190.813 90.4277 191.257 90.199 191.653C89.9703 192.048 89.6512 192.384 89.2679 192.633C88.5455 193.051 87.9573 192.71 87.9573 191.874C87.9821 191.419 88.1137 190.977 88.3414 190.582C88.5691 190.188 88.8865 189.853 89.2679 189.604Z" fill="#E6E6E6"/>
<path d="M93.592 187.096C94.3144 186.678 94.9027 187.013 94.9027 187.854C94.8779 188.309 94.7463 188.751 94.5186 189.146C94.2909 189.54 93.9735 189.876 93.592 190.125C92.8645 190.542 92.2762 190.207 92.2762 189.366C92.3012 188.911 92.4334 188.468 92.6621 188.073C92.8908 187.679 93.2094 187.344 93.592 187.096Z" fill="#E6E6E6"/>
<path d="M97.9316 184.587C98.6592 184.169 99.2474 184.509 99.2474 185.345C99.2224 185.801 99.0902 186.244 98.8616 186.638C98.6329 187.033 98.3143 187.368 97.9316 187.616C97.2092 188.034 96.621 187.698 96.621 186.862C96.6454 186.407 96.7768 185.963 97.0045 185.568C97.2322 185.173 97.5498 184.837 97.9316 184.587Z" fill="#E6E6E6"/>
<path d="M102.276 182.079C102.999 181.661 103.587 182.002 103.587 182.838C103.561 183.293 103.429 183.736 103.202 184.131C102.974 184.526 102.657 184.862 102.276 185.113C101.549 185.531 100.96 185.191 100.96 184.355C100.985 183.898 101.116 183.454 101.345 183.059C101.574 182.663 101.893 182.328 102.276 182.079Z" fill="#E6E6E6"/>
<path d="M106.616 179.567C107.338 179.149 107.926 179.49 107.926 180.326C107.902 180.781 107.77 181.225 107.542 181.62C107.315 182.015 106.997 182.351 106.616 182.601C105.893 183.019 105.305 182.679 105.305 181.843C105.33 181.387 105.462 180.944 105.689 180.549C105.917 180.154 106.234 179.817 106.616 179.567Z" fill="#E6E6E6"/>
<path d="M110.94 177.069C111.667 176.646 112.256 176.986 112.256 177.822C112.229 178.276 112.096 178.717 111.868 179.109C111.639 179.502 111.321 179.835 110.94 180.082C110.218 180.5 109.629 180.16 109.629 179.324C109.656 178.872 109.789 178.432 110.017 178.041C110.244 177.649 110.561 177.316 110.94 177.069Z" fill="#E6E6E6"/>
<path d="M70.6919 184.891C70.6651 184.411 70.526 183.945 70.2858 183.529C70.0456 183.113 69.711 182.76 69.3091 182.497L68.179 181.847C67.7511 181.63 67.2782 181.518 66.7987 181.518C66.3192 181.518 65.8464 181.63 65.4184 181.847L48.1479 191.836C47.7451 192.098 47.4098 192.452 47.1695 192.868C46.9292 193.284 46.7906 193.751 46.765 194.231V213.163C46.7918 213.642 46.9309 214.109 47.1711 214.525C47.4114 214.94 47.7459 215.294 48.1479 215.557L49.2728 216.202C49.7022 216.416 50.1757 216.528 50.6557 216.528C51.1357 216.528 51.6091 216.416 52.0385 216.202L69.3039 206.212C69.7077 205.951 70.0439 205.598 70.2852 205.182C70.5264 204.765 70.6658 204.298 70.6919 203.818V184.891Z" fill="#733DF5"/>
<path opacity="0.2" d="M46.765 213.163C46.7918 213.643 46.9309 214.109 47.1711 214.525C47.4114 214.941 47.7459 215.295 48.1479 215.558L49.2728 216.203C49.6628 216.398 50.0897 216.508 50.5254 216.527C50.9611 216.546 51.3959 216.472 51.8012 216.311C51.151 216.559 50.6557 216.192 50.6557 215.403V196.476C50.6728 195.995 50.8113 195.527 51.0581 195.114L47.1675 192.869C46.92 193.282 46.7815 193.751 46.765 194.231V213.163Z" fill="black"/>
<path opacity="0.3" d="M70.6403 184.498C70.4752 183.915 69.9437 183.724 69.3038 184.096L52.0385 194.081C51.6281 194.333 51.2916 194.689 51.0632 195.113L47.1726 192.868C47.4041 192.446 47.7398 192.091 48.1478 191.836L65.4081 181.851C65.8375 181.637 66.3109 181.525 66.7909 181.525C67.2709 181.525 67.7444 181.637 68.1738 181.851L69.3038 182.502C69.6504 182.726 69.9477 183.019 70.1774 183.363C70.4072 183.706 70.5647 184.092 70.6403 184.498Z" fill="white"/>
<path d="M60.4132 192.297C62.0747 191.337 63.4215 192.111 63.4215 194.03C63.3649 195.074 63.0631 196.09 62.5404 196.996C62.0177 197.901 61.2889 198.671 60.4132 199.242C58.7517 200.202 57.4049 199.423 57.4049 197.503C57.4606 196.46 57.7621 195.444 58.2849 194.539C58.8077 193.634 59.537 192.866 60.4132 192.297Z" fill="#FAFAFA"/>
<path d="M66.342 202.524C66.342 199.371 64.1284 198.097 61.3988 199.67L59.6908 200.656C56.9663 202.23 54.7527 206.064 54.7527 209.216V210.063C56.3007 210.579 64.7424 205.687 66.342 203.257V202.524Z" fill="#FAFAFA"/>
<path d="M226.112 147.712L219.821 144.1C219.574 143.966 219.207 144.058 218.789 144.394C218.557 144.569 218.325 144.739 218.088 144.91L217.83 145.075L217.365 145.369L217.03 145.555C216.896 145.632 216.756 145.715 216.617 145.787C216.478 145.859 216.364 145.911 216.235 145.973C216.106 146.035 215.988 146.102 215.859 146.158L215.435 146.339L215.085 146.484C214.93 146.545 214.775 146.602 214.62 146.654L214.3 146.773L213.784 146.922L213.49 147.01C213.315 147.061 213.134 147.103 212.974 147.144L212.711 147.206L212.143 147.319L211.911 147.361L211.307 147.448H211.111C210.9 147.448 210.688 147.495 210.477 147.505H210.312C210.09 147.505 209.873 147.505 209.651 147.531H209.496C209.269 147.531 209.042 147.531 208.815 147.531H208.712C208.475 147.531 208.242 147.5 208.005 147.479H207.938L207.21 147.387H207.174L206.565 147.268C206.438 147.128 206.29 147.008 206.127 146.912L206.055 146.871L199.863 143.29C199.347 142.995 198.872 143.207 198.573 143.96C194.512 154.033 185.869 164.249 180.11 166.804C179.995 166.851 179.885 166.908 179.78 166.974C179.708 167.015 179.646 167.062 179.573 167.108C179.501 167.155 179.517 167.149 179.486 167.175C179.399 167.238 179.316 167.307 179.238 167.382C179.156 167.464 179.073 167.547 178.996 167.64C178.583 168.086 178.355 168.672 178.356 169.28L179.186 191.912C179.186 198.507 181.994 205.473 187.721 208.801L194.006 212.413L194.089 212.459C196.996 214.072 200.339 214.726 203.64 214.327C204.874 214.126 206.018 213.556 206.921 212.692C219.486 199.693 225.611 182.072 225.611 172.345L226.442 148.682C226.457 148.155 226.333 147.841 226.112 147.712Z" fill="#733DF5"/>
<path opacity="0.15" d="M193.825 212.33L187.69 208.785C181.967 205.457 179.155 198.491 179.155 191.897L178.319 169.249C178.326 168.856 178.422 168.469 178.601 168.118C178.78 167.768 179.036 167.463 179.351 167.227C179.214 167.343 179.086 167.471 178.97 167.608L185.254 171.22C184.839 171.669 184.61 172.26 184.615 172.872L185.44 195.498C185.435 202.067 188.201 208.981 193.825 212.33Z" fill="black"/>
<path opacity="0.3" d="M226.101 147.7C225.858 147.571 225.497 147.669 225.069 148.004C219.393 152.328 210.956 152.334 206.653 147.323L206.576 147.236C208.697 147.647 210.882 147.605 212.987 147.111C215.091 146.618 217.067 145.684 218.784 144.372C219.228 144.031 219.589 143.943 219.816 144.078L226.101 147.7Z" fill="white"/>
<path opacity="0.5" d="M206.054 146.838C205.574 146.611 205.136 146.838 204.852 147.55C200.796 157.628 192.148 167.84 186.384 170.394C185.951 170.591 185.565 170.879 185.254 171.24L178.969 167.628C179.086 167.491 179.214 167.363 179.351 167.246L179.491 167.133C179.541 167.101 179.589 167.067 179.635 167.029L179.79 166.937C179.889 166.875 179.992 166.822 180.1 166.777C185.858 164.222 194.506 154.006 198.562 143.928C198.779 143.412 199.078 143.139 199.424 143.139C199.575 143.14 199.723 143.183 199.852 143.263L206.054 146.838Z" fill="white"/>
<path d="M236.901 169.434L233.547 167.494L220.394 198.49L222.639 199.785L236.901 169.434Z" fill="#455A64"/>
<path d="M216.978 190.244L213.619 188.309L210.012 195.94L213.371 197.875L216.978 190.244Z" fill="#455A64"/>
<path d="M223.5 208.871L213.371 197.876L216.978 190.244L222.639 199.785L236.901 169.434L242.19 174.594L223.5 208.871Z" fill="#37474F"/>
<path d="M210.012 195.941L213.371 197.876L223.5 208.872L220.146 206.958L210.012 195.941Z" fill="#263238"/>
</svg>
