<svg width="254" height="258" viewBox="0 0 254 258" fill="none" xmlns="http://www.w3.org/2000/svg">
<path d="M127 257.998C197.021 257.998 253.784 228.522 253.784 192.16C253.784 155.799 197.021 126.322 127 126.322C56.9796 126.322 0.216797 155.799 0.216797 192.16C0.216797 228.522 56.9796 257.998 127 257.998Z" fill="#5869E6"/>
<path d="M217.197 217.121C231.777 217.121 243.597 210.745 243.597 202.879C243.597 195.013 231.777 188.637 217.197 188.637C202.617 188.637 190.798 195.013 190.798 202.879C190.798 210.745 202.617 217.121 217.197 217.121Z" fill="#212228"/>
<g opacity="0.8">
<path d="M26.4785 218.642C25.6127 218.666 24.755 218.469 23.9864 218.069L15.4788 213.154C15.1564 213.028 14.8795 212.808 14.6842 212.522C14.489 212.237 14.3845 211.899 14.3845 211.553C14.3845 211.207 14.489 210.869 14.6842 210.583C14.8795 210.297 15.1564 210.077 15.4788 209.951L68.014 179.628C68.7823 179.229 69.635 179.021 70.5004 179.021C71.3658 179.021 72.2185 179.229 72.9868 179.628L81.5001 184.537C81.8243 184.662 82.1032 184.882 82.2998 185.169C82.4965 185.455 82.6018 185.794 82.6018 186.142C82.6018 186.489 82.4965 186.828 82.2998 187.115C82.1032 187.401 81.8243 187.621 81.5001 187.746L28.9649 218.041C28.2007 218.449 27.345 218.656 26.4785 218.642ZM70.5004 179.628C69.7347 179.612 68.9776 179.791 68.3004 180.149L15.7652 210.45C15.5418 210.545 15.3473 210.697 15.2015 210.891C15.0556 211.085 14.9636 211.314 14.9345 211.556C14.9647 211.796 15.0572 212.025 15.2029 212.219C15.3486 212.413 15.5425 212.565 15.7652 212.661L24.2729 217.571C24.9557 217.917 25.7103 218.097 26.4757 218.097C27.241 218.097 27.9957 217.917 28.6785 217.571L81.2137 187.276C81.4564 187.21 81.6707 187.066 81.8234 186.866C81.9762 186.666 82.059 186.422 82.059 186.17C82.059 185.919 81.9762 185.674 81.8234 185.474C81.6707 185.274 81.4564 185.13 81.2137 185.064L72.7003 180.149C72.0235 179.79 71.2661 179.611 70.5004 179.628Z" fill="white"/>
</g>
<path d="M88.1 221.218C87.2329 221.231 86.3771 221.022 85.6136 220.611L54.9575 202.914C54.9248 202.896 54.896 202.871 54.873 202.841C54.85 202.812 54.8332 202.777 54.8236 202.741C54.8139 202.705 54.8117 202.667 54.817 202.63C54.8223 202.593 54.835 202.557 54.8544 202.525C54.8928 202.46 54.9547 202.412 55.0273 202.392C55.0999 202.372 55.1776 202.38 55.244 202.416L85.9 220.118C86.5832 220.463 87.3377 220.642 88.1028 220.642C88.868 220.642 89.6224 220.463 90.3056 220.118L189.017 163.126C189.24 163.031 189.434 162.879 189.579 162.685C189.724 162.49 189.814 162.261 189.842 162.02C189.813 161.78 189.721 161.552 189.577 161.358C189.432 161.164 189.239 161.011 189.017 160.915L163.144 145.979C163.087 145.937 163.047 145.876 163.033 145.806C163.018 145.737 163.03 145.665 163.065 145.603C163.101 145.542 163.158 145.496 163.226 145.475C163.293 145.453 163.366 145.457 163.431 145.486L189.303 160.422C189.626 160.548 189.903 160.768 190.098 161.053C190.293 161.339 190.397 161.677 190.397 162.023C190.397 162.369 190.293 162.707 190.098 162.993C189.903 163.279 189.626 163.499 189.303 163.624L90.5921 220.611C89.8268 221.023 88.9689 221.232 88.1 221.218Z" fill="white"/>
<path d="M156.304 144.24C156.985 144.587 157.739 144.768 158.504 144.768C159.269 144.768 160.023 144.587 160.704 144.24C161.918 143.541 161.918 142.401 160.704 141.702C160.022 141.357 159.268 141.178 158.504 141.178C157.74 141.178 156.986 141.357 156.304 141.702C155.089 142.389 155.089 143.535 156.304 144.24Z" fill="#5869E6"/>
<path d="M158.481 146.782C156.925 146.812 155.387 146.445 154.012 145.716C152.763 144.994 152.076 143.998 152.076 142.972C152.076 141.947 152.763 140.944 154.012 140.228C156.476 138.801 160.486 138.807 162.95 140.228C164.193 140.944 164.88 141.947 164.88 142.972C164.88 143.998 164.193 144.994 162.95 145.716C161.575 146.445 160.037 146.812 158.481 146.782ZM154.299 145.218C155.595 145.876 157.028 146.219 158.481 146.219C159.934 146.219 161.367 145.876 162.663 145.218C163.723 144.605 164.307 143.809 164.307 142.972C164.307 142.136 163.734 141.334 162.663 140.721C161.367 140.065 159.934 139.724 158.481 139.724C157.028 139.724 155.595 140.065 154.299 140.721C153.233 141.334 152.649 142.136 152.649 142.972C152.649 143.809 153.222 144.605 154.299 145.218Z" fill="#5869E6"/>
<path d="M52.9007 203.936C53.5819 204.283 54.3358 204.465 55.1006 204.465C55.8654 204.465 56.6193 204.283 57.3006 203.936C58.5151 203.237 58.5151 202.097 57.3006 201.398C56.6193 201.05 55.8654 200.869 55.1006 200.869C54.3358 200.869 53.5819 201.05 52.9007 201.398C51.6861 202.097 51.6861 203.237 52.9007 203.936Z" fill="#5869E6"/>
<path d="M158.481 143.259C158.405 143.259 158.332 143.228 158.278 143.175C158.225 143.121 158.194 143.048 158.194 142.972V47.7786C158.194 47.7027 158.225 47.6298 158.278 47.5761C158.332 47.5224 158.405 47.4922 158.481 47.4922C158.556 47.4937 158.628 47.5243 158.682 47.5777C158.735 47.6311 158.766 47.7031 158.767 47.7786V142.961C158.768 142.999 158.761 143.037 158.747 143.073C158.733 143.109 158.712 143.141 158.686 143.169C158.659 143.197 158.627 143.219 158.592 143.234C158.557 143.25 158.519 143.258 158.481 143.259Z" fill="white"/>
<path d="M187.309 19.3848L179.862 15.0938C178.865 14.4292 177.536 14.435 176.063 15.2828L175.53 15.5922C175.678 14.5484 175.753 13.4955 175.754 12.4413C175.766 11.0399 175.603 9.64256 175.267 8.28198L179.105 7.34815L171.738 3.09148C169.715 1.94567 167.074 2.03161 164.187 3.69876C161.3 5.3659 158.521 8.45385 156.476 12.0803C156.452 10.2249 156.163 8.38234 155.616 6.6091L158.968 5.3258L151.847 1.22955C149.24 -0.489162 145.751 -0.460517 141.907 1.75662C133.846 6.42577 127.303 18.9151 127.303 29.6742C127.298 30.8654 127.388 32.0551 127.573 33.2319L126.564 33.8048C121.408 36.7667 117.272 44.6899 117.272 51.5648C117.272 55.3402 118.544 58.0328 120.543 59.1958L127.991 63.4983L129.223 57.1964L140.073 50.9289L176.075 30.1554C179.134 28.3966 181.609 23.6873 181.649 19.6025L185.98 21.9285L187.309 19.3848Z" fill="#733DF5"/>
<path opacity="0.1" d="M187.309 19.3848L179.862 15.0938C178.865 14.4292 177.536 14.435 176.063 15.2828L175.53 15.5922C175.678 14.5484 175.753 13.4955 175.754 12.4413C175.766 11.0399 175.603 9.64256 175.267 8.28198L179.105 7.34815L171.738 3.09148C169.715 1.94567 167.074 2.03161 164.187 3.69876C161.3 5.3659 158.521 8.45385 156.476 12.0803C156.452 10.2249 156.163 8.38234 155.616 6.6091L158.968 5.3258L151.847 1.22955C149.24 -0.489162 145.751 -0.460517 141.907 1.75662C133.846 6.42577 127.303 18.9151 127.303 29.6742C127.298 30.8654 127.388 32.0551 127.573 33.2319L126.564 33.8048C121.408 36.7667 117.272 44.6899 117.272 51.5648C117.272 55.3402 118.544 58.0328 120.543 59.1958L127.991 63.4983L129.223 57.1964L140.073 50.9289L176.075 30.1554C179.134 28.3966 181.609 23.6873 181.649 19.6025L185.98 21.9285L187.309 19.3848Z" fill="white"/>
<path d="M171.761 3.09349C169.738 1.94768 167.097 2.03362 164.21 3.70076C162.803 4.53763 161.521 5.5674 160.4 6.76007L169.904 12.2828L175.559 9.71624C175.484 9.21782 175.393 8.73658 175.278 8.28399L179.105 7.35016L171.761 3.09349Z" fill="#733DF5"/>
<path d="M155.949 7.7967C155.851 7.38994 155.742 6.99464 155.616 6.61652L158.481 5.53374L158.813 5.2301L151.875 1.21978C149.269 -0.498927 145.78 -0.470282 141.935 1.74685C138.275 3.86086 134.935 7.59046 132.368 12.0591L143.918 18.722L155.949 7.7967Z" fill="#733DF5"/>
<path d="M127.573 33.2324L124.513 35.3063C121.726 37.9149 119.645 41.1866 118.463 44.8165L127.16 49.8351L134.992 37.5464L127.573 33.2324Z" fill="#733DF5"/>
<path opacity="0.4" d="M171.761 3.09349C169.738 1.94768 167.097 2.03362 164.21 3.70076C162.803 4.53763 161.521 5.5674 160.4 6.76007L169.904 12.2828L175.559 9.71624C175.484 9.21782 175.393 8.73658 175.278 8.28399L179.105 7.35016L171.761 3.09349Z" fill="white"/>
<path opacity="0.4" d="M155.949 7.7967C155.851 7.38994 155.742 6.99464 155.616 6.61652L158.481 5.53374L158.813 5.2301L151.875 1.21978C149.269 -0.498927 145.78 -0.470282 141.935 1.74685C138.275 3.86086 134.935 7.59046 132.368 12.0591L143.918 18.722L155.949 7.7967Z" fill="white"/>
<path opacity="0.4" d="M127.573 33.2324L124.513 35.3063C121.726 37.9149 119.645 41.1866 118.463 44.8165L127.16 49.8351L134.992 37.5464L127.573 33.2324Z" fill="white"/>
<path d="M183.511 19.5877L182.978 19.8971C183.126 18.8513 183.2 17.7965 183.201 16.7404C183.201 8.23281 178.045 4.31988 171.64 8.00365C168.678 9.72236 165.98 12.7587 163.935 16.3795C163.648 6.13025 157.226 1.51266 149.343 6.06724C141.294 10.7192 134.74 23.2257 134.74 33.9676C134.728 35.166 134.812 36.3633 134.992 37.5482L133.983 38.1211C128.827 41.083 124.691 49.0063 124.691 55.8811C124.691 62.7273 128.85 66.0215 133.983 63.0539L147.498 55.2567L183.511 34.4546C186.593 32.6786 189.085 27.9063 189.085 23.8043C189.085 19.6966 186.593 17.8117 183.511 19.5877Z" fill="#733DF5"/>
<path opacity="0.6" d="M183.511 19.5877L182.978 19.8971C183.126 18.8513 183.2 17.7965 183.201 16.7404C183.201 8.23281 178.045 4.31988 171.64 8.00365C168.678 9.72236 165.98 12.7587 163.935 16.3795C163.648 6.13025 157.226 1.51266 149.343 6.06724C141.294 10.7192 134.74 23.2257 134.74 33.9676C134.728 35.166 134.812 36.3633 134.992 37.5482L133.983 38.1211C128.827 41.083 124.691 49.0063 124.691 55.8811C124.691 62.7273 128.85 66.0215 133.983 63.0539L147.498 55.2567L183.511 34.4546C186.593 32.6786 189.085 27.9063 189.085 23.8043C189.085 19.6966 186.593 17.8117 183.511 19.5877Z" fill="white"/>
<path d="M73.7256 63.1318C73.6111 62.3011 72.9408 61.986 72.1387 62.4616L28.1111 87.8812C27.6457 88.1854 27.2584 88.595 26.9807 89.0767C26.703 89.5585 26.5427 90.0989 26.5127 90.6541V187.813C26.5127 188.758 27.12 189.182 27.9106 188.838C27.4329 189.04 26.9172 189.136 26.3989 189.119C25.8807 189.102 25.3722 188.973 24.9086 188.741L23.0753 187.681C22.6075 187.379 22.2182 186.97 21.9393 186.488C21.6604 186.006 21.5 185.464 21.4712 184.908V87.7552C21.5005 87.1984 21.6611 86.6563 21.9399 86.1734C22.2186 85.6905 22.6077 85.2804 23.0753 84.9766L67.1029 59.5569C67.5983 59.3026 68.1472 59.1699 68.7042 59.1699C69.2611 59.1699 69.81 59.3026 70.3054 59.5569L72.1387 60.6111C72.5689 60.8924 72.9334 61.2633 73.2072 61.6983C73.4811 62.1333 73.6579 62.6223 73.7256 63.1318Z" fill="#636363"/>
<path d="M72.1384 62.4626L28.1109 87.8823C27.6454 88.1865 27.2581 88.596 26.9804 89.0778C26.7027 89.5595 26.5424 90.0999 26.5125 90.6551V187.814C26.5125 188.833 27.2286 189.252 28.1109 188.742L72.1384 163.322C72.6046 163.018 72.9927 162.609 73.2714 162.127C73.5501 161.645 73.7115 161.105 73.7425 160.549V63.3907C73.7425 62.3652 73.0207 61.9527 72.1384 62.4626ZM71.4337 151.4C71.4337 152.271 70.8207 152.827 70.0645 153.262L30.0301 176.379C29.2738 176.814 28.6551 176.459 28.6551 175.582V99.959C28.6822 99.4828 28.8208 99.0196 29.0596 98.6066C29.2984 98.1937 29.6308 97.8425 30.0301 97.5815L70.0645 74.4706C70.8207 74.0295 71.4337 74.3904 71.4337 75.2612V151.4Z" fill="#636363"/>
<path d="M27.9106 188.838C27.4329 189.04 26.9172 189.135 26.3989 189.119C25.8807 189.102 25.3722 188.973 24.9086 188.74L23.0753 187.681C22.6078 187.378 22.2187 186.969 21.9399 186.487C21.6611 186.005 21.5004 185.464 21.4712 184.908V87.7549C21.4892 87.1944 21.6509 86.6479 21.941 86.168L26.9825 89.0783C26.6941 89.5548 26.5324 90.0972 26.5127 90.6538V187.812C26.5127 188.758 27.12 189.182 27.9106 188.838Z" fill="#212228"/>
<path d="M50.1278 77.3103C50.7007 76.9723 51.1992 77.2473 51.1992 77.9348C51.1784 78.3064 51.0706 78.668 50.8845 78.9904C50.6984 79.3128 50.4393 79.5871 50.1278 79.791C49.5549 80.1347 49.0508 79.854 49.0508 79.1723C49.0709 78.799 49.1789 78.4357 49.3661 78.1122C49.5533 77.7886 49.8143 77.5138 50.1278 77.3103Z" fill="black"/>
<path d="M49.3771 173.778C49.0954 173.782 48.818 173.709 48.575 173.566C48.2728 173.359 48.0314 173.076 47.8762 172.744C47.721 172.413 47.6577 172.045 47.6928 171.681C47.744 170.755 48.0123 169.854 48.4761 169.051C48.9398 168.248 49.5861 167.565 50.3625 167.058C50.6611 166.846 51.0108 166.718 51.3753 166.687C51.7399 166.656 52.1062 166.723 52.4364 166.88C52.7396 167.086 52.9816 167.369 53.1369 167.701C53.2922 168.033 53.355 168.4 53.3187 168.765C53.2684 169.691 53.0004 170.593 52.5366 171.396C52.0727 172.199 51.426 172.882 50.6489 173.388C50.2667 173.628 49.828 173.762 49.3771 173.778ZM51.6343 167.247C51.2844 167.262 50.9446 167.368 50.6489 167.556C49.9557 168.008 49.3787 168.617 48.9647 169.334C48.5506 170.051 48.3112 170.855 48.2657 171.681C48.199 171.947 48.2207 172.226 48.3272 172.479C48.4338 172.731 48.6196 172.941 48.8564 173.078C49.0933 173.216 49.3683 173.272 49.64 173.239C49.9118 173.206 50.1653 173.085 50.3625 172.896C51.0561 172.443 51.6334 171.833 52.0474 171.115C52.4615 170.397 52.7007 169.592 52.7458 168.765C52.7803 168.504 52.7455 168.238 52.6449 167.995C52.5444 167.752 52.3816 167.539 52.1729 167.379C52.0099 167.283 51.8228 167.238 51.6343 167.247Z" fill="#E6E6E6"/>
<path d="M45.9799 83.8419L54.2698 79.0582C54.7625 78.7717 55.1635 78.9722 55.1635 79.5108C55.1418 79.811 55.0495 80.1018 54.8942 80.3596C54.7389 80.6174 54.525 80.835 54.2698 80.9946L45.9799 85.7841C45.4872 86.0648 45.0862 85.8643 45.0862 85.3315C45.108 85.0305 45.2002 84.7389 45.3555 84.4801C45.5107 84.2214 45.7246 84.0028 45.9799 83.8419Z" fill="black"/>
<path d="M71.4339 151.399C71.4339 152.27 70.8209 152.826 70.0647 153.261L30.0302 176.378C29.274 176.813 28.6553 176.458 28.6553 175.581V99.9582C28.6824 99.482 28.821 99.0188 29.0598 98.6058C29.2986 98.1929 29.631 97.8417 30.0302 97.5807L70.0647 74.4698C70.8209 74.0287 71.4339 74.3896 71.4339 75.2604V151.399Z" fill="#733DF5"/>
<path d="M65.8596 121.602L63.6825 120.571C66.8793 110.144 63.6367 106.706 57.9993 106.248C60.2165 107.612 61.3451 113.266 59.5118 118.611L57.3348 117.58C56.9108 117.38 56.189 118.153 56.189 118.812L56.0171 128.872C56.0171 129.336 56.3436 129.496 56.7447 129.221L65.4356 123.206C66.0314 122.776 66.2835 121.808 65.8596 121.602Z" fill="white"/>
<path opacity="0.8" d="M59.2199 113.077C59.2199 109.835 58.2288 107.136 56.7908 106.254C56.7908 106.254 50.8555 106.764 45.1494 115.134C45.1494 115.134 53.2674 108.431 59.2199 113.077Z" fill="white"/>
<path d="M35.0604 129.21L37.2374 130.247C34.0407 140.674 37.289 144.111 42.9206 144.569C40.7035 143.206 39.5749 137.557 41.4082 132.206L43.5852 133.243C44.0092 133.444 44.731 132.67 44.731 132.011L44.9029 121.945C44.9029 121.487 44.5763 121.327 44.1753 121.602L35.4844 127.617C34.8885 128.064 34.6365 129.015 35.0604 129.21Z" fill="white"/>
<path opacity="0.8" d="M41.7002 137.74C41.7002 140.989 42.6913 143.681 44.1293 144.569C44.1293 144.569 50.0646 144.054 55.7707 135.689C55.7707 135.689 47.6527 142.387 41.7002 137.74Z" fill="white"/>
<path d="M106.696 62.7188C106.668 62.2132 106.521 61.7214 106.268 61.2834C106.014 60.8453 105.66 60.4734 105.235 60.198L104.055 59.5163C103.604 59.2873 103.105 59.168 102.6 59.168C102.094 59.168 101.595 59.2873 101.144 59.5163L91.7661 64.9302C91.3425 65.207 90.9897 65.5792 90.736 66.0169C90.4823 66.4547 90.3347 66.9459 90.3052 67.451V78.2846C90.3329 78.7901 90.4797 79.2819 90.7336 79.72C90.9875 80.158 91.3412 80.5299 91.7661 80.8053L92.9463 81.4928C93.0449 81.5497 93.1484 81.5977 93.2556 81.636L93.3817 81.6761L93.5936 81.7449L93.7655 81.7735C93.8259 81.7883 93.8872 81.7998 93.9488 81.8079H94.1551H94.304H94.6592L94.9285 81.7793H94.9972L95.2837 81.7162H95.3238C95.5108 81.6637 95.6914 81.5906 95.8623 81.4985L105.241 76.0789C105.666 75.8035 106.019 75.4316 106.273 74.9935C106.527 74.5555 106.674 74.0637 106.702 73.5581L106.696 62.7188Z" fill="#733DF5"/>
<path opacity="0.4" d="M106.673 62.4963C106.57 61.7515 105.962 61.4822 105.241 61.9234L95.8565 67.3373C95.426 67.6069 95.0712 67.9814 94.8253 68.4258L90.729 66.0597C90.9749 65.6154 91.3298 65.2408 91.7602 64.9712L101.139 59.5573C101.59 59.3283 102.088 59.209 102.594 59.209C103.1 59.209 103.598 59.3283 104.049 59.5573L105.241 60.239C105.625 60.4929 105.951 60.8253 106.198 61.2144C106.445 61.6034 106.607 62.0403 106.673 62.4963Z" fill="white"/>
<path d="M106.696 62.7126V73.5405C106.669 74.047 106.523 74.54 106.269 74.9791C106.015 75.4182 105.661 75.791 105.235 76.067L95.8565 81.4809C95.7441 81.5451 95.625 81.597 95.5013 81.6356H95.4039H95.3066C94.7795 81.6986 94.4014 81.3148 94.4014 80.6101V69.8109C94.4175 69.305 94.5635 68.8118 94.8253 68.3786C95.0713 67.9328 95.426 67.5563 95.8565 67.2844L105.235 61.8705C105.968 61.4465 106.57 61.7215 106.673 62.4434C106.673 62.3689 106.673 62.2944 106.633 62.2142C106.672 62.3775 106.693 62.5447 106.696 62.7126Z" fill="#733DF5"/>
<path d="M104.914 65.9333C104.872 65.9092 104.825 65.8965 104.777 65.8965C104.728 65.8965 104.681 65.9092 104.639 65.9333L96.4523 70.677C96.3451 70.7479 96.255 70.8419 96.1887 70.952L100.95 72.155L104.914 65.9333Z" fill="white"/>
<path d="M101.081 73.1048L96.1832 71.0022C96.1053 71.124 96.0617 71.2645 96.0571 71.409V76.9604C96.0571 77.2182 96.2347 77.3213 96.4524 77.1896L104.628 72.4459C104.743 72.3696 104.84 72.267 104.908 72.1466C104.977 72.0261 105.016 71.8912 105.023 71.7527V66.2013C105.027 66.1535 105.02 66.1054 105.001 66.0614C104.982 66.0173 104.952 65.9788 104.914 65.9492L101.081 73.1048Z" fill="white"/>
<path opacity="0.1" d="M95.5932 81.612L95.5015 81.6464L95.2895 81.7094C95.1032 81.7678 94.9111 81.8063 94.7166 81.824C94.6212 81.8298 94.5256 81.8298 94.4302 81.824C93.9214 81.8342 93.4184 81.7139 92.9693 81.4745L91.7605 80.8271C91.3368 80.5491 90.984 80.1759 90.7303 79.7372C90.4766 79.2985 90.3291 78.8065 90.2996 78.3006V67.4498C90.3076 67.1421 90.3676 66.838 90.4772 66.5504C90.5218 66.4291 90.5734 66.3105 90.6318 66.1952L90.7292 66.0176L94.8255 68.3837C94.5644 68.8171 94.4184 69.3102 94.4015 69.8159V80.6495C94.4015 81.3542 94.7739 81.738 95.3067 81.6807H95.3984L95.5932 81.612Z" fill="#212228"/>
<path d="M106.696 90.3868C106.668 89.8812 106.522 89.3894 106.268 88.9513C106.014 88.5133 105.66 88.1414 105.235 87.866L104.055 87.1842C103.604 86.9553 103.106 86.8359 102.6 86.8359C102.094 86.8359 101.596 86.9553 101.145 87.1842L91.7663 92.5982C91.3427 92.8749 90.9899 93.2471 90.7362 93.6849C90.4825 94.1227 90.335 94.6138 90.3054 95.1189V105.953C90.3332 106.458 90.48 106.95 90.7338 107.388C90.9877 107.826 91.3415 108.198 91.7663 108.473L92.9465 109.161C93.0451 109.218 93.1487 109.266 93.2559 109.304L93.3819 109.344L93.5939 109.413L93.7657 109.442C93.8262 109.456 93.8874 109.468 93.9491 109.476H94.1553H94.3043H94.6595L94.9287 109.447H94.9975L95.2839 109.384H95.324C95.511 109.332 95.6916 109.259 95.8626 109.167L105.241 103.747C105.666 103.471 106.02 103.1 106.273 102.662C106.527 102.223 106.674 101.732 106.702 101.226L106.696 90.3868Z" fill="#733DF5"/>
<path opacity="0.4" d="M106.673 90.1409C106.57 89.3961 105.963 89.1268 105.241 89.568L95.857 94.9819C95.4265 95.2515 95.0717 95.626 94.8257 96.0704L90.7295 93.6929C90.9754 93.2485 91.3303 92.8739 91.7607 92.6043L101.139 87.1904C101.589 86.9587 102.088 86.8379 102.594 86.8379C103.101 86.8379 103.599 86.9587 104.049 87.1904L105.241 87.8722C105.627 88.1273 105.954 88.4615 106.201 88.8526C106.448 89.2437 106.609 89.6828 106.673 90.1409Z" fill="white"/>
<path d="M106.696 90.3818V101.215C106.669 101.722 106.522 102.215 106.269 102.654C106.015 103.093 105.661 103.466 105.235 103.742L95.857 109.162C95.7443 109.224 95.6253 109.274 95.5018 109.311L95.4044 109.339H95.307C94.78 109.396 94.4019 109.013 94.4019 108.308V97.4801C94.418 96.9724 94.564 96.4773 94.8258 96.0421C95.0735 95.599 95.428 95.2249 95.857 94.9536L105.235 89.5396C105.969 89.1157 106.57 89.385 106.673 90.1125C106.673 90.0381 106.673 89.9579 106.633 89.8834C106.673 90.0467 106.694 90.2139 106.696 90.3818Z" fill="#733DF5"/>
<path d="M96.1489 96.8082V106.966L104.949 101.884V91.7266L96.1489 96.8082ZM104.404 101.575L96.6875 106.026V97.129L104.404 92.6718V101.575Z" fill="white"/>
<path d="M96.6877 106.026V103.448L99.4148 99.1282L102.251 101.053L101.397 100.108L102.486 98.6699L104.405 99.7871V101.575L96.6877 106.026Z" fill="white"/>
<path d="M102.56 95.4105C102.904 95.21 103.184 95.3704 103.184 95.7715C103.172 95.9881 103.109 96.1989 103.001 96.3869C102.892 96.5749 102.741 96.7349 102.56 96.8543C102.216 97.049 101.936 96.8886 101.936 96.4933C101.947 96.2765 102.01 96.0654 102.118 95.8772C102.227 95.6891 102.378 95.5292 102.56 95.4105Z" fill="white"/>
<path opacity="0.1" d="M95.5933 109.28L95.5017 109.314L95.2897 109.377C95.1033 109.436 94.9113 109.474 94.7168 109.492C94.6214 109.498 94.5257 109.498 94.4303 109.492C93.9215 109.502 93.4185 109.382 92.9694 109.142L91.7892 108.461C91.3635 108.187 91.0076 107.818 90.75 107.382C90.4924 106.946 90.3402 106.456 90.3054 105.951V95.1178C90.3134 94.8101 90.3735 94.506 90.483 94.2183C90.5276 94.097 90.5793 93.9784 90.6377 93.8631L90.7351 93.6855L94.8313 96.0516C94.5702 96.4851 94.4243 96.9781 94.4074 97.4839V108.317C94.4074 109.022 94.7798 109.406 95.3126 109.349H95.4042L95.5933 109.28Z" fill="#212228"/>
<path d="M106.696 117.99C106.668 117.485 106.521 116.993 106.268 116.555C106.014 116.117 105.66 115.745 105.235 115.469L104.049 114.782C103.598 114.553 103.1 114.434 102.594 114.434C102.088 114.434 101.59 114.553 101.139 114.782L91.7605 120.202C91.3275 120.468 90.972 120.843 90.7292 121.29C90.4659 121.723 90.3179 122.216 90.2996 122.722V133.556C90.3273 134.061 90.4741 134.553 90.728 134.991C90.9818 135.429 91.3356 135.801 91.7605 136.077L92.9406 136.758C93.0403 136.815 93.1437 136.865 93.25 136.907L93.376 136.947L93.588 137.011C93.6453 137.011 93.7026 137.01 93.7599 137.045L93.9432 137.074H94.1495H94.6536L94.9229 137.045H94.9916L95.2781 136.988H95.3182C95.5062 136.936 95.6871 136.861 95.8567 136.764L105.235 131.35C105.66 131.075 106.014 130.703 106.268 130.265C106.521 129.827 106.668 129.335 106.696 128.829V117.99Z" fill="#733DF5"/>
<path opacity="0.4" d="M106.673 117.744C106.57 117 105.963 116.73 105.241 117.171L95.8567 122.591C95.4238 122.858 95.0683 123.233 94.8255 123.68L90.7292 121.314C90.972 120.867 91.3276 120.492 91.7605 120.225L101.139 114.805C101.59 114.576 102.088 114.457 102.594 114.457C103.1 114.457 103.598 114.576 104.049 114.805L105.241 115.493C105.625 115.746 105.952 116.077 106.198 116.465C106.445 116.853 106.607 117.289 106.673 117.744Z" fill="white"/>
<path d="M106.696 117.984V128.834C106.668 129.34 106.522 129.832 106.268 130.27C106.014 130.708 105.66 131.08 105.235 131.355L95.8568 136.769C95.7443 136.833 95.6252 136.885 95.5016 136.924L95.4042 136.952H95.3068C94.7797 137.01 94.4016 136.626 94.4016 135.921V125.082C94.4283 124.577 94.574 124.085 94.8269 123.647C95.0798 123.209 95.4327 122.837 95.8568 122.561L105.235 117.141C105.969 116.723 106.57 116.992 106.673 117.714C106.673 117.64 106.673 117.565 106.633 117.485C106.672 117.648 106.693 117.816 106.696 117.984Z" fill="#733DF5"/>
<path d="M100.451 121.75C101.597 121.079 102.571 121.623 102.571 122.976C102.531 123.71 102.318 124.424 101.95 125.06C101.581 125.696 101.068 126.236 100.451 126.636C99.3056 127.312 98.3374 126.768 98.3374 125.416C98.3774 124.682 98.5897 123.968 98.9569 123.331C99.3242 122.694 99.8361 122.152 100.451 121.75Z" fill="white"/>
<path d="M104.628 128.967C104.628 126.749 103.069 125.764 101.15 126.875L99.9529 127.569C98.9406 128.228 98.0981 129.117 97.4939 130.163C96.8897 131.21 96.5407 132.383 96.4753 133.59V134.163L104.628 129.482V128.967Z" fill="white"/>
<path opacity="0.1" d="M95.5933 136.855C95.5653 136.872 95.5342 136.884 95.5017 136.889L95.2897 136.958C95.1027 137.014 94.9109 137.052 94.7168 137.073H94.4304C93.9223 137.082 93.4201 136.964 92.9695 136.729L91.7893 136.041C91.3651 135.765 91.0118 135.393 90.758 134.955C90.5042 134.517 90.357 134.026 90.3284 133.521V122.721C90.3363 122.412 90.3963 122.106 90.506 121.816C90.5518 121.696 90.6034 121.576 90.6607 121.461L90.758 121.289L94.8543 123.655C94.5925 124.088 94.4465 124.582 94.4304 125.087V135.921C94.4304 136.626 94.8027 137.01 95.3355 136.952H95.4272C95.4862 136.926 95.5419 136.894 95.5933 136.855Z" fill="#212228"/>
<path d="M220.892 88.5379H221.637C224.47 88.5379 227.188 87.4122 229.192 85.4084C231.195 83.4047 232.321 80.687 232.321 77.8533C232.324 76.399 232.04 74.9585 231.486 73.614C230.932 72.2695 230.118 71.0475 229.091 70.0179C228.064 68.9883 226.844 68.1712 225.501 67.6135C224.158 67.0558 222.718 66.7683 221.264 66.7676C218.543 66.7676 215.933 67.8486 214.009 69.7729C212.084 71.6971 211.003 74.307 211.003 77.0283V78.6267C211 79.9271 211.254 81.2154 211.75 82.4178C212.245 83.6201 212.973 84.7129 213.892 85.6336C214.81 86.5542 215.901 87.2846 217.102 87.783C218.304 88.2814 219.591 88.5379 220.892 88.5379Z" fill="#212228"/>
<path d="M239.196 96.2154C237.035 96.2154 234.962 95.3573 233.434 93.8297C231.905 92.3021 231.045 90.2299 231.044 88.0688V77.957C233.206 77.957 235.279 78.8159 236.808 80.3448C238.337 81.8737 239.196 83.9473 239.196 86.1094V96.2154Z" fill="#212228"/>
<path d="M202.702 119.309C202.061 120.609 200.136 122.506 197.873 120.059C194.567 116.49 189.125 103.806 189.125 103.806L192.705 102.15L199.998 112.113L202.702 119.309Z" fill="#FFA8A7"/>
<path d="M209.084 97.1319C206.248 101.452 198.99 114.525 198.99 114.525L201.94 120.386C201.94 120.386 205.469 115.597 207.325 112.967C209.474 109.931 213.117 104.087 213.117 104.087C213.117 104.087 212.688 95.3616 214.487 93.8377C215.458 92.9775 216.581 92.3054 217.798 91.8555C214.939 91.9758 212.092 92.5143 209.084 97.1319Z" fill="#FFA8A7"/>
<path d="M195.592 95.7855C194.641 94.0152 194.407 93.935 193.874 93.5454C193.341 93.1558 189.835 92.6402 188.397 92.5199C186.707 92.3767 186.105 92.6861 186.575 94.147C187.583 97.2635 190.637 103.886 191.324 104.791C191.771 105.364 191.863 105.937 193.765 106.138C195.547 106.31 197.775 106.407 198.434 106.447C199.093 106.487 199.998 106.648 199.408 104.728C198.651 102.532 197.775 100.379 196.784 98.2776C196.051 96.7078 195.592 95.7855 195.592 95.7855Z" fill="#212228"/>
<path d="M189.125 103.806C188.414 100.678 186.335 97.7903 187.509 96.7305L188.139 98.1169C188.139 98.1169 192.035 99.0507 193.914 98.9075C195.793 98.7643 197.351 98.3346 197.844 98.6783C198.938 99.446 199.248 102.723 196.125 103.915C193.467 104.923 189.125 103.806 189.125 103.806Z" fill="#FFA8A7"/>
<path d="M228.414 198.587V197.877C228.133 198.708 226.833 202.3 224.856 204.099C223.292 205.531 221.15 207.181 220.605 208.773C220.061 210.366 223.585 210.991 225.051 210.733C226.77 210.429 228.953 209.467 230.156 207.994C230.998 206.957 231.531 205.731 232.132 204.912C232.734 204.093 234.126 203.193 234.424 202.248C234.607 201.732 234.395 200.598 234.143 199.641C233.891 198.685 233.662 197.791 233.364 197.877C233.364 197.986 233.364 198.415 233.364 198.415C232.657 198.974 231.779 199.271 230.878 199.258C230.173 199.286 228.408 199.143 228.414 198.587Z" fill="#212228"/>
<path d="M223.441 205.358C223.928 204.923 224.415 204.499 224.856 204.092C226.237 202.837 227.285 200.706 227.893 199.251C228.237 198.421 228.414 197.531 228.414 196.633V193.797H233.387V198.414V198.535H233.358C233.118 199.572 230.837 202.316 229.543 204.109C228.672 205.312 227.022 206.842 225.051 207.105C223.178 207.363 222.227 206.773 223.441 205.358Z" fill="#FFA8A7"/>
<path d="M209.022 193.682V192.972C208.741 193.808 207.44 197.4 205.47 199.199C203.9 200.626 201.757 202.282 201.213 203.874C200.669 205.467 204.192 206.091 205.659 205.834C207.377 205.53 209.56 204.562 210.763 203.089C211.605 202.052 212.138 200.826 212.74 200.013C213.341 199.199 214.733 198.294 215.06 197.349C215.238 196.827 215.026 195.693 214.773 194.736C214.521 193.78 214.292 192.892 213.994 192.972C213.994 193.081 213.994 193.516 213.994 193.516C213.286 194.072 212.408 194.369 211.508 194.358C210.78 194.381 209.016 194.238 209.022 193.682Z" fill="#212228"/>
<path d="M204.049 200.454L205.469 199.194C206.844 197.933 207.893 195.802 208.5 194.347C208.844 193.519 209.021 192.631 209.021 191.734V188.898H213.994V193.51V193.636C213.753 194.668 211.473 197.418 210.179 199.211C209.308 200.408 207.658 201.938 205.687 202.201C203.785 202.465 202.834 201.875 204.049 200.454Z" fill="#FFA8A7"/>
<path d="M232.384 121.319C236.24 129.741 232.247 159.394 232.247 159.394C232.361 160.758 233.92 163.451 234.504 169.46C235.192 176.564 233.427 194.405 233.427 194.405C232.669 194.843 231.815 195.091 230.94 195.126C230.064 195.161 229.194 194.982 228.403 194.605C228.403 194.605 223.665 167.736 222.771 160.672C221.992 154.508 220.479 140.953 220.479 140.953L216.24 160.638C216.859 162.624 217.308 164.659 217.581 166.722C217.982 170.881 213.96 190.211 213.96 190.211C213.96 190.211 212.241 190.841 208.987 190.36C208.987 190.36 207.56 164.688 207.188 159.687C206.558 151.282 208.787 125.055 210.333 120.076L232.384 121.319Z" fill="#733DF5"/>
<path opacity="0.1" d="M220.514 140.953L219.259 133.138C219.259 133.138 213.966 132.038 211.565 129.781C211.565 129.781 214.086 132.915 217.827 133.941L219.208 139.962L216.756 158.191L220.514 140.953Z" fill="black"/>
<path d="M225.595 92.0735C230.54 92.4173 230.883 94.8006 232.121 97.413C233.025 99.4251 233.109 101.71 232.356 103.784L228.918 113.741C228.918 113.741 230.528 117.642 232.402 121.32C223.756 126.144 212.969 123.612 210.373 120.088C210.259 119.344 209.417 103.474 210.058 100.936C211.25 96.25 215.879 91.684 217.924 91.8501L225.595 92.0735Z" fill="#37474F"/>
<path d="M233.438 76.0664L231.45 78.57C231.608 78.709 231.791 78.8145 231.991 78.8802C232.19 78.9459 232.4 78.9704 232.609 78.9522C232.818 78.934 233.022 78.8734 233.206 78.7742C233.391 78.675 233.554 78.5393 233.685 78.3752C233.949 78.0328 234.071 77.6015 234.025 77.1713C233.979 76.7412 233.769 76.3454 233.438 76.0664Z" fill="#212228"/>
<path d="M213.794 72.7266C213.221 73.013 211.766 75.826 211.909 81.9847C212.029 87.2038 213.719 88.4928 214.573 88.8595C215.427 89.2262 217.059 89.0085 218.652 88.7392V91.873C218.652 91.873 216.452 94.4339 216.59 95.8833C216.727 97.3327 219.769 97.6593 221.832 96.2557C223.166 95.2945 224.311 94.0964 225.212 92.7209V85.1356C225.212 85.1356 226.283 86.5679 228.042 85.4049C229.801 84.2419 229.87 81.343 228.85 80.3061C227.83 79.2691 225.619 79.5957 225.212 81.0279C225.212 81.0279 222.628 81.4863 219.168 79.2577C215.432 76.8515 214.281 74.938 213.794 72.7266Z" fill="#FFA8A7"/>
<path d="M212.94 78.5571L214.401 77.8639C214.36 77.7667 214.3 77.6788 214.224 77.6055C214.148 77.5322 214.058 77.4751 213.96 77.4376C213.861 77.4001 213.756 77.383 213.651 77.3874C213.545 77.3917 213.442 77.4174 213.347 77.4628C213.152 77.5584 213.001 77.7252 212.925 77.9288C212.85 78.1324 212.855 78.3573 212.94 78.5571Z" fill="#212228"/>
<path d="M218.979 78.0999L220.342 78.9593C220.403 78.8731 220.446 78.7753 220.468 78.6719C220.49 78.5685 220.491 78.4617 220.47 78.3581C220.449 78.2545 220.407 78.1562 220.346 78.0695C220.286 77.9827 220.208 77.9092 220.119 77.8536C219.933 77.741 219.712 77.7038 219.499 77.7496C219.287 77.7954 219.101 77.9208 218.979 78.0999Z" fill="#212228"/>
<path d="M225.269 79.5898L225.177 82.7866C224.967 82.7914 224.758 82.7534 224.564 82.6749C224.369 82.5964 224.192 82.479 224.044 82.33C223.896 82.181 223.78 82.0034 223.703 81.8081C223.626 81.6128 223.59 81.4038 223.596 81.194C223.615 80.7628 223.8 80.3556 224.111 80.0569C224.423 79.7581 224.837 79.5909 225.269 79.5898Z" fill="#212228"/>
<path d="M218.319 80.4718C218.308 80.562 218.315 80.6537 218.34 80.741C218.366 80.8283 218.409 80.9093 218.468 80.9791C218.526 81.0488 218.598 81.1057 218.68 81.1461C218.761 81.1865 218.85 81.2097 218.941 81.214C219.032 81.2184 219.123 81.2039 219.208 81.1715C219.293 81.139 219.37 81.0893 219.435 81.0255C219.5 80.9617 219.551 80.8852 219.584 80.8007C219.618 80.7163 219.634 80.6258 219.631 80.5349C219.638 80.4475 219.626 80.3599 219.599 80.2768C219.571 80.1938 219.527 80.1171 219.47 80.0511C219.412 79.9851 219.342 79.9311 219.264 79.8922C219.185 79.8533 219.1 79.8303 219.013 79.8245C218.835 79.8198 218.663 79.8851 218.533 80.0062C218.404 80.1273 218.327 80.2945 218.319 80.4718Z" fill="#212228"/>
<path d="M217.563 85.0996L216.039 85.5866C216.064 85.6911 216.109 85.7894 216.173 85.8756C216.237 85.9618 216.318 86.0339 216.411 86.0876C216.504 86.1413 216.607 86.1754 216.713 86.1877C216.82 86.2001 216.928 86.1905 217.03 86.1595C217.135 86.1251 217.232 86.0704 217.316 85.9985C217.399 85.9266 217.468 85.8388 217.517 85.7403C217.567 85.6418 217.596 85.5345 217.604 85.4246C217.612 85.3146 217.598 85.2042 217.563 85.0996Z" fill="#F28F8F"/>
<path d="M213.244 80.202C213.233 80.2924 213.24 80.3842 213.266 80.4715C213.292 80.5589 213.335 80.64 213.394 80.7096C213.453 80.7793 213.525 80.836 213.607 80.8761C213.689 80.9163 213.778 80.9391 213.869 80.9431C213.96 80.9471 214.051 80.9322 214.136 80.8992C214.221 80.8663 214.298 80.8162 214.362 80.7519C214.427 80.6876 214.477 80.6107 214.511 80.5259C214.544 80.4411 214.559 80.3504 214.556 80.2593C214.562 80.172 214.551 80.0843 214.523 80.0013C214.496 79.9183 214.452 79.8416 214.394 79.7756C214.337 79.7095 214.267 79.6555 214.188 79.6167C214.11 79.5778 214.025 79.5547 213.937 79.5489C213.759 79.5458 213.587 79.6123 213.458 79.7344C213.328 79.8564 213.251 80.0242 213.244 80.202Z" fill="#212228"/>
<path d="M216.452 79.8242L216.349 83.7773L214.269 83.1299L216.452 79.8242Z" fill="#F28F8F"/>
<path d="M218.635 88.7441C220.313 88.5264 223.791 87.5353 224.306 86.166C224.087 86.848 223.665 87.4473 223.098 87.8847C222.061 88.767 218.635 89.7638 218.635 89.7638V88.7441Z" fill="#F28F8F"/>
<path d="M223.384 122.252C224.061 122.097 224.7 121.809 225.264 121.403C225.828 120.998 226.305 120.484 226.667 119.891C227.029 119.299 227.27 118.64 227.374 117.953C227.478 117.267 227.444 116.566 227.274 115.893C227.251 115.802 227.223 115.712 227.188 115.624C227.063 115.266 226.823 114.96 226.506 114.753C226.189 114.546 225.813 114.449 225.435 114.478C225.99 114.111 226.467 113.638 226.838 113.085C227.209 112.532 227.466 111.911 227.595 111.258L228.649 105.014C228.775 103.998 228.683 102.967 228.38 101.989L231.857 97.9785C231.857 97.9785 232.104 98.1561 232.499 98.4254C233.022 100.19 232.972 102.076 232.356 103.811L228.918 113.768C228.918 113.768 230.528 117.669 232.402 121.347C229.59 122.859 226.487 123.75 223.302 123.962C220.117 124.173 216.924 123.7 213.937 122.573C217.078 123.063 220.284 122.954 223.384 122.252Z" fill="#212228"/>
<path d="M241.241 116.874C236.755 98.5408 233.433 92.4164 227.984 92.4909C226.397 94.3929 226.839 100.133 229.348 103.622C229.348 103.622 234.957 115.447 235.85 119.664C236.635 123.359 237.523 128.005 237.466 131.179C237.453 131.742 237.232 132.28 236.847 132.691C235.822 133.803 235.816 134.697 235.128 135.923C234.607 136.885 234.04 137.24 234.2 137.458C234.413 137.689 234.705 137.83 235.018 137.853C235.33 137.876 235.64 137.78 235.885 137.584C236.364 137.237 236.792 136.824 237.157 136.358C236.982 137.534 236.642 138.68 236.148 139.761C235.002 142.356 235.277 143.68 238.778 142.757C240.972 142.184 242.353 140.351 242.679 135.075C242.841 133.133 242.86 131.182 242.737 129.237C242.301 124.218 241.963 119.824 241.241 116.874Z" fill="#FFA8A7"/>
</svg>
