<svg width="255" height="240" viewBox="0 0 255 240" fill="none" xmlns="http://www.w3.org/2000/svg">
<path d="M127.442 239.999C197.826 239.999 254.883 207.041 254.883 166.384C254.883 125.728 197.826 92.7695 127.442 92.7695C57.0575 92.7695 0 125.728 0 166.384C0 207.041 57.0575 239.999 127.442 239.999Z" fill="#5869E6"/>
<path d="M211.471 202.483C231.438 202.483 247.625 193.133 247.625 181.599C247.625 170.065 231.438 160.715 211.471 160.715C191.503 160.715 175.316 170.065 175.316 181.599C175.316 193.133 191.503 202.483 211.471 202.483Z" fill="#733DF5"/>
<path d="M119.973 192.866L79.1875 169.299L125.806 142.373L166.597 165.934L119.973 192.866Z" fill="#733DF5"/>
<path d="M8.91504 185.579L61.5187 215.962L105.64 190.483L53.0367 160.1L8.91504 185.579Z" fill="#733DF5"/>
<path d="M164.722 149.175C164.641 147.804 164.457 146.162 164.235 144.254C163.406 137.015 162.274 127.098 165.275 117.599C167.1 111.817 171.498 104.963 178.366 103.061C179.893 102.638 183.587 102.015 185.006 105.293C185.206 105.767 185.325 106.27 185.358 106.783C185.505 108.864 184.568 110.701 183.528 112.376C182.331 114.321 180.944 116.169 179.601 117.968C178.333 119.669 177.017 121.425 175.869 123.246C174.629 125.224 173.542 127.295 172.619 129.439L172.18 129.25C173.102 127.083 174.188 124.991 175.43 122.991C176.584 121.154 177.905 119.387 179.184 117.681C180.516 115.892 181.892 114.05 183.084 112.126C184.08 110.501 184.979 108.761 184.844 106.816C184.814 106.357 184.708 105.906 184.53 105.483C183.262 102.551 179.861 103.136 178.458 103.521C171.774 105.374 167.479 112.083 165.692 117.74C162.723 127.147 163.85 137.004 164.673 144.2C164.89 146.113 165.08 147.766 165.161 149.148L164.722 149.175Z" fill="white"/>
<path d="M165.21 157.055C165.174 157.06 165.138 157.06 165.102 157.055C164.998 157.034 164.9 156.99 164.816 156.925C164.733 156.86 164.665 156.776 164.62 156.681C164.525 156.412 164.525 156.12 164.62 155.852C164.696 155.332 164.696 154.805 164.62 154.286C164.62 153.993 164.571 153.684 164.571 153.408V150.043C165.004 143.998 166.774 138.125 169.754 132.849C172.398 128.248 175.322 125.187 178.962 123.203C180.924 122.125 183.076 121.435 185.299 121.171C187.262 120.954 189.235 121.476 190.835 122.634C192.487 123.94 193.229 126.178 192.606 127.95C192.167 129.191 191.165 130.118 190.142 130.958C188.316 132.448 186.323 133.781 184.4 135.07C182.802 136.154 181.15 137.238 179.607 138.43C174.884 142.077 170.922 146.615 167.945 151.788C167.458 152.627 166.998 153.494 166.575 154.361L166.402 154.703C166.233 155.012 166.084 155.333 165.958 155.662C165.931 155.732 165.903 155.879 165.866 156.047C165.838 156.356 165.74 156.654 165.578 156.919C165.477 157.009 165.346 157.057 165.21 157.055ZM186.079 121.621C185.836 121.621 185.592 121.621 185.343 121.653C183.185 121.905 181.097 122.575 179.195 123.626C175.642 125.56 172.777 128.568 170.177 133.087C167.237 138.298 165.488 144.096 165.058 150.064V153.397C165.058 153.657 165.058 153.939 165.107 154.237C165.194 154.804 165.194 155.382 165.107 155.949C165.049 156.125 165.049 156.315 165.107 156.491C165.121 156.518 165.141 156.542 165.165 156.561C165.19 156.58 165.218 156.593 165.248 156.599C165.345 156.399 165.41 156.185 165.443 155.965C165.469 155.815 165.505 155.667 165.551 155.521C165.683 155.173 165.839 154.835 166.017 154.508L166.185 154.172C166.618 153.294 167.084 152.422 167.572 151.571C168.584 149.817 169.708 148.13 170.935 146.52C173.362 143.349 176.193 140.508 179.358 138.072C180.918 136.88 182.575 135.769 184.178 134.697C186.096 133.412 188.073 132.085 189.887 130.611C190.851 129.825 191.799 128.942 192.2 127.815C192.741 126.227 192.075 124.217 190.575 123.03C189.28 122.064 187.694 121.567 186.079 121.621Z" fill="white"/>
<path d="M164.803 152.427H164.744C164.713 152.42 164.684 152.407 164.659 152.389C164.634 152.37 164.612 152.347 164.596 152.32C164.58 152.293 164.569 152.264 164.565 152.233C164.56 152.202 164.562 152.17 164.57 152.14C169.039 134.312 181.394 126.357 187.991 124.466C188.051 124.449 188.116 124.457 188.17 124.487C188.225 124.517 188.266 124.568 188.283 124.628C188.3 124.689 188.293 124.755 188.262 124.81C188.232 124.866 188.181 124.908 188.121 124.926C181.621 126.785 169.45 134.637 165.036 152.253C165.021 152.304 164.99 152.347 164.948 152.379C164.906 152.41 164.856 152.427 164.803 152.427Z" fill="white"/>
<path d="M164.777 137.796C164.714 137.79 164.655 137.76 164.613 137.711C164.572 137.663 164.551 137.6 164.555 137.536C165.98 118.283 178.567 107.732 179.997 106.6C180.022 106.579 180.05 106.564 180.08 106.555C180.11 106.546 180.142 106.543 180.173 106.546C180.205 106.55 180.235 106.56 180.263 106.576C180.29 106.591 180.314 106.612 180.333 106.638C180.353 106.662 180.367 106.69 180.376 106.72C180.385 106.751 180.388 106.782 180.384 106.813C180.38 106.845 180.371 106.875 180.356 106.902C180.34 106.93 180.32 106.954 180.295 106.974C178.882 108.095 166.44 118.521 165.037 137.574C165.031 137.637 165 137.695 164.951 137.736C164.903 137.778 164.841 137.799 164.777 137.796Z" fill="white"/>
<path d="M163.278 70.6472L133.158 53.2582C132.925 53.0909 132.652 52.9883 132.367 52.9607C132.081 52.9331 131.794 52.9815 131.533 53.1011L129.366 54.3528C129.128 54.5187 128.939 54.7455 128.818 55.0094C128.697 55.2734 128.649 55.565 128.679 55.8538V138.334C128.723 139.137 128.956 139.919 129.358 140.616C129.761 141.313 130.323 141.905 130.997 142.344L161.112 159.711C161.344 159.879 161.617 159.983 161.902 160.011C162.188 160.04 162.475 159.992 162.737 159.874L164.903 158.616C165.138 158.45 165.325 158.223 165.444 157.96C165.563 157.698 165.61 157.408 165.58 157.121V74.6572C165.538 73.8549 165.308 73.0738 164.908 72.3771C164.508 71.6804 163.95 71.0878 163.278 70.6472Z" fill="#263238"/>
<path d="M135.166 139.748L132.999 141V147.86C133.01 148.061 133.068 148.256 133.169 148.431C133.27 148.605 133.41 148.753 133.579 148.863L134.591 149.448C134.771 149.539 134.97 149.586 135.171 149.586C135.372 149.586 135.571 149.539 135.751 149.448L136.763 148.863C137.123 148.63 137.402 148.291 137.56 147.893L139.515 142.257L135.166 139.748Z" fill="#263238"/>
<path d="M132.999 147.858C133.01 148.059 133.068 148.255 133.169 148.429C133.27 148.603 133.41 148.751 133.579 148.861L134.591 149.446C134.661 149.488 134.74 149.514 134.822 149.522C134.903 149.53 134.985 149.519 135.062 149.49C135.138 149.461 135.207 149.416 135.264 149.356C135.32 149.297 135.363 149.226 135.388 149.148L137.332 143.507L132.999 140.998V147.858Z" fill="#37474F"/>
<path d="M156.897 152.26L154.73 153.517V160.372C154.74 160.573 154.798 160.769 154.897 160.944C154.997 161.119 155.137 161.268 155.305 161.38L156.323 161.965C156.502 162.056 156.699 162.103 156.9 162.103C157.1 162.103 157.298 162.056 157.477 161.965L158.495 161.38C158.855 161.147 159.133 160.808 159.291 160.41L161.241 154.769L156.897 152.26Z" fill="#263238"/>
<path d="M154.73 160.37C154.74 160.572 154.798 160.768 154.897 160.943C154.997 161.118 155.137 161.267 155.305 161.378L156.323 161.964C156.393 162.006 156.472 162.032 156.553 162.04C156.634 162.047 156.717 162.036 156.793 162.008C156.87 161.979 156.939 161.933 156.995 161.874C157.052 161.815 157.094 161.743 157.119 161.666L159.074 156.025L154.741 153.516L154.73 160.37Z" fill="#37474F"/>
<path d="M131.136 54.5753L161.251 71.9156C161.925 72.3558 162.487 72.9488 162.889 73.6463C163.292 74.3439 163.525 75.1266 163.569 75.9309V158.411C163.627 158.701 163.592 159.001 163.47 159.27C163.348 159.539 163.145 159.763 162.889 159.91C162.633 160.058 162.338 160.122 162.044 160.093C161.75 160.064 161.473 159.944 161.251 159.749L131.136 142.377C130.463 141.937 129.902 141.345 129.5 140.648C129.099 139.952 128.867 139.17 128.823 138.367V55.9084C128.765 55.6192 128.8 55.3191 128.921 55.0504C129.043 54.7817 129.246 54.558 129.501 54.4108C129.757 54.2635 130.052 54.2002 130.345 54.2297C130.638 54.2593 130.915 54.3801 131.136 54.5753Z" fill="#37474F"/>
<path d="M87.4053 167.313L119.979 186.127L165.585 159.786L163.413 158.529L130.839 139.715L87.4053 164.804V167.313Z" fill="#455A64"/>
<path d="M119.979 186.127V183.618L165.585 157.277V159.786L119.979 186.127Z" fill="#263238"/>
<path d="M120.186 182.474L119.855 182.252C125.635 173.501 125.597 158.382 125.126 154.589C125.088 154.335 125.061 154.177 125.055 154.118L125.451 154.053C125.451 154.172 125.494 154.313 125.516 154.481C125.938 157.163 128.327 171.734 131.154 176.156L130.818 176.373C128.581 172.899 126.669 163.525 125.711 158.117C125.77 164.256 124.876 175.414 120.186 182.474Z" fill="#FAFAFA"/>
<path d="M139.207 169.113C138.714 168.966 127.199 165.477 126.138 160.394L126.533 160.312C127.541 165.162 139.202 168.695 139.321 168.733L139.207 169.113Z" fill="#FAFAFA"/>
<path d="M127.583 167.053L127.29 165.812C127.25 165.584 127.134 165.376 126.961 165.223C126.788 165.069 126.568 164.979 126.337 164.967C126.146 164.939 125.951 164.97 125.779 165.056C125.607 165.142 125.465 165.279 125.373 165.449L124.999 165.292C125.124 165.044 125.323 164.841 125.569 164.711C125.814 164.581 126.094 164.53 126.369 164.566C126.569 164.578 126.763 164.633 126.939 164.726C127.116 164.82 127.271 164.95 127.393 165.107C127.458 164.594 127.72 164.125 128.124 163.802C128.277 163.721 128.449 163.682 128.621 163.688C128.794 163.694 128.962 163.744 129.11 163.834L128.931 164.192C128.841 164.134 128.737 164.1 128.63 164.093C128.523 164.086 128.416 164.107 128.319 164.154C127.859 164.414 127.68 165.416 127.653 165.779L127.583 167.053Z" fill="#FAFAFA"/>
<path d="M128.716 171.188L128.358 170.061C127.952 168.788 127.275 168.056 126.473 168.007C126.138 168.001 125.809 168.092 125.525 168.27C125.241 168.449 125.016 168.705 124.876 169.01L124.513 168.837C124.684 168.456 124.964 168.135 125.318 167.914C125.672 167.693 126.084 167.582 126.5 167.596C126.983 167.623 127.811 167.883 128.429 169.14C128.564 168.148 128.97 166.555 130.016 165.889C130.391 165.683 130.813 165.577 131.241 165.582C131.669 165.587 132.088 165.702 132.458 165.916L132.291 166.279C131.98 166.095 131.628 165.994 131.268 165.986C130.907 165.977 130.551 166.061 130.232 166.23C128.84 167.097 128.748 169.964 128.748 169.996L128.716 171.188Z" fill="#FAFAFA"/>
<path d="M123.823 173.941L123.466 173.756C124.267 172.212 126.028 171.101 127.555 171.177C127.879 171.181 128.198 171.257 128.489 171.401C128.779 171.544 129.034 171.751 129.234 172.006C129.381 171.226 129.685 170.484 130.126 169.825C130.567 169.166 131.137 168.603 131.802 168.17C132.515 167.696 133.338 167.413 134.191 167.35C135.045 167.286 135.901 167.443 136.676 167.806L136.519 168.17C135.805 167.839 135.018 167.696 134.233 167.755C133.448 167.814 132.692 168.072 132.035 168.505C131.332 168.961 130.746 169.575 130.323 170.297C129.899 171.02 129.651 171.831 129.597 172.667V173.691L129.218 172.738C129.092 172.399 128.866 172.106 128.57 171.899C128.274 171.692 127.922 171.58 127.561 171.578C126.158 171.508 124.56 172.526 123.823 173.941Z" fill="#FAFAFA"/>
<path d="M121.625 179.923L121.273 179.728C121.761 178.839 124.355 174.374 127.426 173.567C127.86 173.443 128.315 173.412 128.761 173.476C129.207 173.541 129.635 173.699 130.015 173.941L129.81 174.282C129.474 174.07 129.098 173.931 128.705 173.874C128.312 173.817 127.911 173.843 127.529 173.952C125.276 174.548 122.947 177.539 121.625 179.923Z" fill="#FAFAFA"/>
<path d="M161.24 132.189V134.698L119.978 158.53L87.4043 139.716V137.207L128.666 113.375L161.24 132.189Z" fill="#263238"/>
<path d="M161.24 132.189L119.978 156.021L87.4043 137.207L128.666 113.375L161.24 132.189Z" fill="#455A64"/>
<path d="M161.24 104.597V107.1L119.978 130.938L87.4043 112.118V109.615L128.666 85.7773L161.24 104.597Z" fill="#263238"/>
<path d="M161.24 104.597L119.978 128.429L87.4043 109.615L128.666 85.7773L161.24 104.597Z" fill="#455A64"/>
<path d="M119.839 95.7011L89.7241 78.3338C89.4917 78.1656 89.2189 78.062 88.9335 78.0335C88.6481 78.0049 88.3603 78.0524 88.0992 78.1712C87.7092 78.3934 86.3226 79.2008 85.9326 79.423C85.6954 79.5895 85.507 79.8166 85.387 80.0805C85.267 80.3444 85.2198 80.6356 85.2502 80.924V163.382C85.2944 164.186 85.5274 164.968 85.9301 165.664C86.3329 166.361 86.8942 166.953 87.5684 167.392L117.683 184.765C117.916 184.933 118.188 185.037 118.474 185.065C118.759 185.094 119.047 185.046 119.308 184.927C119.698 184.7 121.096 183.898 121.475 183.665C121.713 183.5 121.903 183.275 122.025 183.012C122.147 182.749 122.196 182.458 122.168 182.169V99.7165C122.123 98.911 121.889 98.1274 121.485 97.4296C121.08 96.7318 120.516 96.1396 119.839 95.7011Z" fill="#263238"/>
<path opacity="0.2" d="M119.981 108.36L122.158 107.102V99.5703L119.976 100.827L119.981 108.36Z" fill="black"/>
<path opacity="0.2" d="M163.419 83.2702L165.597 82.0185V74.4863L163.414 75.7435L163.419 83.2702Z" fill="black"/>
<path d="M91.7505 164.803L89.584 166.054V172.915C89.5949 173.116 89.6531 173.311 89.7538 173.485C89.8545 173.66 89.9949 173.808 90.1635 173.917L91.1764 174.502C91.3561 174.593 91.5546 174.641 91.756 174.641C91.9573 174.641 92.1558 174.593 92.3355 174.502L93.3484 173.917C93.7068 173.686 93.9849 173.349 94.1446 172.953L96.0999 167.312L91.7505 164.803Z" fill="#263238"/>
<path d="M89.5781 172.913C89.5891 173.114 89.6473 173.309 89.748 173.484C89.8487 173.658 89.989 173.806 90.1577 173.915L91.1705 174.501C91.2405 174.543 91.3192 174.569 91.4006 174.577C91.4821 174.584 91.5642 174.573 91.6408 174.545C91.7174 174.516 91.7865 174.47 91.843 174.411C91.8994 174.352 91.9418 174.281 91.9667 174.203L93.922 168.562L89.589 166.053L89.5781 172.913Z" fill="#37474F"/>
<path d="M113.464 177.346L111.298 178.597V185.458C111.308 185.658 111.365 185.854 111.465 186.028C111.565 186.202 111.704 186.35 111.872 186.46L112.89 187.045C113.069 187.136 113.267 187.184 113.467 187.184C113.668 187.184 113.865 187.136 114.044 187.045L115.062 186.46C115.419 186.227 115.697 185.891 115.858 185.496L117.808 179.855L113.464 177.346Z" fill="#263238"/>
<path d="M111.298 185.429C111.308 185.629 111.365 185.824 111.465 185.999C111.565 186.173 111.704 186.321 111.872 186.431L112.89 187.016C112.96 187.059 113.039 187.085 113.12 187.092C113.202 187.1 113.284 187.089 113.361 187.06C113.437 187.032 113.506 186.986 113.563 186.927C113.619 186.867 113.661 186.796 113.686 186.718L115.636 181.077L111.303 178.568L111.298 185.429Z" fill="#37474F"/>
<path d="M87.5473 79.591L117.668 96.9583C118.341 97.3988 118.902 97.992 119.303 98.6896C119.705 99.3872 119.937 100.17 119.98 100.974V186.125C119.98 186.125 118.307 185.133 117.668 184.765L87.5527 167.392C86.8785 166.953 86.3172 166.361 85.9145 165.664C85.5117 164.968 85.2787 164.186 85.2345 163.382V80.924C85.1766 80.6348 85.2108 80.3347 85.3324 80.066C85.454 79.7973 85.6568 79.5736 85.9123 79.4264C86.1677 79.2791 86.4629 79.2158 86.7563 79.2454C87.0496 79.2749 87.3263 79.3958 87.5473 79.591Z" fill="#37474F"/>
<path opacity="0.2" d="M117.668 96.9583L87.5473 79.591C87.3263 79.3958 87.0496 79.2749 86.7563 79.2454C86.4629 79.2158 86.1677 79.2791 85.9123 79.4264C85.6568 79.5736 85.454 79.7973 85.3324 80.066C85.2108 80.3347 85.1766 80.6348 85.2345 80.924V88.2882L119.98 108.338V100.974C119.937 100.17 119.705 99.3872 119.303 98.6896C118.902 97.992 118.341 97.3988 117.668 96.9583Z" fill="black"/>
<path d="M159.069 104.794C159.016 104.793 158.966 104.772 158.928 104.734C158.891 104.697 158.87 104.647 158.868 104.594V79.8516L135.28 93.4745C135.258 93.4889 135.233 93.4985 135.207 93.5027C135.181 93.5069 135.155 93.5056 135.129 93.499C135.104 93.4924 135.08 93.4805 135.059 93.4642C135.038 93.4478 135.021 93.4274 135.009 93.4041C134.995 93.3814 134.986 93.3561 134.983 93.3299C134.979 93.3036 134.98 93.2769 134.987 93.2512C134.993 93.2255 135.005 93.2013 135.021 93.1801C135.037 93.159 135.057 93.1411 135.08 93.1277L158.998 79.3314C159.028 79.3127 159.063 79.3027 159.098 79.3027C159.134 79.3027 159.169 79.3127 159.199 79.3314C159.229 79.3493 159.253 79.3747 159.27 79.4051C159.287 79.4356 159.296 79.4699 159.296 79.5048V104.594C159.296 104.623 159.29 104.651 159.279 104.677C159.267 104.704 159.25 104.727 159.228 104.746C159.207 104.765 159.181 104.779 159.154 104.788C159.126 104.796 159.097 104.798 159.069 104.794Z" fill="#FAFAFA"/>
<path d="M154.725 98.5207H154.665C154.614 98.5091 154.569 98.4775 154.54 98.4328C154.512 98.3881 154.502 98.334 154.514 98.2823L158.554 80.7741L150.538 94.6625C150.526 94.6857 150.509 94.7061 150.488 94.7225C150.468 94.739 150.444 94.7511 150.419 94.7582C150.393 94.7653 150.367 94.7672 150.341 94.7638C150.315 94.7604 150.29 94.7517 150.267 94.7384C150.244 94.7255 150.223 94.708 150.207 94.687C150.19 94.666 150.178 94.6419 150.171 94.6162C150.164 94.5904 150.162 94.5635 150.166 94.5371C150.169 94.5106 150.178 94.4851 150.191 94.462L158.858 79.4086C158.882 79.3672 158.921 79.3359 158.966 79.32C159.012 79.3042 159.062 79.3048 159.107 79.3219C159.151 79.34 159.188 79.3735 159.21 79.4162C159.231 79.459 159.237 79.5082 159.226 79.5549L154.893 98.3744C154.883 98.4131 154.862 98.4478 154.832 98.4739C154.802 98.5001 154.764 98.5164 154.725 98.5207Z" fill="#FAFAFA"/>
<path d="M146.043 92.2734C146.015 92.2736 145.988 92.2678 145.963 92.2566C145.938 92.2454 145.915 92.229 145.897 92.2084C145.86 92.1709 145.839 92.1203 145.839 92.0675C145.839 92.0148 145.86 91.9642 145.897 91.9266L158.928 79.3821C158.966 79.345 159.017 79.3242 159.069 79.3242C159.122 79.3242 159.173 79.345 159.21 79.3821C159.247 79.4205 159.268 79.472 159.268 79.5257C159.268 79.5793 159.247 79.6308 159.21 79.6693L146.178 92.2084C146.161 92.2277 146.14 92.2433 146.117 92.2545C146.094 92.2657 146.069 92.2721 146.043 92.2734Z" fill="#FAFAFA"/>
<path d="M159.069 100.79C159.016 100.789 158.966 100.767 158.929 100.73C158.891 100.693 158.87 100.642 158.868 100.59C158.868 97.3059 155.207 97.0837 155.05 97.0783C155.02 97.0762 154.992 97.0678 154.965 97.0538C154.939 97.0398 154.916 97.0205 154.898 96.997C154.881 96.974 154.87 96.9475 154.864 96.9194C154.858 96.8913 154.859 96.8623 154.866 96.8345C154.999 96.1636 154.954 95.4694 154.734 94.8216C154.515 94.1739 154.129 93.5953 153.615 93.1443C153.427 92.9568 153.201 92.8115 152.953 92.718C152.704 92.6246 152.439 92.5852 152.174 92.6024C152.033 92.6263 151.898 92.6803 151.779 92.7607C151.661 92.8411 151.561 92.946 151.486 93.0684C151.463 93.1079 151.428 93.1386 151.386 93.1553C151.343 93.1721 151.297 93.1739 151.253 93.1605C151.21 93.1472 151.172 93.1195 151.147 93.0821C151.121 93.0448 151.109 92.9998 151.112 92.9546C151.112 92.83 151.334 89.9092 148.767 89.622C148.734 89.618 148.702 89.606 148.675 89.5871C148.648 89.5683 148.625 89.5431 148.61 89.5136C148.595 89.4852 148.587 89.4536 148.587 89.4215C148.587 89.3895 148.595 89.3579 148.61 89.3294C148.61 89.3294 149.747 87.1998 149.309 86.154C149.258 86.0312 149.179 85.922 149.078 85.8354C148.978 85.7488 148.858 85.6871 148.729 85.6554C148.703 85.6486 148.679 85.6367 148.659 85.6203C148.638 85.6039 148.62 85.5833 148.608 85.56C148.595 85.5367 148.587 85.511 148.585 85.4845C148.582 85.4581 148.585 85.4314 148.594 85.4062C148.61 85.3559 148.645 85.3139 148.691 85.2887C148.738 85.2635 148.792 85.257 148.843 85.2707C149.029 85.3187 149.202 85.4099 149.347 85.537C149.492 85.6641 149.605 85.8234 149.677 86.0022C150.094 86.9939 149.39 88.6358 149.087 89.2535C151.08 89.6383 151.448 91.5186 151.502 92.4506C151.68 92.3241 151.884 92.2373 152.098 92.196C152.424 92.1644 152.752 92.207 153.059 92.3206C153.366 92.4341 153.643 92.6157 153.869 92.8516C154.407 93.3265 154.819 93.9275 155.068 94.601C155.317 95.2744 155.394 95.999 155.294 96.7098C156.171 96.8236 159.269 97.436 159.264 100.601C159.261 100.651 159.24 100.698 159.203 100.734C159.167 100.769 159.119 100.789 159.069 100.79Z" fill="#FAFAFA"/>
<path d="M159.068 95.3843C159.018 95.3845 158.969 95.3656 158.932 95.3314C158.895 95.2973 158.872 95.2504 158.868 95.2001C158.781 94.0513 158.115 92.5665 157.276 92.198C157.109 92.1237 156.925 92.0995 156.745 92.1283C156.565 92.1572 156.397 92.2379 156.263 92.3606C156.23 92.3818 156.191 92.3931 156.152 92.3931C156.112 92.3931 156.074 92.3818 156.041 92.3606C156.006 92.3417 155.978 92.3132 155.96 92.2785C155.942 92.2438 155.934 92.2045 155.938 92.1655C155.938 92.1655 156.116 90.1335 155.201 89.2935C155.002 89.1276 154.767 89.0116 154.515 88.955C154.262 88.8985 154 88.9031 153.749 88.9684C153.715 88.9758 153.679 88.9736 153.646 88.9621C153.612 88.9507 153.583 88.9304 153.56 88.9034C153.537 88.8761 153.521 88.8433 153.514 88.8082C153.508 88.773 153.51 88.7367 153.522 88.7029C153.706 88.1989 154.064 86.7846 153.582 86.2807C153.354 86.0477 152.937 86.026 152.336 86.2211C152.295 86.2347 152.25 86.2346 152.209 86.2209C152.168 86.2073 152.133 86.1807 152.108 86.1452C152.084 86.1104 152.07 86.0687 152.07 86.026C152.07 85.9833 152.084 85.9416 152.108 85.9068C152.444 85.4841 153.273 84.2486 153.067 83.658C153.033 83.5764 152.978 83.5053 152.908 83.452C152.837 83.3987 152.754 83.365 152.666 83.3545C152.641 83.3482 152.616 83.3368 152.595 83.3211C152.574 83.3054 152.556 83.2857 152.542 83.263C152.529 83.2404 152.52 83.2152 152.516 83.1891C152.512 83.1629 152.513 83.1363 152.52 83.1107C152.525 83.0848 152.535 83.0603 152.55 83.0387C152.565 83.0171 152.585 82.9988 152.607 82.985C152.629 82.9713 152.654 82.9623 152.68 82.9588C152.706 82.9552 152.733 82.9571 152.758 82.9644C152.91 82.9865 153.054 83.0482 153.175 83.1433C153.295 83.2384 153.389 83.3636 153.446 83.5062C153.668 84.1511 153.127 85.1319 152.747 85.6738C152.943 85.6273 153.146 85.6292 153.341 85.6792C153.535 85.7293 153.715 85.826 153.863 85.961C154.459 86.5787 154.172 87.8847 153.993 88.497C154.257 88.4654 154.525 88.4901 154.779 88.5695C155.033 88.6489 155.267 88.7811 155.466 88.9576C156.274 89.6945 156.36 91.1251 156.349 91.7808C156.519 91.7011 156.704 91.6597 156.891 91.6597C157.078 91.6597 157.263 91.7011 157.433 91.7808C158.456 92.2305 159.166 93.8291 159.269 95.1242C159.271 95.1503 159.268 95.1765 159.26 95.2014C159.252 95.2262 159.239 95.2492 159.221 95.2689C159.204 95.2886 159.183 95.3047 159.16 95.3161C159.136 95.3276 159.111 95.3342 159.085 95.3355L159.068 95.3843Z" fill="#FAFAFA"/>
<path d="M170.737 70.7263C170.711 70.4386 170.609 70.1629 170.441 69.9276C170.274 69.6924 170.047 69.5061 169.783 69.3878L137.496 50.7362C136.778 50.3729 135.985 50.1836 135.181 50.1836C134.376 50.1836 133.583 50.3729 132.865 50.7362L83.2082 79.4235C82.9447 79.5417 82.7176 79.7281 82.55 79.9633C82.3825 80.1986 82.2806 80.4742 82.2549 80.7619V83.2708C82.2806 83.5586 82.3825 83.8342 82.55 84.0695C82.7176 84.3047 82.9447 84.4911 83.2082 84.6093L115.495 103.255C116.212 103.621 117.006 103.812 117.811 103.812C118.616 103.812 119.409 103.621 120.126 103.255L169.783 74.5736C170.047 74.4554 170.274 74.2691 170.441 74.0338C170.609 73.7986 170.711 73.5229 170.737 73.2352V70.7263Z" fill="#37474F"/>
<path d="M115.495 100.747L83.2077 82.1004C81.9295 81.358 81.9295 80.1604 83.2077 79.4235L132.865 50.7362C133.583 50.3729 134.376 50.1836 135.18 50.1836C135.985 50.1836 136.778 50.3729 137.496 50.7362L169.783 69.3878C171.067 70.1302 171.067 71.3223 169.783 72.0647L120.126 100.747C119.409 101.112 118.615 101.303 117.81 101.303C117.005 101.303 116.212 101.112 115.495 100.747Z" fill="#455A64"/>
<path opacity="0.1" d="M163.412 78.248L148.214 97.0676L122.156 112.121L122.15 102.085L163.412 78.248Z" fill="black"/>
<path opacity="0.1" d="M161.241 107.098L148.214 124.66L122.156 139.719V129.678L161.241 107.098Z" fill="black"/>
<path opacity="0.1" d="M161.241 134.695L148.214 152.258L122.156 167.317V157.276L161.241 134.695Z" fill="black"/>
<path d="M101.465 189.512L61.5137 212.59L16.5254 186.542L56.4765 163.469L101.465 189.512Z" fill="#F0F5FF"/>
<path opacity="0.5" d="M101.465 189.512L61.5137 212.59L16.5254 186.542L56.4765 163.469L101.465 189.512Z" fill="black"/>
<path d="M56.4765 132.188V163.47L16.5254 186.544V155.266L56.4765 132.188Z" fill="#F0F5FF"/>
<path opacity="0.23" d="M56.4765 132.188V163.47L16.5254 186.544V155.266L56.4765 132.188Z" fill="black"/>
<path d="M61.5137 181.307V212.589L16.5254 186.541V155.264L61.5137 181.307Z" fill="#F0F5FF"/>
<path opacity="0.38" d="M61.5137 181.307V212.589L16.5254 186.541V155.264L61.5137 181.307Z" fill="black"/>
<path d="M101.465 158.23V189.513L56.4766 163.47V132.188L101.465 158.23Z" fill="#F0F5FF"/>
<path opacity="0.4" d="M101.465 158.23V189.513L56.4766 163.47V132.188L101.465 158.23Z" fill="black"/>
<path d="M101.467 189.513V158.23L61.5156 181.309V212.592L101.467 189.513Z" fill="#F0F5FF"/>
<path opacity="0.23" d="M101.467 189.513V158.23L61.5156 181.309V212.592L101.467 189.513Z" fill="black"/>
<path d="M56.4766 132.186L56.5307 114.867L101.411 140.943L101.465 158.229L56.4766 132.186Z" fill="#F0F5FF"/>
<path opacity="0.2" d="M56.4766 132.186L56.5307 114.867L101.411 140.943L101.465 158.229L56.4766 132.186Z" fill="black"/>
<path d="M61.5156 181.308L65.2637 166.156L104.852 143.289L101.467 158.229L61.5156 181.308Z" fill="#F0F5FF"/>
<path opacity="0.3" d="M61.5156 181.308L65.2637 166.156L104.852 143.289L101.467 158.229L61.5156 181.308Z" fill="black"/>
<path d="M16.5262 155.264L11.7598 139.55L51.7108 116.477L56.4772 132.186L16.5262 155.264Z" fill="#F0F5FF"/>
<path opacity="0.1" d="M16.5262 155.264L11.7598 139.55L51.7108 116.477L56.4772 132.186L16.5262 155.264Z" fill="black"/>
<path d="M16.5258 155.264L7.12305 142.275L52.1168 168.318L61.5141 181.307L16.5258 155.264Z" fill="#F0F5FF"/>
<path opacity="0.45" d="M16.5258 155.264L7.12305 142.275L52.1168 168.318L61.5141 181.307L16.5258 155.264Z" fill="black"/>
<g opacity="0.7">
<path d="M73.2776 203.284C73.2124 203.284 73.1498 203.258 73.1032 203.213C73.0566 203.167 73.0297 203.105 73.0283 203.04V197.534C73.0297 197.469 73.0564 197.406 73.1029 197.36C73.1493 197.313 73.2119 197.287 73.2776 197.285C73.3428 197.287 73.4048 197.313 73.4504 197.36C73.4959 197.407 73.5215 197.469 73.5214 197.534V203.04C73.5214 203.105 73.4957 203.167 73.45 203.212C73.4043 203.258 73.3423 203.284 73.2776 203.284Z" fill="white"/>
<path d="M72.558 199.442C72.5257 199.447 72.4928 199.447 72.4605 199.442C72.4013 199.415 72.3549 199.366 72.3307 199.305C72.3065 199.245 72.3064 199.177 72.3304 199.117L73.2083 197.096L74.1837 198.223C74.2186 198.273 74.2336 198.335 74.226 198.396C74.2184 198.457 74.1885 198.512 74.1422 198.553C74.0959 198.593 74.0364 198.615 73.9751 198.614C73.9137 198.613 73.8549 198.59 73.8098 198.548L73.3492 198.006L72.8073 199.307C72.7839 199.351 72.7477 199.388 72.7033 199.412C72.6589 199.436 72.6083 199.447 72.558 199.442Z" fill="white"/>
<path d="M75.5476 201.987C75.4824 201.986 75.4204 201.959 75.3748 201.912C75.3292 201.866 75.3037 201.803 75.3037 201.738V196.238C75.3037 196.173 75.3294 196.111 75.3751 196.066C75.4209 196.02 75.4829 195.994 75.5476 195.994C75.6122 195.994 75.6743 196.02 75.72 196.066C75.7657 196.111 75.7914 196.173 75.7914 196.238V201.733C75.7921 201.765 75.7864 201.798 75.7745 201.828C75.7627 201.859 75.7449 201.887 75.7222 201.911C75.6996 201.934 75.6725 201.953 75.6425 201.966C75.6126 201.98 75.5803 201.987 75.5476 201.987Z" fill="white"/>
<path d="M74.8283 198.147C74.796 198.152 74.763 198.152 74.7307 198.147C74.701 198.134 74.6741 198.115 74.6517 198.092C74.6293 198.068 74.6117 198.041 74.6001 198.01C74.5885 197.98 74.5831 197.948 74.5841 197.916C74.5851 197.883 74.5926 197.851 74.6061 197.822L75.4785 195.773L76.4539 196.895C76.4989 196.942 76.5241 197.004 76.5241 197.069C76.5241 197.133 76.4989 197.195 76.4539 197.242C76.4312 197.265 76.4042 197.283 76.3745 197.296C76.3447 197.308 76.3128 197.314 76.2805 197.314C76.2483 197.314 76.2163 197.308 76.1866 197.296C76.1568 197.283 76.1298 197.265 76.1071 197.242L75.6465 196.7L75.1046 198.001C75.0822 198.053 75.0425 198.096 74.9922 198.122C74.942 198.149 74.8841 198.158 74.8283 198.147Z" fill="white"/>
</g>
<g opacity="0.7">
<path d="M66.7281 207.02C66.6355 207.021 66.5441 206.998 66.4626 206.954C66.3646 206.892 66.2852 206.804 66.2328 206.7C66.1804 206.596 66.1568 206.48 66.1645 206.364V205.686C66.1659 205.621 66.1928 205.559 66.2394 205.514C66.286 205.468 66.3486 205.443 66.4138 205.443C66.4785 205.443 66.5405 205.468 66.5862 205.514C66.6319 205.56 66.6576 205.622 66.6576 205.686V206.364C66.6576 206.461 66.6576 206.516 66.7064 206.526C66.7552 206.537 66.7823 206.526 66.8635 206.483C67.0161 206.342 67.1362 206.17 67.2157 205.978C67.2952 205.786 67.3322 205.58 67.3241 205.372V202.554C67.3241 202.49 67.3498 202.428 67.3956 202.382C67.4413 202.336 67.5033 202.311 67.568 202.311C67.6327 202.311 67.6947 202.336 67.7404 202.382C67.7862 202.428 67.8118 202.49 67.8118 202.554V205.372C67.8239 205.665 67.767 205.956 67.6455 206.222C67.5241 206.489 67.3416 206.723 67.1128 206.906C66.997 206.977 66.8642 207.017 66.7281 207.02Z" fill="white"/>
<path d="M64.1445 204.749V204.326C64.2089 203.241 64.526 202.186 65.0705 201.245C65.615 200.304 66.3719 199.504 67.2806 198.907C68.1689 198.398 69.0138 198.322 69.6638 198.702C70.0105 198.939 70.2869 199.266 70.4641 199.647C70.6413 200.029 70.7129 200.451 70.6712 200.869V201.01L64.1445 204.749ZM68.7539 198.929C68.3202 198.949 67.8988 199.08 67.5298 199.308C66.751 199.821 66.0917 200.495 65.5964 201.285C65.101 202.075 64.7814 202.963 64.6591 203.887L70.1675 200.701C70.191 200.387 70.1331 200.073 69.9993 199.788C69.8655 199.503 69.6603 199.258 69.4038 199.075C69.2037 198.971 68.9796 198.92 68.7539 198.929Z" fill="white"/>
</g>
<path opacity="0.7" d="M7.12305 142.275L52.1168 168.318L61.5141 181.307L51.6185 168.779L7.12305 142.275Z" fill="white"/>
<path opacity="0.7" d="M101.467 158.23L61.5156 181.309V212.592L62.2631 181.938L101.467 158.23Z" fill="white"/>
<path d="M42.8399 145.714C46.9618 145.118 50.7261 142.463 53.131 139.125C54.2525 137.565 55.0786 135.813 55.5683 133.955C56.0885 132.218 56.174 130.379 55.8175 128.601C55.0755 125.626 52.3239 123.865 49.4154 123.497C47.9395 123.303 46.4387 123.449 45.0281 123.925C43.5655 124.427 42.2966 125.374 41.3991 126.634C40.8365 127.305 40.4825 128.127 40.3809 128.997C40.3722 129.338 40.4923 129.669 40.7172 129.925C40.9421 130.181 41.2552 130.343 41.5941 130.379C42.4663 130.452 43.3379 130.231 44.0694 129.75C44.9614 129.25 45.7471 128.58 46.3822 127.778C47.7446 126.096 48.764 124.162 49.3829 122.088C49.8171 120.308 49.8171 118.449 49.3829 116.669C49.053 114.807 48.2022 113.076 46.9293 111.678C45.4699 110.351 43.618 109.535 41.6537 109.354C39.6988 109.085 37.7083 109.27 35.8365 109.896C35.0144 110.145 34.2528 110.562 33.5996 111.12C33.1338 111.554 32.603 112.269 32.7926 112.973C32.9821 113.678 34.0112 113.992 34.7099 113.9C35.744 113.706 36.6913 113.193 37.4181 112.432C38.2282 111.634 38.9162 110.721 39.4601 109.722C39.8642 109.004 40.0751 108.194 40.0721 107.37C40.0017 103.935 36.2049 101.713 33.2313 101.085C32.4286 100.917 31.6064 100.862 30.7885 100.922C30.5123 100.922 30.6802 101.377 30.9022 101.361C32.5024 101.288 34.0926 101.648 35.5061 102.401C36.9007 103.043 38.072 104.086 38.8697 105.398C39.2252 106.045 39.4007 106.775 39.3778 107.513C39.3549 108.251 39.1346 108.969 38.7397 109.592C38.2094 110.516 37.549 111.359 36.779 112.096C36.1344 112.681 35.1541 113.358 34.2496 113.293C34.1002 113.293 33.954 113.25 33.8276 113.171C33.7011 113.091 33.5996 112.978 33.5346 112.843C33.5073 112.665 33.522 112.484 33.5775 112.312C33.633 112.141 33.7277 111.985 33.8542 111.857C34.3324 111.342 34.924 110.945 35.582 110.698C37.2069 110.022 38.9664 109.732 40.7221 109.852C42.5314 109.885 44.291 110.45 45.781 111.478C47.079 112.556 48.0008 114.019 48.4133 115.656C48.9359 117.318 49.0984 119.073 48.89 120.804C48.5683 122.545 47.8997 124.203 46.9238 125.681C45.9218 127.339 44.6652 128.932 42.7803 129.582C42.3145 129.75 41.3396 129.994 41.1554 129.317C40.9713 128.639 41.5021 127.805 41.8433 127.279C42.5979 126.091 43.6979 125.163 44.9956 124.618C46.2478 124.116 47.5996 123.912 48.9441 124.022C51.4952 124.212 54.0843 125.545 54.9725 128.081C55.4181 129.597 55.4666 131.202 55.1134 132.741C54.7947 134.429 54.1883 136.049 53.3206 137.532C51.4541 140.681 48.6273 143.148 45.2556 144.571C44.454 144.917 43.6307 145.21 42.7912 145.481C42.7045 145.513 42.7424 145.73 42.8399 145.714Z" fill="#E0E0E0"/>
<path d="M25.6223 98.6685C23.4558 98.5113 20.4714 100.218 21.533 101.465C22.5946 102.711 25.4111 100.695 25.4111 100.695C25.4111 100.695 25.1457 103.215 26.0665 103.502C26.9872 103.789 28.233 101.383 27.3122 99.8443C27.7563 100.019 28.2374 100.08 28.7108 100.019C29.1843 99.9583 29.6348 99.7789 30.0204 99.4975C31.3312 98.533 29.9446 97.6226 28.0976 97.7852C28.0976 97.7852 29.4192 93.4501 26.7489 94.2792C25.4111 94.6856 24.9399 96.2517 25.6223 98.6685Z" fill="#733DF5"/>
<path opacity="0.65" d="M25.6223 98.6685C23.4558 98.5113 20.4714 100.218 21.533 101.465C22.5946 102.711 25.4111 100.695 25.4111 100.695C25.4111 100.695 25.1457 103.215 26.0665 103.502C26.9872 103.789 28.233 101.383 27.3122 99.8443C27.7563 100.019 28.2374 100.08 28.7108 100.019C29.1843 99.9583 29.6348 99.7789 30.0204 99.4975C31.3312 98.533 29.9446 97.6226 28.0976 97.7852C28.0976 97.7852 29.4192 93.4501 26.7489 94.2792C25.4111 94.6856 24.9399 96.2517 25.6223 98.6685Z" fill="white"/>
<path d="M27.6371 99.5884C27.5172 99.4709 27.3906 99.3606 27.2579 99.2578C27.0683 99.1115 26.8679 98.9706 26.6784 98.8297C26.4938 98.6955 26.3001 98.5741 26.0988 98.4667C25.9829 98.4023 25.8636 98.3444 25.7413 98.2933C25.5725 98.214 25.3848 98.1839 25.1997 98.2066C25.1512 98.2079 25.1039 98.2223 25.0629 98.2482C25.0218 98.2741 24.9885 98.3106 24.9664 98.3538C24.9442 98.397 24.9341 98.4453 24.937 98.4938C24.94 98.5422 24.9559 98.589 24.983 98.6292C25.1319 98.7906 25.3178 98.9133 25.5247 98.9869L25.8172 99.144C26.0176 99.2632 26.1963 99.3987 26.3588 99.5342C26.5213 99.6696 26.7379 99.7997 26.9004 99.9352C27.1798 100.162 27.4922 100.345 27.8266 100.477C27.8416 100.485 27.8584 100.489 27.8754 100.489C27.8924 100.489 27.9091 100.485 27.9241 100.477C28.2004 100.26 27.7941 99.7455 27.6371 99.5884Z" fill="#455A64"/>
<path d="M200.313 39.0579C197.946 42.2442 194.778 59.7632 193.581 65.3825C187.823 65.2146 180.121 64.9436 177.207 64.6402C173.957 64.2988 167.019 63.6323 163.612 64.0983C155.157 65.1821 155.487 70.7418 155.693 72.194C155.915 73.8522 157.101 74.6108 161.651 73.5758C162.669 73.352 163.707 73.2303 164.749 73.2128C165.188 73.2128 166.114 72.9906 166.461 73.3645C167.002 73.9064 165.437 74.8167 165.047 75.066C164.446 75.4562 163.818 75.9493 163.693 76.6537C163.657 76.7825 163.659 76.9189 163.699 77.0466C163.738 77.1743 163.813 77.2881 163.915 77.3744C164.136 77.4645 164.383 77.4645 164.603 77.3744C166.68 76.8814 168.683 76.118 170.561 75.1039C171.269 74.6768 172.014 74.3141 172.787 74.0202C173.963 73.6408 175.176 73.863 176.357 73.863C178.897 73.863 192.324 75.196 198.293 75.803C202.425 76.2202 202.864 72.1398 204.289 68.0053C206.038 62.8791 210.182 35.9204 210.182 35.9204C206 35.3135 203.13 35.2756 200.313 39.0579Z" fill="#FFA8A7"/>
<path d="M210.247 35.4986C208.249 35.1301 203.748 34.572 201.3 37.3085C198.851 40.045 198.272 42.917 197.194 47.0624C196.116 51.2078 194.204 58.6316 194.204 58.6316C194.204 58.6316 197.362 63.1671 207.247 61.8829L210.247 35.4986Z" fill="#37474F"/>
<path d="M235.07 178.782L228.121 178.788L226.122 163.696L234.891 163.35L235.07 178.782Z" fill="#FFA8A7"/>
<path d="M211.996 171.245C210.815 173.299 207.019 173.131 203.872 172.404L203.509 157.568L212.798 157.199L211.996 171.245Z" fill="#FFA8A7"/>
<path d="M234.598 83.4233C234.848 89.8447 233.997 127.814 233.997 127.814C234.23 129.657 236.137 132.87 236.532 139.519C237.112 149.175 235.145 169.767 235.145 169.767C235.145 169.767 231.164 171.848 226.875 170.255C226.875 170.255 222.509 140.451 220.917 130.925C219.541 122.634 217.775 100.395 217.775 100.395L214.347 128.898C214.975 132.272 215.235 135.704 215.121 139.134C214.98 143.567 212.456 165.09 212.456 165.09C209.577 166.033 206.484 166.106 203.563 165.302C203.563 165.302 201.494 131.9 201.255 127.852C200.984 123.235 201.169 82.4805 201.169 82.4805L234.598 83.4233Z" fill="#F0F5FF"/>
<path opacity="0.2" d="M217.786 100.403C217.786 100.403 211.714 98.68 207.576 94.9844C207.576 94.9844 209.515 98.2953 215.007 101.232L214.693 126.11L217.786 100.403Z" fill="black"/>
<path d="M220.203 191.369C219.981 191.597 220.111 193.098 220.381 193.488C220.652 193.878 222.31 195.201 225.186 195.298C227.932 195.385 230.358 194.919 231.924 193.835C233.489 192.751 234.226 191.597 234.318 190.042C234.41 188.487 234.177 186.975 234.859 185.745C235.504 184.612 236.549 183.317 236.761 182.705C237.232 181.377 236.658 179.529 236.658 179.529L220.203 191.369Z" fill="#263238"/>
<path d="M227.135 177.458C227.139 178.05 227.055 178.64 226.886 179.208C226.298 181.056 225.415 182.796 224.27 184.361C223.479 185.375 222.483 186.225 221.643 187.206C220.745 188.136 220.194 189.347 220.083 190.636C220.051 192.804 222.412 193.427 224.216 193.676C226.171 193.934 228.159 193.749 230.033 193.134C231.02 192.837 231.9 192.26 232.567 191.473C233.234 190.687 233.659 189.724 233.792 188.702C233.868 188.1 233.792 187.493 233.857 186.892C234.041 185.51 234.564 184.196 235.379 183.066C235.851 182.412 236.254 181.711 236.582 180.974C237.085 179.62 236.582 178.14 236.17 176.834C235.818 175.702 235.417 174.418 235.022 174.542C235.022 175.144 235.022 175.198 234.637 175.626C234.095 176.168 234.123 176.921 233.554 177.393C233.718 176.892 233.831 176.377 233.89 175.854C233.916 175.64 233.864 175.424 233.743 175.247C233.548 175.088 233.318 174.976 233.072 174.922C232.215 174.668 231.335 174.503 230.445 174.428C229.597 174.317 228.738 174.344 227.899 174.51C227.651 174.567 227.43 174.707 227.271 174.905C227.131 175.127 227.062 175.386 227.07 175.648C227.07 176 227.13 176.883 227.135 177.458Z" fill="#455A64"/>
<path d="M225.077 183.166C225.857 182.538 227.645 182.456 228.63 182.527C229.629 182.572 230.6 182.87 231.452 183.394C231.578 183.478 231.729 183.514 231.879 183.496C232.029 183.478 232.168 183.407 232.27 183.296C232.33 183.233 232.375 183.158 232.403 183.075C232.431 182.993 232.441 182.905 232.431 182.819C232.422 182.732 232.394 182.649 232.35 182.574C232.305 182.499 232.244 182.435 232.173 182.386C231.231 181.748 230.13 181.387 228.993 181.346C226.578 181.275 225.89 181.714 225.89 181.714C225.89 181.714 224.812 182.462 225.077 183.166Z" fill="#F5F5F5"/>
<path d="M223.321 185.441C224.302 184.807 226.279 184.813 227.259 184.9C228.241 184.962 229.19 185.281 230.01 185.826C230.135 185.91 230.286 185.946 230.435 185.928C230.584 185.91 230.721 185.839 230.823 185.729C230.884 185.666 230.93 185.591 230.959 185.509C230.988 185.427 230.998 185.339 230.99 185.252C230.981 185.165 230.953 185.081 230.908 185.006C230.864 184.931 230.803 184.867 230.731 184.818C229.774 184.147 228.648 183.756 227.481 183.691C225.06 183.615 224.453 184.13 224.453 184.13C224.178 184.249 223.933 184.429 223.737 184.656C223.541 184.883 223.399 185.152 223.321 185.441Z" fill="#F5F5F5"/>
<path d="M229.86 179.004C228.837 178.865 227.796 178.992 226.838 179.373C226.426 179.627 226.171 180.31 226.448 180.457C227.287 180.08 228.206 179.916 229.123 179.98C230.03 180.033 230.92 180.242 231.756 180.597C231.967 180.679 232.216 180.798 232.433 180.906C232.502 180.942 232.578 180.963 232.655 180.968C232.733 180.973 232.811 180.963 232.885 180.937C232.958 180.911 233.026 180.87 233.083 180.818C233.14 180.765 233.186 180.701 233.218 180.63C233.269 180.507 233.273 180.369 233.229 180.243C233.185 180.117 233.096 180.012 232.98 179.947C232.02 179.412 230.955 179.091 229.86 179.004Z" fill="#F5F5F5"/>
<path d="M187.991 180.499C187.745 181.118 187.745 181.808 187.991 182.428C188.23 183.008 191.1 184.807 195.087 184.731C198.051 184.659 200.942 183.795 203.46 182.227C205.026 181.295 206.613 181.182 208.584 181.144C210.556 181.106 213.188 180.266 213.665 179.366C214.141 178.467 213.719 176.857 213.719 176.857L187.991 180.499Z" fill="#263238"/>
<path d="M204.619 168.85L204.311 168.769C204.135 168.715 203.951 168.699 203.769 168.72C203.574 168.767 203.398 168.873 203.265 169.023C202.855 169.504 202.493 170.023 202.182 170.573C201.288 171.89 199.474 172.936 197.524 173.873C196.192 174.507 194.897 174.989 193.527 175.526C192.156 176.062 190.277 176.366 189.194 177.038C187.569 178.018 187.26 180.647 188.982 181.774C190.477 182.749 194.464 183.914 198.732 182.917C201.066 182.375 203.742 180.034 206.775 179.942C208.709 179.883 212.37 179.514 213.676 178.111C214.168 177.487 213.676 175.401 213.237 173.602C212.782 171.641 212.988 168.725 212.11 168.725L212.056 169.706C211.975 169.999 211.287 170.286 211.07 170.513L210.29 171.337C209.971 171.718 209.581 172.035 209.142 172.269C208.367 172.616 207.463 172.41 206.634 172.193C206.602 172.193 207.051 170.687 207.1 170.54C207.149 170.426 207.164 170.3 207.143 170.177C207.102 170.057 207.019 169.956 206.91 169.89C206.227 169.389 205.447 169.035 204.619 168.85Z" fill="#455A64"/>
<path d="M199.376 172.908C199.528 172.65 199.741 172.434 199.998 172.28C200.254 172.125 200.545 172.038 200.844 172.025C201.727 171.906 203.238 172.621 204.164 173.461C204.251 173.539 204.318 173.638 204.358 173.749C204.399 173.859 204.412 173.978 204.396 174.094C204.379 174.211 204.335 174.322 204.267 174.417C204.198 174.513 204.107 174.59 204.002 174.642C203.869 174.708 203.72 174.73 203.575 174.707C203.429 174.684 203.294 174.615 203.189 174.512C202.175 173.502 200.807 172.926 199.376 172.908Z" fill="#F5F5F5"/>
<path d="M196.592 174.3C196.795 174.041 197.057 173.834 197.357 173.697C197.657 173.56 197.985 173.497 198.314 173.514C198.314 173.514 200.6 173.688 201.949 175.075C202.032 175.151 202.095 175.246 202.134 175.352C202.173 175.458 202.185 175.572 202.17 175.684C202.155 175.795 202.113 175.902 202.048 175.994C201.983 176.086 201.897 176.161 201.797 176.213C201.669 176.275 201.525 176.297 201.385 176.275C201.244 176.252 201.114 176.187 201.012 176.088C200.457 175.477 199.771 174.999 199.006 174.689C198.241 174.38 197.415 174.247 196.592 174.3Z" fill="#F5F5F5"/>
<path d="M193.531 175.525C193.761 175.287 194.04 175.101 194.349 174.98C194.657 174.86 194.988 174.807 195.319 174.826C196.614 174.969 197.83 175.517 198.796 176.392C198.879 176.469 198.943 176.564 198.981 176.671C199.02 176.777 199.032 176.891 199.017 177.003C199.002 177.115 198.961 177.222 198.896 177.315C198.831 177.408 198.745 177.483 198.644 177.535C198.516 177.599 198.372 177.62 198.231 177.597C198.09 177.574 197.96 177.507 197.859 177.405C197.333 176.777 196.668 176.28 195.917 175.954C195.166 175.627 194.349 175.481 193.531 175.525Z" fill="#F5F5F5"/>
<path d="M221.827 35.6153C224.384 35.908 227.406 36.0651 229.849 36.3848C232.996 36.7966 235.449 40.0534 236.218 45.0929C237.063 50.6417 233.51 66.5514 233.51 66.5514L234.642 85.3114C230.033 88.709 210.404 90.4918 200.622 83.4256C200.622 83.4256 200.85 51.4979 201.613 46.5776C202.664 39.8312 204.321 35.6424 211.904 35.1602L221.827 35.6153Z" fill="#455A64"/>
<path d="M239.304 76.2578C238.476 77.645 237.641 79.0322 236.786 80.4032C236.472 80.9126 236.152 81.4165 235.822 81.9151C235.643 82.1591 235.433 82.3794 235.199 82.5707C234.787 82.8525 233.931 82.6737 233.433 82.6899C230.985 82.773 228.544 82.9537 226.11 83.2318C225.906 83.2255 225.704 83.2639 225.517 83.3444C225.33 83.4249 225.162 83.5456 225.027 83.6978C224.927 83.9077 224.907 84.1468 224.971 84.3703C225.034 84.5939 225.178 84.7864 225.373 84.9117C225.772 85.1511 226.225 85.2853 226.69 85.3018L228.802 85.5511C229.103 85.5612 229.396 85.655 229.647 85.822C230.416 86.4452 228.948 87.193 228.51 87.4964C227.627 88.1097 226.685 88.6325 225.698 89.0571C221.295 90.9103 220.759 92.2542 221.571 93.7823C222.275 95.1099 225.319 99.9381 233.054 95.7818C236.168 94.1074 240.908 88.8186 243.069 86.261C246.178 82.5707 251.437 74.3395 251.437 74.3395C254.427 70.2321 254.811 68.5468 254.882 66.8399C254.952 65.133 245.674 52.0031 242.522 47.3917C239.369 42.7803 237.869 37.1718 229.847 36.4023C229.847 36.4023 226.793 46.0912 231.851 52.3608L243.534 68.666C243.534 68.666 240.442 74.3558 239.304 76.2578Z" fill="#FFA8A7"/>
<path d="M247.781 53.644C246.281 51.4765 244.716 49.2439 243.205 47.0331C236.84 37.7398 237.377 36.0383 228.201 35.9082C227.389 37.1545 226.907 42.5192 228.131 47.9055C229.155 52.4302 233.006 55.6219 233.006 55.6219L237.599 61.8481C237.599 61.8481 240.41 61.7614 243.779 59.2904C245.724 57.9269 247.139 55.9319 247.781 53.644Z" fill="#37474F"/>
<path d="M227.878 11.1933C227.416 10.5057 226.777 9.95611 226.029 9.60304C225.28 9.24998 224.449 9.10666 223.626 9.18835L223.149 20.8226L222.369 25.1197L222.505 29.9045C222.957 29.8405 223.386 29.6628 223.752 29.388C224.118 29.1132 224.408 28.7503 224.595 28.3331C225.31 26.9567 227.303 20.3024 227.303 20.3024C229.091 14.8348 228.712 12.3638 227.878 11.1933Z" fill="#263238"/>
<path d="M222.606 20.8763C222.807 20.1692 223.194 19.5291 223.727 19.0231C224.393 18.3078 227.047 17.5329 228.255 19.7871C229.463 22.0413 227.427 25.0163 225.856 25.9266C223.846 27.0971 222.666 25.504 222.666 25.504L222.714 36.217C221.777 38.3845 217.547 40.3136 215.029 40.0102C213.024 39.7555 211.177 38.1786 212.97 35.881L212.824 32.8248C212.824 32.8248 210.143 33.3667 208.816 33.2312C206.612 33.0036 205.144 31.34 204.364 28.9991C203.107 25.2384 202.549 22.1822 203.08 14.6392C203.665 6.37551 213.214 5.81737 218.538 8.80857C223.863 11.7998 222.606 20.8763 222.606 20.8763Z" fill="#FFA8A7"/>
<path d="M200.043 6.05696C199.799 4.25249 200.422 2.31797 202.312 1.67855C203.006 1.38823 203.767 1.29982 204.509 1.42348C205.251 1.54715 205.942 1.87788 206.504 2.37758C206.741 1.74098 207.151 1.18312 207.688 0.766691C208.224 0.350266 208.866 0.0917811 209.541 0.0202858C210.216 -0.0512095 210.898 0.0671184 211.51 0.361972C212.122 0.656826 212.639 1.11652 213.004 1.68939C213.506 0.926406 214.281 0.385248 215.171 0.177536C215.719 0.0550746 216.286 0.0437682 216.838 0.144286C217.391 0.244804 217.918 0.455106 218.388 0.762768C219.157 1.33174 220.062 2.38842 219.834 3.75938C221.356 3.14705 222.943 3.65642 224.075 5.00029C224.749 5.82322 225.13 6.84688 225.158 7.9102C225.198 8.4625 225.118 9.0168 224.925 9.53585C224.709 10.029 224.265 10.3541 224.135 10.9122C223.946 11.4033 223.848 11.9249 223.848 12.4512C223.972 13.3615 224.173 14.2719 224.292 15.1606C224.42 16.0457 224.494 16.9379 224.514 17.8321C224.486 18.0424 224.412 18.2441 224.299 18.4236C224.186 18.6032 224.036 18.7562 223.858 18.8725C223.353 19.3149 222.961 19.8725 222.716 20.4981C222.526 20.8883 222.342 21.8528 221.968 22.1238C220.814 22.9312 220.684 20.3193 220.63 19.8154C220.556 18.6587 220.556 17.4985 220.63 16.3419C220.048 16.3344 219.475 16.2051 218.946 15.9625C218.417 15.7199 217.945 15.3692 217.559 14.933C217.16 14.4428 216.896 13.856 216.795 13.2315C216.733 12.8737 216.704 12.5109 216.709 12.1477C215.956 13.394 214.206 13.9034 212.961 13.7734C210.87 13.5837 210.15 12.6896 209.814 12.0339C209.682 12.6802 209.398 13.2858 208.985 13.8005C208.451 14.3026 207.808 14.6736 207.106 14.8842C206.5 15.0459 205.862 15.0395 205.26 14.8657C204.658 14.692 204.114 14.3574 203.688 13.898C202.838 15.1172 200.682 14.5754 200.205 14.234C199.122 13.4482 198.77 12.5108 198.651 11.1723C198.532 9.83388 199.073 8.30577 200.557 7.78015C200.29 7.23893 200.116 6.65629 200.043 6.05696Z" fill="#263238"/>
<path d="M212.825 32.8108C212.825 32.8108 217.667 31.5861 219.325 30.5891C220.305 30.0148 221.089 29.1571 221.573 28.1289C221.363 29.1432 220.953 30.1051 220.365 30.9575C219.195 32.6211 212.879 34.1167 212.879 34.1167L212.825 32.8108Z" fill="#F28F8F"/>
<path d="M213.097 20.5215C213.115 20.7268 213.193 20.9221 213.321 21.0833C213.45 21.2445 213.623 21.3643 213.818 21.428C214.014 21.4917 214.225 21.4964 214.423 21.4414C214.622 21.3865 214.8 21.2744 214.935 21.1191C215.071 20.9638 215.157 20.7721 215.185 20.5679C215.212 20.3636 215.179 20.1558 215.089 19.9703C214.999 19.7848 214.857 19.6298 214.68 19.5245C214.503 19.4192 214.299 19.3683 214.093 19.3781C213.811 19.4004 213.548 19.5325 213.362 19.7463C213.175 19.96 213.08 20.2384 213.097 20.5215Z" fill="#263238"/>
<path d="M211.476 28.362C211.5 28.6264 211.602 28.8776 211.769 29.0845C211.935 29.2915 212.158 29.4449 212.411 29.5258C212.664 29.6067 212.935 29.6116 213.19 29.5397C213.446 29.4678 213.675 29.3224 213.848 29.1215C214.022 28.9206 214.133 28.6732 214.167 28.4099C214.201 28.1465 214.157 27.879 214.04 27.6405C213.924 27.4019 213.74 27.2029 213.511 27.0682C213.282 26.9335 213.019 26.869 212.754 26.8827C212.389 26.9118 212.051 27.0833 211.812 27.3601C211.572 27.637 211.452 27.9969 211.476 28.362Z" fill="#F28F8F"/>
<path d="M213.968 16.9099L216.199 17.9936C216.338 17.6876 216.355 17.3399 216.245 17.0223C216.135 16.7046 215.907 16.4413 215.609 16.2867C215.461 16.2159 215.3 16.1759 215.136 16.169C214.972 16.1622 214.808 16.1887 214.655 16.247C214.502 16.3052 214.362 16.394 214.244 16.5079C214.125 16.6219 214.032 16.7586 213.968 16.9099Z" fill="#263238"/>
<path d="M204.262 17.8477L206.163 16.222C206.064 16.0923 205.939 15.9843 205.797 15.9045C205.654 15.8248 205.497 15.775 205.335 15.7583C205.173 15.7415 205.009 15.7582 204.853 15.8072C204.697 15.8562 204.553 15.9365 204.43 16.0432C204.176 16.2653 204.017 16.5762 203.986 16.9119C203.955 17.2476 204.054 17.5826 204.262 17.8477Z" fill="#263238"/>
<path d="M204.83 20.3097C204.843 20.5102 204.916 20.7023 205.037 20.8619C205.159 21.0215 205.326 21.1415 205.516 21.2068C205.706 21.2721 205.911 21.2797 206.105 21.2288C206.299 21.1779 206.474 21.0707 206.608 20.9206C206.741 20.7706 206.828 20.5844 206.856 20.3855C206.884 20.1866 206.852 19.9838 206.765 19.8027C206.679 19.6216 206.54 19.4702 206.367 19.3676C206.195 19.265 205.996 19.2157 205.795 19.2259C205.524 19.2441 205.271 19.3678 205.091 19.5705C204.911 19.7732 204.817 20.0387 204.83 20.3097Z" fill="#263238"/>
<path d="M209.857 19.1035L209.824 25.514L206.434 24.5386L209.857 19.1035Z" fill="#F28F8F"/>
<path d="M201.348 28.0721C201.38 28.0651 201.409 28.0519 201.435 28.0333C201.461 28.0147 201.483 27.991 201.5 27.9637C201.519 27.9369 201.533 27.9065 201.54 27.8743C201.547 27.8421 201.548 27.8088 201.542 27.7764C201.536 27.7439 201.523 27.7131 201.505 27.6857C201.486 27.6583 201.463 27.6349 201.435 27.6169L198.488 25.6553C198.461 25.637 198.43 25.6243 198.398 25.618C198.366 25.6116 198.333 25.6117 198.3 25.6183C198.268 25.6248 198.238 25.6377 198.21 25.6561C198.183 25.6746 198.16 25.6982 198.142 25.7257C198.123 25.7528 198.11 25.7835 198.103 25.8159C198.096 25.8484 198.096 25.8818 198.103 25.9143C198.109 25.9467 198.122 25.9775 198.141 26.0047C198.16 26.0319 198.184 26.055 198.212 26.0725L201.153 28.0341C201.181 28.0544 201.213 28.0684 201.247 28.0749C201.28 28.0815 201.315 28.0805 201.348 28.0721Z" fill="#E0E0E0"/>
<path d="M201.034 29.3402C201.079 29.3288 201.121 29.3051 201.155 29.2717C201.188 29.2383 201.212 29.1964 201.223 29.1505C201.238 29.0852 201.226 29.0167 201.191 28.9599C201.155 28.9031 201.099 28.8626 201.034 28.8471L197.589 28.0505C197.557 28.0425 197.523 28.0408 197.491 28.0457C197.458 28.0507 197.427 28.062 197.399 28.0792C197.37 28.0963 197.346 28.1189 197.326 28.1456C197.307 28.1723 197.293 28.2026 197.285 28.2348C197.271 28.3001 197.283 28.3686 197.318 28.4254C197.353 28.4822 197.41 28.5227 197.475 28.5382L200.92 29.3402C200.958 29.3456 200.996 29.3456 201.034 29.3402Z" fill="#E0E0E0"/>
<path d="M197.833 31.6343H197.865L201.185 30.4205C201.248 30.3975 201.299 30.3506 201.327 30.2901C201.354 30.2297 201.357 30.1606 201.334 30.098C201.311 30.0355 201.264 29.9847 201.204 29.9568C201.144 29.9288 201.075 29.926 201.012 29.949L197.692 31.1628C197.661 31.1743 197.632 31.1918 197.608 31.2144C197.583 31.2371 197.564 31.2643 197.55 31.2946C197.537 31.3249 197.529 31.3576 197.528 31.3908C197.528 31.424 197.533 31.4571 197.546 31.488C197.568 31.5424 197.61 31.587 197.662 31.6138C197.715 31.6406 197.775 31.6478 197.833 31.6343Z" fill="#E0E0E0"/>
<path d="M169.743 57.6287C169.812 57.7662 169.919 57.8806 170.052 57.9577C170.184 58.0349 170.337 58.0714 170.49 58.0627C170.644 58.0541 170.791 58.0006 170.914 57.9091C171.038 57.8175 171.131 57.6917 171.184 57.5474L173.654 51.4512C173.694 51.3535 173.714 51.2487 173.712 51.1431C173.711 51.0374 173.689 50.9332 173.646 50.8365C173.604 50.7398 173.542 50.6527 173.465 50.5803C173.388 50.508 173.297 50.4519 173.198 50.4154C173.099 50.379 172.994 50.3629 172.888 50.3682C172.783 50.3734 172.679 50.3999 172.584 50.446C172.489 50.4921 172.405 50.5569 172.335 50.6365C172.266 50.7161 172.213 50.8089 172.18 50.9094L169.705 57.0055C169.669 57.1065 169.653 57.2139 169.66 57.3211C169.666 57.4282 169.695 57.5329 169.743 57.6287Z" fill="#E0E0E0"/>
<path d="M165.676 57.5942C165.755 57.754 165.885 57.8822 166.047 57.9578C166.208 58.0334 166.39 58.0519 166.564 58.0103C166.737 57.9688 166.891 57.8695 167 57.7289C167.11 57.5883 167.168 57.4147 167.166 57.2366L167.085 49.6502C167.068 49.4538 166.979 49.2707 166.834 49.1372C166.689 49.0038 166.499 48.9297 166.302 48.9297C166.104 48.9297 165.915 49.0038 165.77 49.1372C165.624 49.2707 165.535 49.4538 165.519 49.6502L165.594 57.2366C165.593 57.3605 165.621 57.4831 165.676 57.5942Z" fill="#E0E0E0"/>
<path d="M158.78 53.3735L158.829 53.4656L162.561 58.8844C162.676 59.056 162.855 59.175 163.058 59.2156C163.261 59.2562 163.471 59.2151 163.644 59.1012C163.812 58.9829 163.928 58.8039 163.968 58.6019C164.007 58.3998 163.967 58.1904 163.855 58.0174L160.123 52.5986C160.015 52.4305 159.845 52.3107 159.651 52.2638C159.456 52.217 159.251 52.2468 159.078 52.347C158.905 52.4472 158.777 52.6102 158.72 52.8023C158.664 52.9944 158.683 53.2008 158.775 53.3789L158.78 53.3735Z" fill="#E0E0E0"/>
</svg>
