<svg width="144" height="208" viewBox="0 0 144 208" fill="none" xmlns="http://www.w3.org/2000/svg">
<circle cx="72" cy="151" r="9" fill="white"/>
<path d="M53 147.5V138.75C53 128.395 61.3947 120 71.75 120C82.1053 120 90.5 128.395 90.5 138.75V147.5M122 132L121.575 143.699C121.213 153.644 116.182 162.836 108 168.5M72 155V182M4 80.5V135.5C4 173.055 34.4446 203.5 72 203.5C109.555 203.5 140 173.055 140 135.5V118M108 88.5H23V136.577C23 156.032 35.1984 173.399 53.5 180M122 74V110.5M140 77L138.22 60.2214C135.151 31.2774 112.814 8.11626 84 4M8 43.5L8.69029 41.4822C16.1091 19.7965 36.0982 4.90402 59 4M122 74.5V73C122 45.6619 99.8381 23.5 72.5 23.5H68.5C43.371 23.5 23 43.871 23 69M74.5 41C88.5 41 105.4 52.1 105 74.5" stroke="white" stroke-width="8" stroke-linecap="round"/>
</svg>
